<?xml version="1.0" encoding="UTF-8" standalone="no"?>
<!DOCTYPE svg PUBLIC "-//W3C//DTD SVG 1.1//EN"
 "http://www.w3.org/Graphics/SVG/1.1/DTD/svg11.dtd">
<!-- Generated by graphviz version 2.43.0 (0)
 -->
<!-- Title: Frequency.hpp Pages: 1 -->
<svg width="2237pt" height="756pt"
 viewBox="0.00 0.00 2237.00 756.00" xmlns="http://www.w3.org/2000/svg" xmlns:xlink="http://www.w3.org/1999/xlink">
<g id="graph0" class="graph" transform="scale(1 1) rotate(0) translate(4 752)">
<title>Frequency.hpp</title>
<polygon fill="white" stroke="transparent" points="-4,4 -4,-752 2233,-752 2233,4 -4,4"/>
<!-- Node1 -->
<g id="node1" class="node">
<title>Node1</title>
<g id="a_node1"><a xlink:title=" ">
<polygon fill="#bfbfbf" stroke="black" points="820.5,-728.5 820.5,-747.5 906.5,-747.5 906.5,-728.5 820.5,-728.5"/>
<text text-anchor="middle" x="863.5" y="-735.5" font-family="Helvetica,sans-Serif" font-size="10.00">Frequency.hpp</text>
</a>
</g>
</g>
<!-- Node2 -->
<g id="node2" class="node">
<title>Node2</title>
<g id="a_node2"><a xlink:href="../../db/d02/Settings_8hpp.html" target="_top" xlink:title="All user settings and debugging options can be changed here.">
<polygon fill="white" stroke="black" points="825,-672.5 825,-691.5 902,-691.5 902,-672.5 825,-672.5"/>
<text text-anchor="middle" x="863.5" y="-679.5" font-family="Helvetica,sans-Serif" font-size="10.00">Settings.hpp</text>
</a>
</g>
</g>
<!-- Node1&#45;&gt;Node2 -->
<g id="edge1" class="edge">
<title>Node1&#45;&gt;Node2</title>
<path fill="none" stroke="midnightblue" d="M863.5,-717.8C863.5,-708.91 863.5,-698.78 863.5,-691.75"/>
<polygon fill="midnightblue" stroke="midnightblue" points="860,-718.08 863.5,-728.08 867,-718.08 860,-718.08"/>
</g>
<!-- Node3 -->
<g id="node3" class="node">
<title>Node3</title>
<g id="a_node3"><a xlink:href="../../d2/dd5/SettingsWrapper_8hpp.html" target="_top" xlink:title=" ">
<polygon fill="white" stroke="black" points="804.5,-616.5 804.5,-635.5 922.5,-635.5 922.5,-616.5 804.5,-616.5"/>
<text text-anchor="middle" x="863.5" y="-623.5" font-family="Helvetica,sans-Serif" font-size="10.00">SettingsWrapper.hpp</text>
</a>
</g>
</g>
<!-- Node2&#45;&gt;Node3 -->
<g id="edge2" class="edge">
<title>Node2&#45;&gt;Node3</title>
<path fill="none" stroke="midnightblue" d="M863.5,-661.8C863.5,-652.91 863.5,-642.78 863.5,-635.75"/>
<polygon fill="midnightblue" stroke="midnightblue" points="860,-662.08 863.5,-672.08 867,-662.08 860,-662.08"/>
</g>
<!-- Node4 -->
<g id="node4" class="node">
<title>Node4</title>
<g id="a_node4"><a xlink:href="../../d4/db3/Button_8hpp.html" target="_top" xlink:title=" ">
<polygon fill="white" stroke="black" points="333.5,-224.5 333.5,-243.5 403.5,-243.5 403.5,-224.5 333.5,-224.5"/>
<text text-anchor="middle" x="368.5" y="-231.5" font-family="Helvetica,sans-Serif" font-size="10.00">Button.hpp</text>
</a>
</g>
</g>
<!-- Node3&#45;&gt;Node4 -->
<g id="edge3" class="edge">
<title>Node3&#45;&gt;Node4</title>
<path fill="none" stroke="midnightblue" d="M794.23,-620.25C679.49,-610.47 462.5,-582.97 462.5,-515 462.5,-515 462.5,-515 462.5,-345 462.5,-297.27 410.72,-259.8 384.02,-243.65"/>
<polygon fill="midnightblue" stroke="midnightblue" points="794.08,-623.75 804.33,-621.09 794.65,-616.78 794.08,-623.75"/>
</g>
<!-- Node10 -->
<g id="node10" class="node">
<title>Node10</title>
<g id="a_node10"><a xlink:href="../../df/dee/Debug_8hpp.html" target="_top" xlink:title=" ">
<polygon fill="white" stroke="black" points="829,-560.5 829,-579.5 898,-579.5 898,-560.5 829,-560.5"/>
<text text-anchor="middle" x="863.5" y="-567.5" font-family="Helvetica,sans-Serif" font-size="10.00">Debug.hpp</text>
</a>
</g>
</g>
<!-- Node3&#45;&gt;Node10 -->
<g id="edge9" class="edge">
<title>Node3&#45;&gt;Node10</title>
<path fill="none" stroke="midnightblue" d="M857.03,-606.1C856.4,-597.14 856.84,-586.86 858.37,-579.75"/>
<polygon fill="midnightblue" stroke="midnightblue" points="853.57,-606.62 858.33,-616.08 860.51,-605.71 853.57,-606.62"/>
</g>
<!-- Node34 -->
<g id="node34" class="node">
<title>Node34</title>
<g id="a_node34"><a xlink:href="../../d8/df3/FilteredAnalog_8hpp.html" target="_top" xlink:title=" ">
<polygon fill="white" stroke="black" points="1889.5,-224.5 1889.5,-243.5 1997.5,-243.5 1997.5,-224.5 1889.5,-224.5"/>
<text text-anchor="middle" x="1943.5" y="-231.5" font-family="Helvetica,sans-Serif" font-size="10.00">FilteredAnalog.hpp</text>
</a>
</g>
</g>
<!-- Node3&#45;&gt;Node34 -->
<g id="edge73" class="edge">
<title>Node3&#45;&gt;Node34</title>
<path fill="none" stroke="midnightblue" d="M933.05,-625.49C1177.5,-626.31 1982.5,-620.96 1982.5,-515 1982.5,-515 1982.5,-515 1982.5,-345 1982.5,-305.29 1959.64,-261.9 1948.92,-243.75"/>
<polygon fill="midnightblue" stroke="midnightblue" points="932.89,-621.99 922.87,-625.45 932.86,-628.99 932.89,-621.99"/>
</g>
<!-- Node43 -->
<g id="node43" class="node">
<title>Node43</title>
<g id="a_node43"><a xlink:href="../../d4/d93/Updatable_8hpp.html" target="_top" xlink:title=" ">
<polygon fill="white" stroke="black" points="597.5,-448.5 597.5,-467.5 685.5,-467.5 685.5,-448.5 597.5,-448.5"/>
<text text-anchor="middle" x="641.5" y="-455.5" font-family="Helvetica,sans-Serif" font-size="10.00">Updatable.hpp</text>
</a>
</g>
</g>
<!-- Node3&#45;&gt;Node43 -->
<g id="edge77" class="edge">
<title>Node3&#45;&gt;Node43</title>
<path fill="none" stroke="midnightblue" d="M836.91,-611.72C803.11,-594.18 743.83,-561.12 699.5,-524 678.4,-506.33 657.98,-480.93 647.95,-467.72"/>
<polygon fill="midnightblue" stroke="midnightblue" points="835.64,-615.01 846.13,-616.46 838.83,-608.78 835.64,-615.01"/>
</g>
<!-- Node46 -->
<g id="node46" class="node">
<title>Node46</title>
<g id="a_node46"><a xlink:href="../../d1/d1f/ShiftRegisterOutRGB_8hpp.html" target="_top" xlink:title=" ">
<polygon fill="white" stroke="black" points="2010.5,-560.5 2010.5,-579.5 2148.5,-579.5 2148.5,-560.5 2010.5,-560.5"/>
<text text-anchor="middle" x="2079.5" y="-567.5" font-family="Helvetica,sans-Serif" font-size="10.00">ShiftRegisterOutRGB.hpp</text>
</a>
</g>
</g>
<!-- Node3&#45;&gt;Node46 -->
<g id="edge74" class="edge">
<title>Node3&#45;&gt;Node46</title>
<path fill="none" stroke="midnightblue" d="M932.78,-623.9C1110,-620.71 1594.21,-609.77 1996.5,-580 2000.98,-579.67 2005.59,-579.29 2010.24,-578.87"/>
<polygon fill="midnightblue" stroke="midnightblue" points="932.49,-620.4 922.56,-624.08 932.62,-627.4 932.49,-620.4"/>
</g>
<!-- Node5 -->
<g id="node5" class="node">
<title>Node5</title>
<g id="a_node5"><a xlink:href="../../de/dd1/Button_8cpp.html" target="_top" xlink:title=" ">
<polygon fill="white" stroke="black" points="334,-168.5 334,-187.5 403,-187.5 403,-168.5 334,-168.5"/>
<text text-anchor="middle" x="368.5" y="-175.5" font-family="Helvetica,sans-Serif" font-size="10.00">Button.cpp</text>
</a>
</g>
</g>
<!-- Node4&#45;&gt;Node5 -->
<g id="edge4" class="edge">
<title>Node4&#45;&gt;Node5</title>
<path fill="none" stroke="midnightblue" d="M368.5,-213.8C368.5,-204.91 368.5,-194.78 368.5,-187.75"/>
<polygon fill="midnightblue" stroke="midnightblue" points="365,-214.08 368.5,-224.08 372,-214.08 365,-214.08"/>
</g>
<!-- Node6 -->
<g id="node6" class="node">
<title>Node6</title>
<g id="a_node6"><a xlink:href="../../d5/d04/IncrementButton_8hpp.html" target="_top" xlink:title=" ">
<polygon fill="white" stroke="black" points="197,-168.5 197,-187.5 316,-187.5 316,-168.5 197,-168.5"/>
<text text-anchor="middle" x="256.5" y="-175.5" font-family="Helvetica,sans-Serif" font-size="10.00">IncrementButton.hpp</text>
</a>
</g>
</g>
<!-- Node4&#45;&gt;Node6 -->
<g id="edge5" class="edge">
<title>Node4&#45;&gt;Node6</title>
<path fill="none" stroke="midnightblue" d="M341.25,-219.86C320.48,-209.85 292.48,-196.35 274.45,-187.65"/>
<polygon fill="midnightblue" stroke="midnightblue" points="339.98,-223.13 350.51,-224.32 343.02,-216.83 339.98,-223.13"/>
</g>
<!-- Node8 -->
<g id="node8" class="node">
<title>Node8</title>
<g id="a_node8"><a xlink:href="../../df/df5/IncrementDecrementButtons_8hpp.html" target="_top" xlink:title=" ">
<polygon fill="white" stroke="black" points="0,-168.5 0,-187.5 179,-187.5 179,-168.5 0,-168.5"/>
<text text-anchor="middle" x="89.5" y="-175.5" font-family="Helvetica,sans-Serif" font-size="10.00">IncrementDecrementButtons.hpp</text>
</a>
</g>
</g>
<!-- Node4&#45;&gt;Node8 -->
<g id="edge7" class="edge">
<title>Node4&#45;&gt;Node8</title>
<path fill="none" stroke="midnightblue" d="M323.47,-224.28C271.26,-214.18 185.74,-197.63 133.83,-187.58"/>
<polygon fill="midnightblue" stroke="midnightblue" points="322.96,-227.75 333.45,-226.22 324.29,-220.88 322.96,-227.75"/>
</g>
<!-- Node7 -->
<g id="node7" class="node">
<title>Node7</title>
<g id="a_node7"><a xlink:href="../../db/d9d/IncrementButton_8cpp.html" target="_top" xlink:title=" ">
<polygon fill="white" stroke="black" points="197,-112.5 197,-131.5 316,-131.5 316,-112.5 197,-112.5"/>
<text text-anchor="middle" x="256.5" y="-119.5" font-family="Helvetica,sans-Serif" font-size="10.00">IncrementButton.cpp</text>
</a>
</g>
</g>
<!-- Node6&#45;&gt;Node7 -->
<g id="edge6" class="edge">
<title>Node6&#45;&gt;Node7</title>
<path fill="none" stroke="midnightblue" d="M256.5,-157.8C256.5,-148.91 256.5,-138.78 256.5,-131.75"/>
<polygon fill="midnightblue" stroke="midnightblue" points="253,-158.08 256.5,-168.08 260,-158.08 253,-158.08"/>
</g>
<!-- Node9 -->
<g id="node9" class="node">
<title>Node9</title>
<g id="a_node9"><a xlink:href="../../da/d66/IncrementDecrementButtons_8cpp.html" target="_top" xlink:title=" ">
<polygon fill="white" stroke="black" points="0.5,-112.5 0.5,-131.5 178.5,-131.5 178.5,-112.5 0.5,-112.5"/>
<text text-anchor="middle" x="89.5" y="-119.5" font-family="Helvetica,sans-Serif" font-size="10.00">IncrementDecrementButtons.cpp</text>
</a>
</g>
</g>
<!-- Node8&#45;&gt;Node9 -->
<g id="edge8" class="edge">
<title>Node8&#45;&gt;Node9</title>
<path fill="none" stroke="midnightblue" d="M89.5,-157.8C89.5,-148.91 89.5,-138.78 89.5,-131.75"/>
<polygon fill="midnightblue" stroke="midnightblue" points="86,-158.08 89.5,-168.08 93,-158.08 86,-158.08"/>
</g>
<!-- Node10&#45;&gt;Node3 -->
<g id="edge72" class="edge">
<title>Node10&#45;&gt;Node3</title>
<path fill="none" stroke="midnightblue" d="M869.96,-589.69C870.61,-598.64 870.18,-608.93 868.67,-616.08"/>
<polygon fill="midnightblue" stroke="midnightblue" points="873.42,-589.2 868.63,-579.75 866.48,-590.13 873.42,-589.2"/>
</g>
<!-- Node11 -->
<g id="node11" class="node">
<title>Node11</title>
<g id="a_node11"><a xlink:href="../../df/d66/Debug_8cpp.html" target="_top" xlink:title=" ">
<polygon fill="white" stroke="black" points="829.5,-504.5 829.5,-523.5 897.5,-523.5 897.5,-504.5 829.5,-504.5"/>
<text text-anchor="middle" x="863.5" y="-511.5" font-family="Helvetica,sans-Serif" font-size="10.00">Debug.cpp</text>
</a>
</g>
</g>
<!-- Node10&#45;&gt;Node11 -->
<g id="edge10" class="edge">
<title>Node10&#45;&gt;Node11</title>
<path fill="none" stroke="midnightblue" d="M863.5,-549.8C863.5,-540.91 863.5,-530.78 863.5,-523.75"/>
<polygon fill="midnightblue" stroke="midnightblue" points="860,-550.08 863.5,-560.08 867,-550.08 860,-550.08"/>
</g>
<!-- Node12 -->
<g id="node12" class="node">
<title>Node12</title>
<g id="a_node12"><a xlink:href="../../d1/d93/Error_8hpp.html" target="_top" xlink:title=" ">
<polygon fill="white" stroke="black" points="924.5,-504.5 924.5,-523.5 984.5,-523.5 984.5,-504.5 924.5,-504.5"/>
<text text-anchor="middle" x="954.5" y="-511.5" font-family="Helvetica,sans-Serif" font-size="10.00">Error.hpp</text>
</a>
</g>
</g>
<!-- Node10&#45;&gt;Node12 -->
<g id="edge11" class="edge">
<title>Node10&#45;&gt;Node12</title>
<path fill="none" stroke="midnightblue" d="M886.79,-555.18C903.54,-545.24 925.6,-532.15 939.92,-523.65"/>
<polygon fill="midnightblue" stroke="midnightblue" points="884.93,-552.21 878.12,-560.32 888.51,-558.23 884.93,-552.21"/>
</g>
<!-- Node45 -->
<g id="node45" class="node">
<title>Node45</title>
<g id="a_node45"><a xlink:href="../../de/dd1/LinkedList_8hpp.html" target="_top" xlink:title=" ">
<polygon fill="white" stroke="black" points="708.5,-504.5 708.5,-523.5 794.5,-523.5 794.5,-504.5 708.5,-504.5"/>
<text text-anchor="middle" x="751.5" y="-511.5" font-family="Helvetica,sans-Serif" font-size="10.00">LinkedList.hpp</text>
</a>
</g>
</g>
<!-- Node10&#45;&gt;Node45 -->
<g id="edge70" class="edge">
<title>Node10&#45;&gt;Node45</title>
<path fill="none" stroke="midnightblue" d="M836.25,-555.86C815.48,-545.85 787.48,-532.35 769.45,-523.65"/>
<polygon fill="midnightblue" stroke="midnightblue" points="834.98,-559.13 845.51,-560.32 838.02,-552.83 834.98,-559.13"/>
</g>
<!-- Node13 -->
<g id="node13" class="node">
<title>Node13</title>
<g id="a_node13"><a xlink:href="../../de/d76/Array_8hpp.html" target="_top" xlink:title=" ">
<polygon fill="white" stroke="black" points="1682.5,-448.5 1682.5,-467.5 1744.5,-467.5 1744.5,-448.5 1682.5,-448.5"/>
<text text-anchor="middle" x="1713.5" y="-455.5" font-family="Helvetica,sans-Serif" font-size="10.00">Array.hpp</text>
</a>
</g>
</g>
<!-- Node12&#45;&gt;Node13 -->
<g id="edge12" class="edge">
<title>Node12&#45;&gt;Node13</title>
<path fill="none" stroke="midnightblue" d="M995.02,-510.12C1129.96,-500.52 1562.36,-469.75 1682.36,-461.22"/>
<polygon fill="midnightblue" stroke="midnightblue" points="994.45,-506.65 984.72,-510.85 994.95,-513.63 994.45,-506.65"/>
</g>
<!-- Node32 -->
<g id="node32" class="node">
<title>Node32</title>
<g id="a_node32"><a xlink:href="../../da/d1f/ExtendedIOElement_8cpp.html" target="_top" xlink:title=" ">
<polygon fill="white" stroke="black" points="421.5,-168.5 421.5,-187.5 555.5,-187.5 555.5,-168.5 421.5,-168.5"/>
<text text-anchor="middle" x="488.5" y="-175.5" font-family="Helvetica,sans-Serif" font-size="10.00">ExtendedIOElement.cpp</text>
</a>
</g>
</g>
<!-- Node12&#45;&gt;Node32 -->
<g id="edge65" class="edge">
<title>Node12&#45;&gt;Node32</title>
<path fill="none" stroke="midnightblue" d="M927.44,-499.86C910.67,-491.39 888.9,-479.79 870.5,-468 715.05,-368.42 541.94,-224.22 498.7,-187.67"/>
<polygon fill="midnightblue" stroke="midnightblue" points="926.16,-503.13 936.67,-504.46 929.29,-496.87 926.16,-503.13"/>
</g>
<!-- Node33 -->
<g id="node33" class="node">
<title>Node33</title>
<g id="a_node33"><a xlink:href="../../d6/d3c/ExtendedInputOutput_8cpp.html" target="_top" xlink:title=" ">
<polygon fill="white" stroke="black" points="573.5,-168.5 573.5,-187.5 713.5,-187.5 713.5,-168.5 573.5,-168.5"/>
<text text-anchor="middle" x="643.5" y="-175.5" font-family="Helvetica,sans-Serif" font-size="10.00">ExtendedInputOutput.cpp</text>
</a>
</g>
</g>
<!-- Node12&#45;&gt;Node33 -->
<g id="edge66" class="edge">
<title>Node12&#45;&gt;Node33</title>
<path fill="none" stroke="midnightblue" d="M935.23,-498.26C875.16,-451.93 693.19,-308.54 656.5,-244 646.15,-225.79 643.94,-200.62 643.54,-187.59"/>
<polygon fill="midnightblue" stroke="midnightblue" points="933.11,-501.05 943.17,-504.37 937.38,-495.5 933.11,-501.05"/>
</g>
<!-- Node41 -->
<g id="node41" class="node">
<title>Node41</title>
<g id="a_node41"><a xlink:href="../../d1/d40/BitArray_8hpp.html" target="_top" xlink:title=" ">
<polygon fill="white" stroke="black" points="1019.5,-168.5 1019.5,-187.5 1095.5,-187.5 1095.5,-168.5 1019.5,-168.5"/>
<text text-anchor="middle" x="1057.5" y="-175.5" font-family="Helvetica,sans-Serif" font-size="10.00">BitArray.hpp</text>
</a>
</g>
</g>
<!-- Node12&#45;&gt;Node41 -->
<g id="edge60" class="edge">
<title>Node12&#45;&gt;Node41</title>
<path fill="none" stroke="midnightblue" d="M960.1,-494.83C979.2,-432.89 1041.3,-231.52 1054.87,-187.54"/>
<polygon fill="midnightblue" stroke="midnightblue" points="956.75,-493.82 957.15,-504.41 963.44,-495.88 956.75,-493.82"/>
</g>
<!-- Node42 -->
<g id="node42" class="node">
<title>Node42</title>
<g id="a_node42"><a xlink:href="../../d6/df4/Exit_8cpp.html" target="_top" xlink:title=" ">
<polygon fill="white" stroke="black" points="987.5,-448.5 987.5,-467.5 1043.5,-467.5 1043.5,-448.5 987.5,-448.5"/>
<text text-anchor="middle" x="1015.5" y="-455.5" font-family="Helvetica,sans-Serif" font-size="10.00">Exit.cpp</text>
</a>
</g>
</g>
<!-- Node12&#45;&gt;Node42 -->
<g id="edge64" class="edge">
<title>Node12&#45;&gt;Node42</title>
<path fill="none" stroke="midnightblue" d="M971.97,-497.54C982.84,-487.91 996.44,-475.87 1005.52,-467.83"/>
<polygon fill="midnightblue" stroke="midnightblue" points="969.47,-495.07 964.3,-504.32 974.11,-500.32 969.47,-495.07"/>
</g>
<!-- Node12&#45;&gt;Node43 -->
<g id="edge67" class="edge">
<title>Node12&#45;&gt;Node43</title>
<path fill="none" stroke="midnightblue" d="M914.23,-505.4C911.61,-504.92 909.02,-504.45 906.5,-504 828.86,-490.13 738.24,-474.96 685.62,-466.25"/>
<polygon fill="midnightblue" stroke="midnightblue" points="913.83,-508.88 924.3,-507.26 915.1,-502 913.83,-508.88"/>
</g>
<!-- Node44 -->
<g id="node44" class="node">
<title>Node44</title>
<g id="a_node44"><a xlink:href="../../d4/d1b/vector_8cpp.html" target="_top" xlink:title=" ">
<polygon fill="white" stroke="black" points="1062,-448.5 1062,-467.5 1129,-467.5 1129,-448.5 1062,-448.5"/>
<text text-anchor="middle" x="1095.5" y="-455.5" font-family="Helvetica,sans-Serif" font-size="10.00">vector.cpp</text>
</a>
</g>
</g>
<!-- Node12&#45;&gt;Node44 -->
<g id="edge69" class="edge">
<title>Node12&#45;&gt;Node44</title>
<path fill="none" stroke="midnightblue" d="M986.43,-500.77C1012.91,-490.63 1049.89,-476.47 1073.26,-467.52"/>
<polygon fill="midnightblue" stroke="midnightblue" points="984.93,-497.6 976.84,-504.44 987.43,-504.14 984.93,-497.6"/>
</g>
<!-- Node14 -->
<g id="node14" class="node">
<title>Node14</title>
<g id="a_node14"><a xlink:href="../../d7/def/AnalogMultiplex_8hpp.html" target="_top" xlink:title=" ">
<polygon fill="white" stroke="black" points="1687,-112.5 1687,-131.5 1804,-131.5 1804,-112.5 1687,-112.5"/>
<text text-anchor="middle" x="1745.5" y="-119.5" font-family="Helvetica,sans-Serif" font-size="10.00">AnalogMultiplex.hpp</text>
</a>
</g>
</g>
<!-- Node13&#45;&gt;Node14 -->
<g id="edge13" class="edge">
<title>Node13&#45;&gt;Node14</title>
<path fill="none" stroke="midnightblue" d="M1748.88,-444.8C1815.36,-419.62 1956.76,-354.77 2006.5,-244 2044.25,-159.94 1892.02,-134.19 1804.04,-126.37"/>
<polygon fill="midnightblue" stroke="midnightblue" points="1747.41,-441.61 1739.25,-448.37 1749.84,-448.18 1747.41,-441.61"/>
</g>
<!-- Node15 -->
<g id="node15" class="node">
<title>Node15</title>
<g id="a_node15"><a xlink:href="../../d5/db6/ArrayHelpers_8hpp.html" target="_top" xlink:title=" ">
<polygon fill="white" stroke="black" points="1231,-336.5 1231,-355.5 1332,-355.5 1332,-336.5 1231,-336.5"/>
<text text-anchor="middle" x="1281.5" y="-343.5" font-family="Helvetica,sans-Serif" font-size="10.00">ArrayHelpers.hpp</text>
</a>
</g>
</g>
<!-- Node13&#45;&gt;Node15 -->
<g id="edge14" class="edge">
<title>Node13&#45;&gt;Node15</title>
<path fill="none" stroke="midnightblue" d="M1672.62,-446.59C1587.59,-424.94 1393.1,-375.42 1314.94,-355.51"/>
<polygon fill="midnightblue" stroke="midnightblue" points="1671.88,-450.01 1682.43,-449.09 1673.6,-443.23 1671.88,-450.01"/>
</g>
<!-- Node26 -->
<g id="node26" class="node">
<title>Node26</title>
<g id="a_node26"><a xlink:href="../../d4/d35/Hardware-Types_8hpp.html" target="_top" xlink:title=" ">
<polygon fill="white" stroke="black" points="1655.5,-392.5 1655.5,-411.5 1771.5,-411.5 1771.5,-392.5 1655.5,-392.5"/>
<text text-anchor="middle" x="1713.5" y="-399.5" font-family="Helvetica,sans-Serif" font-size="10.00">Hardware&#45;Types.hpp</text>
</a>
</g>
</g>
<!-- Node13&#45;&gt;Node26 -->
<g id="edge30" class="edge">
<title>Node13&#45;&gt;Node26</title>
<path fill="none" stroke="midnightblue" d="M1713.5,-437.8C1713.5,-428.91 1713.5,-418.78 1713.5,-411.75"/>
<polygon fill="midnightblue" stroke="midnightblue" points="1710,-438.08 1713.5,-448.08 1717,-438.08 1710,-438.08"/>
</g>
<!-- Node40 -->
<g id="node40" class="node">
<title>Node40</title>
<g id="a_node40"><a xlink:href="../../dd/ddf/RegisterEncoders_8hpp.html" target="_top" xlink:title=" ">
<polygon fill="white" stroke="black" points="1793.5,-280.5 1793.5,-299.5 1915.5,-299.5 1915.5,-280.5 1793.5,-280.5"/>
<text text-anchor="middle" x="1854.5" y="-287.5" font-family="Helvetica,sans-Serif" font-size="10.00">RegisterEncoders.hpp</text>
</a>
</g>
</g>
<!-- Node13&#45;&gt;Node40 -->
<g id="edge58" class="edge">
<title>Node13&#45;&gt;Node40</title>
<path fill="none" stroke="midnightblue" d="M1739.14,-443.35C1752.51,-435.41 1768.53,-424.49 1780.5,-412 1815.09,-375.91 1841.35,-320.97 1850.75,-299.77"/>
<polygon fill="midnightblue" stroke="midnightblue" points="1737.33,-440.36 1730.39,-448.37 1740.81,-446.43 1737.33,-440.36"/>
</g>
<!-- Node16 -->
<g id="node16" class="node">
<title>Node16</title>
<g id="a_node16"><a xlink:href="../../d2/d05/StaticSizeExtendedIOElement_8hpp.html" target="_top" xlink:title=" ">
<polygon fill="white" stroke="black" points="1113.5,-168.5 1113.5,-187.5 1295.5,-187.5 1295.5,-168.5 1113.5,-168.5"/>
<text text-anchor="middle" x="1204.5" y="-175.5" font-family="Helvetica,sans-Serif" font-size="10.00">StaticSizeExtendedIOElement.hpp</text>
</a>
</g>
</g>
<!-- Node15&#45;&gt;Node16 -->
<g id="edge15" class="edge">
<title>Node15&#45;&gt;Node16</title>
<path fill="none" stroke="midnightblue" d="M1273.08,-326.86C1256.57,-291.25 1220.48,-213.45 1208.47,-187.57"/>
<polygon fill="midnightblue" stroke="midnightblue" points="1269.98,-328.48 1277.36,-336.08 1276.33,-325.53 1269.98,-328.48"/>
</g>
<!-- Node16&#45;&gt;Node14 -->
<g id="edge16" class="edge">
<title>Node16&#45;&gt;Node14</title>
<path fill="none" stroke="midnightblue" d="M1300.2,-167.45C1412.13,-156.28 1593.89,-138.13 1686.79,-128.86"/>
<polygon fill="midnightblue" stroke="midnightblue" points="1299.53,-164 1289.92,-168.47 1300.22,-170.96 1299.53,-164"/>
</g>
<!-- Node17 -->
<g id="node17" class="node">
<title>Node17</title>
<g id="a_node17"><a xlink:href="../../d2/d25/MAX7219_8hpp.html" target="_top" xlink:title=" ">
<polygon fill="white" stroke="black" points="1019.5,-112.5 1019.5,-131.5 1103.5,-131.5 1103.5,-112.5 1019.5,-112.5"/>
<text text-anchor="middle" x="1061.5" y="-119.5" font-family="Helvetica,sans-Serif" font-size="10.00">MAX7219.hpp</text>
</a>
</g>
</g>
<!-- Node16&#45;&gt;Node17 -->
<g id="edge17" class="edge">
<title>Node16&#45;&gt;Node17</title>
<path fill="none" stroke="midnightblue" d="M1172.47,-164.91C1145.59,-154.75 1107.86,-140.51 1084.05,-131.52"/>
<polygon fill="midnightblue" stroke="midnightblue" points="1171.25,-168.19 1181.84,-168.44 1173.72,-161.64 1171.25,-168.19"/>
</g>
<!-- Node18 -->
<g id="node18" class="node">
<title>Node18</title>
<g id="a_node18"><a xlink:href="../../d7/dca/MCP23017_8hpp.html" target="_top" xlink:title=" ">
<polygon fill="white" stroke="black" points="1121,-112.5 1121,-131.5 1210,-131.5 1210,-112.5 1121,-112.5"/>
<text text-anchor="middle" x="1165.5" y="-119.5" font-family="Helvetica,sans-Serif" font-size="10.00">MCP23017.hpp</text>
</a>
</g>
</g>
<!-- Node16&#45;&gt;Node18 -->
<g id="edge18" class="edge">
<title>Node16&#45;&gt;Node18</title>
<path fill="none" stroke="midnightblue" d="M1192.12,-159.86C1185.36,-150.5 1177.29,-139.33 1171.82,-131.75"/>
<polygon fill="midnightblue" stroke="midnightblue" points="1189.37,-162.03 1198.06,-168.08 1195.04,-157.93 1189.37,-162.03"/>
</g>
<!-- Node20 -->
<g id="node20" class="node">
<title>Node20</title>
<g id="a_node20"><a xlink:href="../../d8/d93/ShiftRegisterOutBase_8hpp.html" target="_top" xlink:title=" ">
<polygon fill="white" stroke="black" points="1329,-112.5 1329,-131.5 1470,-131.5 1470,-112.5 1329,-112.5"/>
<text text-anchor="middle" x="1399.5" y="-119.5" font-family="Helvetica,sans-Serif" font-size="10.00">ShiftRegisterOutBase.hpp</text>
</a>
</g>
</g>
<!-- Node16&#45;&gt;Node20 -->
<g id="edge21" class="edge">
<title>Node16&#45;&gt;Node20</title>
<path fill="none" stroke="midnightblue" d="M1245.31,-165.7C1282.11,-155.51 1335.43,-140.74 1368.75,-131.52"/>
<polygon fill="midnightblue" stroke="midnightblue" points="1244.1,-162.4 1235.4,-168.44 1245.97,-169.15 1244.1,-162.4"/>
</g>
<!-- Node19 -->
<g id="node19" class="node">
<title>Node19</title>
<g id="a_node19"><a xlink:href="../../d2/d94/MCP23017_8ipp.html" target="_top" xlink:title=" ">
<polygon fill="white" stroke="black" points="1050.5,-56.5 1050.5,-75.5 1136.5,-75.5 1136.5,-56.5 1050.5,-56.5"/>
<text text-anchor="middle" x="1093.5" y="-63.5" font-family="Helvetica,sans-Serif" font-size="10.00">MCP23017.ipp</text>
</a>
</g>
</g>
<!-- Node18&#45;&gt;Node19 -->
<g id="edge19" class="edge">
<title>Node18&#45;&gt;Node19</title>
<path fill="none" stroke="midnightblue" d="M1140.34,-106.66C1126.09,-96.86 1109.49,-84.18 1100.13,-75.83"/>
<polygon fill="midnightblue" stroke="midnightblue" points="1138.56,-109.68 1148.82,-112.32 1142.45,-103.86 1138.56,-109.68"/>
</g>
<!-- Node19&#45;&gt;Node18 -->
<g id="edge20" class="edge">
<title>Node19&#45;&gt;Node18</title>
<path fill="none" stroke="midnightblue" d="M1118.68,-81.35C1133.01,-91.21 1149.73,-103.98 1159.05,-112.32"/>
<polygon fill="midnightblue" stroke="midnightblue" points="1120.41,-78.3 1110.15,-75.65 1116.52,-84.12 1120.41,-78.3"/>
</g>
<!-- Node21 -->
<g id="node21" class="node">
<title>Node21</title>
<g id="a_node21"><a xlink:href="../../d7/d88/SPIShiftRegisterOut_8hpp.html" target="_top" xlink:title=" ">
<polygon fill="white" stroke="black" points="1328.5,-56.5 1328.5,-75.5 1460.5,-75.5 1460.5,-56.5 1328.5,-56.5"/>
<text text-anchor="middle" x="1394.5" y="-63.5" font-family="Helvetica,sans-Serif" font-size="10.00">SPIShiftRegisterOut.hpp</text>
</a>
</g>
</g>
<!-- Node20&#45;&gt;Node21 -->
<g id="edge22" class="edge">
<title>Node20&#45;&gt;Node21</title>
<path fill="none" stroke="midnightblue" d="M1397.75,-102.1C1396.92,-93.14 1395.97,-82.86 1395.31,-75.75"/>
<polygon fill="midnightblue" stroke="midnightblue" points="1394.27,-102.45 1398.67,-112.08 1401.24,-101.8 1394.27,-102.45"/>
</g>
<!-- Node23 -->
<g id="node23" class="node">
<title>Node23</title>
<g id="a_node23"><a xlink:href="../../d0/db4/ShiftRegisterOut_8hpp.html" target="_top" xlink:title=" ">
<polygon fill="white" stroke="black" points="1155,-56.5 1155,-75.5 1272,-75.5 1272,-56.5 1155,-56.5"/>
<text text-anchor="middle" x="1213.5" y="-63.5" font-family="Helvetica,sans-Serif" font-size="10.00">ShiftRegisterOut.hpp</text>
</a>
</g>
</g>
<!-- Node20&#45;&gt;Node23 -->
<g id="edge25" class="edge">
<title>Node20&#45;&gt;Node23</title>
<path fill="none" stroke="midnightblue" d="M1360.12,-109.57C1325.03,-99.38 1274.48,-84.7 1242.83,-75.52"/>
<polygon fill="midnightblue" stroke="midnightblue" points="1359.45,-113.02 1370.03,-112.44 1361.4,-106.29 1359.45,-113.02"/>
</g>
<!-- Node25 -->
<g id="node25" class="node">
<title>Node25</title>
<g id="a_node25"><a xlink:href="../../d5/d47/ShiftRegisterOutBase_8ipp.html" target="_top" xlink:title=" ">
<polygon fill="white" stroke="black" points="1478.5,-56.5 1478.5,-75.5 1616.5,-75.5 1616.5,-56.5 1478.5,-56.5"/>
<text text-anchor="middle" x="1547.5" y="-63.5" font-family="Helvetica,sans-Serif" font-size="10.00">ShiftRegisterOutBase.ipp</text>
</a>
</g>
</g>
<!-- Node20&#45;&gt;Node25 -->
<g id="edge28" class="edge">
<title>Node20&#45;&gt;Node25</title>
<path fill="none" stroke="midnightblue" d="M1427.26,-108.77C1453.54,-98.63 1492.58,-84.47 1519.08,-75.52"/>
<polygon fill="midnightblue" stroke="midnightblue" points="1425.9,-105.54 1417.86,-112.44 1428.45,-112.06 1425.9,-105.54"/>
</g>
<!-- Node22 -->
<g id="node22" class="node">
<title>Node22</title>
<g id="a_node22"><a xlink:href="../../da/d45/SPIShiftRegisterOut_8ipp.html" target="_top" xlink:title=" ">
<polygon fill="white" stroke="black" points="1330,-0.5 1330,-19.5 1459,-19.5 1459,-0.5 1330,-0.5"/>
<text text-anchor="middle" x="1394.5" y="-7.5" font-family="Helvetica,sans-Serif" font-size="10.00">SPIShiftRegisterOut.ipp</text>
</a>
</g>
</g>
<!-- Node21&#45;&gt;Node22 -->
<g id="edge23" class="edge">
<title>Node21&#45;&gt;Node22</title>
<path fill="none" stroke="midnightblue" d="M1388.03,-46.1C1387.4,-37.14 1387.84,-26.86 1389.37,-19.75"/>
<polygon fill="midnightblue" stroke="midnightblue" points="1384.57,-46.62 1389.33,-56.08 1391.51,-45.71 1384.57,-46.62"/>
</g>
<!-- Node22&#45;&gt;Node21 -->
<g id="edge24" class="edge">
<title>Node22&#45;&gt;Node21</title>
<path fill="none" stroke="midnightblue" d="M1400.96,-29.69C1401.61,-38.64 1401.18,-48.93 1399.67,-56.08"/>
<polygon fill="midnightblue" stroke="midnightblue" points="1404.42,-29.2 1399.63,-19.75 1397.48,-30.13 1404.42,-29.2"/>
</g>
<!-- Node24 -->
<g id="node24" class="node">
<title>Node24</title>
<g id="a_node24"><a xlink:href="../../de/d95/ShiftRegisterOut_8ipp.html" target="_top" xlink:title=" ">
<polygon fill="white" stroke="black" points="1156.5,-0.5 1156.5,-19.5 1270.5,-19.5 1270.5,-0.5 1156.5,-0.5"/>
<text text-anchor="middle" x="1213.5" y="-7.5" font-family="Helvetica,sans-Serif" font-size="10.00">ShiftRegisterOut.ipp</text>
</a>
</g>
</g>
<!-- Node23&#45;&gt;Node24 -->
<g id="edge26" class="edge">
<title>Node23&#45;&gt;Node24</title>
<path fill="none" stroke="midnightblue" d="M1207.03,-46.1C1206.4,-37.14 1206.84,-26.86 1208.37,-19.75"/>
<polygon fill="midnightblue" stroke="midnightblue" points="1203.57,-46.62 1208.33,-56.08 1210.51,-45.71 1203.57,-46.62"/>
</g>
<!-- Node24&#45;&gt;Node23 -->
<g id="edge27" class="edge">
<title>Node24&#45;&gt;Node23</title>
<path fill="none" stroke="midnightblue" d="M1219.96,-29.69C1220.61,-38.64 1220.18,-48.93 1218.67,-56.08"/>
<polygon fill="midnightblue" stroke="midnightblue" points="1223.42,-29.2 1218.63,-19.75 1216.48,-30.13 1223.42,-29.2"/>
</g>
<!-- Node25&#45;&gt;Node20 -->
<g id="edge29" class="edge">
<title>Node25&#45;&gt;Node20</title>
<path fill="none" stroke="midnightblue" d="M1519.86,-79.18C1493.62,-89.31 1454.58,-103.48 1428.04,-112.44"/>
<polygon fill="midnightblue" stroke="midnightblue" points="1521.2,-82.42 1529.24,-75.52 1518.65,-75.9 1521.2,-82.42"/>
</g>
<!-- Node27 -->
<g id="node27" class="node">
<title>Node27</title>
<g id="a_node27"><a xlink:href="../../d2/d3c/Arduino-Hardware-Types_8hpp.html" target="_top" xlink:title=" ">
<polygon fill="white" stroke="black" points="1503,-336.5 1503,-355.5 1660,-355.5 1660,-336.5 1503,-336.5"/>
<text text-anchor="middle" x="1581.5" y="-343.5" font-family="Helvetica,sans-Serif" font-size="10.00">Arduino&#45;Hardware&#45;Types.hpp</text>
</a>
</g>
</g>
<!-- Node26&#45;&gt;Node27 -->
<g id="edge31" class="edge">
<title>Node26&#45;&gt;Node27</title>
<path fill="none" stroke="midnightblue" d="M1683.28,-388.64C1658.51,-378.5 1624.1,-364.43 1602.32,-355.52"/>
<polygon fill="midnightblue" stroke="midnightblue" points="1682,-391.9 1692.58,-392.44 1684.65,-385.42 1682,-391.9"/>
</g>
<!-- Node30 -->
<g id="node30" class="node">
<title>Node30</title>
<g id="a_node30"><a xlink:href="../../d9/d4b/ButtonMatrix_8hpp.html" target="_top" xlink:title=" ">
<polygon fill="white" stroke="black" points="1466,-168.5 1466,-187.5 1567,-187.5 1567,-168.5 1466,-168.5"/>
<text text-anchor="middle" x="1516.5" y="-175.5" font-family="Helvetica,sans-Serif" font-size="10.00">ButtonMatrix.hpp</text>
</a>
</g>
</g>
<!-- Node26&#45;&gt;Node30 -->
<g id="edge55" class="edge">
<title>Node26&#45;&gt;Node30</title>
<path fill="none" stroke="midnightblue" d="M1720.73,-383C1731.6,-357.67 1754.14,-311.12 1784.5,-280 1809.52,-254.35 1866.08,-250.98 1842.5,-224 1803.25,-179.08 1635.55,-196.42 1576.5,-188 1573.48,-187.57 1570.37,-187.12 1567.23,-186.66"/>
<polygon fill="midnightblue" stroke="midnightblue" points="1717.41,-381.88 1716.8,-392.45 1723.88,-384.56 1717.41,-381.88"/>
</g>
<!-- Node31 -->
<g id="node31" class="node">
<title>Node31</title>
<g id="a_node31"><a xlink:href="../../d4/d57/ExtendedIOElement_8hpp.html" target="_top" xlink:title=" ">
<polygon fill="white" stroke="black" points="665.5,-224.5 665.5,-243.5 799.5,-243.5 799.5,-224.5 665.5,-224.5"/>
<text text-anchor="middle" x="732.5" y="-231.5" font-family="Helvetica,sans-Serif" font-size="10.00">ExtendedIOElement.hpp</text>
</a>
</g>
</g>
<!-- Node26&#45;&gt;Node31 -->
<g id="edge56" class="edge">
<title>Node26&#45;&gt;Node31</title>
<path fill="none" stroke="midnightblue" d="M1645.1,-398.02C1549.68,-393.12 1371.45,-381.26 1221.5,-356 1043.63,-326.04 834.96,-265.81 760.57,-243.54"/>
<polygon fill="midnightblue" stroke="midnightblue" points="1645.03,-401.52 1655.19,-398.53 1645.38,-394.53 1645.03,-401.52"/>
</g>
<!-- Node26&#45;&gt;Node34 -->
<g id="edge57" class="edge">
<title>Node26&#45;&gt;Node34</title>
<path fill="none" stroke="midnightblue" d="M1762.83,-389.84C1810.84,-376.47 1882.52,-349.41 1924.5,-300 1938.51,-283.52 1942.2,-257.15 1943.16,-243.62"/>
<polygon fill="midnightblue" stroke="midnightblue" points="1761.71,-386.52 1752.96,-392.49 1763.53,-393.28 1761.71,-386.52"/>
</g>
<!-- Node28 -->
<g id="node28" class="node">
<title>Node28</title>
<g id="a_node28"><a xlink:href="../../dd/ddf/ExtendedInputOutput_8hpp.html" target="_top" xlink:title=" ">
<polygon fill="white" stroke="black" points="1329,-280.5 1329,-299.5 1470,-299.5 1470,-280.5 1329,-280.5"/>
<text text-anchor="middle" x="1399.5" y="-287.5" font-family="Helvetica,sans-Serif" font-size="10.00">ExtendedInputOutput.hpp</text>
</a>
</g>
</g>
<!-- Node27&#45;&gt;Node28 -->
<g id="edge32" class="edge">
<title>Node27&#45;&gt;Node28</title>
<path fill="none" stroke="midnightblue" d="M1542.97,-333.57C1508.64,-323.38 1459.17,-308.7 1428.2,-299.52"/>
<polygon fill="midnightblue" stroke="midnightblue" points="1542.08,-336.95 1552.66,-336.44 1544.07,-330.24 1542.08,-336.95"/>
</g>
<!-- Node28&#45;&gt;Node4 -->
<g id="edge34" class="edge">
<title>Node28&#45;&gt;Node4</title>
<path fill="none" stroke="midnightblue" d="M1318.57,-284.76C1108,-273.73 549.27,-244.47 403.62,-236.84"/>
<polygon fill="midnightblue" stroke="midnightblue" points="1318.47,-288.26 1328.64,-285.29 1318.83,-281.27 1318.47,-288.26"/>
</g>
<!-- Node28&#45;&gt;Node14 -->
<g id="edge33" class="edge">
<title>Node28&#45;&gt;Node14</title>
<path fill="none" stroke="midnightblue" d="M1480.25,-284.34C1531.37,-279.07 1597.89,-267.86 1652.5,-244 1671.4,-235.74 1714.79,-204.98 1726.5,-188 1738.65,-170.38 1743.13,-144.96 1744.7,-131.74"/>
<polygon fill="midnightblue" stroke="midnightblue" points="1479.86,-280.86 1470.24,-285.32 1480.54,-287.83 1479.86,-280.86"/>
</g>
<!-- Node28&#45;&gt;Node18 -->
<g id="edge49" class="edge">
<title>Node28&#45;&gt;Node18</title>
<path fill="none" stroke="midnightblue" d="M1379.23,-274.16C1368.95,-266 1356.72,-255.26 1347.5,-244 1322.91,-213.97 1334.57,-192.54 1304.5,-168 1277.58,-146.03 1239.66,-134.69 1210.23,-128.89"/>
<polygon fill="midnightblue" stroke="midnightblue" points="1377.24,-277.04 1387.3,-280.36 1381.5,-271.49 1377.24,-277.04"/>
</g>
<!-- Node28&#45;&gt;Node20 -->
<g id="edge53" class="edge">
<title>Node28&#45;&gt;Node20</title>
<path fill="none" stroke="midnightblue" d="M1399.5,-269.93C1399.5,-233.92 1399.5,-157.23 1399.5,-131.57"/>
<polygon fill="midnightblue" stroke="midnightblue" points="1396,-270.08 1399.5,-280.08 1403,-270.08 1396,-270.08"/>
</g>
<!-- Node28&#45;&gt;Node22 -->
<g id="edge51" class="edge">
<title>Node28&#45;&gt;Node22</title>
<path fill="none" stroke="midnightblue" d="M1387.54,-271.79C1368.98,-243.94 1333.98,-186.59 1320.5,-132 1312.4,-99.2 1302.86,-85.4 1319.5,-56 1329.67,-38.03 1350.21,-26.45 1367.22,-19.55"/>
<polygon fill="midnightblue" stroke="midnightblue" points="1384.85,-274.05 1393.36,-280.36 1390.64,-270.12 1384.85,-274.05"/>
</g>
<!-- Node28&#45;&gt;Node24 -->
<g id="edge52" class="edge">
<title>Node28&#45;&gt;Node24</title>
<path fill="none" stroke="midnightblue" d="M1318.82,-279.61C1216.24,-265.81 1047.89,-236.34 1010.5,-188 973.63,-140.33 993.91,-92.97 1041.5,-56 1074.28,-30.53 1120.1,-19.4 1156.2,-14.57"/>
<polygon fill="midnightblue" stroke="midnightblue" points="1318.47,-283.09 1328.85,-280.93 1319.39,-276.15 1318.47,-283.09"/>
</g>
<!-- Node28&#45;&gt;Node25 -->
<g id="edge54" class="edge">
<title>Node28&#45;&gt;Node25</title>
<path fill="none" stroke="midnightblue" d="M1406.3,-270.92C1415.89,-246.5 1434.78,-202.12 1457.5,-168 1482.49,-130.47 1520.62,-92.42 1538.12,-75.74"/>
<polygon fill="midnightblue" stroke="midnightblue" points="1403,-269.76 1402.67,-280.35 1409.53,-272.27 1403,-269.76"/>
</g>
<!-- Node29 -->
<g id="node29" class="node">
<title>Node29</title>
<g id="a_node29"><a xlink:href="../../d5/d41/ButtonMatrix_8ipp.html" target="_top" xlink:title=" ">
<polygon fill="white" stroke="black" points="1465.5,-224.5 1465.5,-243.5 1563.5,-243.5 1563.5,-224.5 1465.5,-224.5"/>
<text text-anchor="middle" x="1514.5" y="-231.5" font-family="Helvetica,sans-Serif" font-size="10.00">ButtonMatrix.ipp</text>
</a>
</g>
</g>
<!-- Node28&#45;&gt;Node29 -->
<g id="edge35" class="edge">
<title>Node28&#45;&gt;Node29</title>
<path fill="none" stroke="midnightblue" d="M1426.98,-276.1C1448.47,-266.01 1477.72,-252.27 1496.36,-243.52"/>
<polygon fill="midnightblue" stroke="midnightblue" points="1425.29,-273.02 1417.72,-280.44 1428.26,-279.36 1425.29,-273.02"/>
</g>
<!-- Node28&#45;&gt;Node31 -->
<g id="edge38" class="edge">
<title>Node28&#45;&gt;Node31</title>
<path fill="none" stroke="midnightblue" d="M1318.32,-283.64C1205.13,-275.97 993.53,-260.91 813.5,-244 808.99,-243.58 804.35,-243.12 799.67,-242.64"/>
<polygon fill="midnightblue" stroke="midnightblue" points="1318.41,-287.16 1328.62,-284.34 1318.88,-280.17 1318.41,-287.16"/>
</g>
<!-- Node28&#45;&gt;Node33 -->
<g id="edge42" class="edge">
<title>Node28&#45;&gt;Node33</title>
<path fill="none" stroke="midnightblue" d="M1318.98,-286.41C1187.54,-281.53 932.87,-269.1 846.5,-244 828.17,-238.67 826.26,-231 808.5,-224 767.34,-207.78 718.2,-195.2 684.31,-187.51"/>
<polygon fill="midnightblue" stroke="midnightblue" points="1318.87,-289.91 1328.99,-286.78 1319.13,-282.92 1318.87,-289.91"/>
</g>
<!-- Node28&#45;&gt;Node34 -->
<g id="edge43" class="edge">
<title>Node28&#45;&gt;Node34</title>
<path fill="none" stroke="midnightblue" d="M1480.33,-280.98C1592.8,-269.81 1793.47,-249.89 1889.45,-240.37"/>
<polygon fill="midnightblue" stroke="midnightblue" points="1479.67,-277.53 1470.06,-282 1480.36,-284.49 1479.67,-277.53"/>
</g>
<!-- Node35 -->
<g id="node35" class="node">
<title>Node35</title>
<g id="a_node35"><a xlink:href="../../d9/d4f/LEDs_8hpp.html" target="_top" xlink:title=" ">
<polygon fill="white" stroke="black" points="1581.5,-224.5 1581.5,-243.5 1643.5,-243.5 1643.5,-224.5 1581.5,-224.5"/>
<text text-anchor="middle" x="1612.5" y="-231.5" font-family="Helvetica,sans-Serif" font-size="10.00">LEDs.hpp</text>
</a>
</g>
</g>
<!-- Node28&#45;&gt;Node35 -->
<g id="edge44" class="edge">
<title>Node28&#45;&gt;Node35</title>
<path fill="none" stroke="midnightblue" d="M1443,-277.97C1484.13,-267.54 1544.83,-252.16 1581.33,-242.9"/>
<polygon fill="midnightblue" stroke="midnightblue" points="1442.08,-274.59 1433.25,-280.44 1443.8,-281.38 1442.08,-274.59"/>
</g>
<!-- Node37 -->
<g id="node37" class="node">
<title>Node37</title>
<g id="a_node37"><a xlink:href="../../d7/d13/MAX7219__Base_8hpp.html" target="_top" xlink:title=" ">
<polygon fill="white" stroke="black" points="856,-224.5 856,-243.5 969,-243.5 969,-224.5 856,-224.5"/>
<text text-anchor="middle" x="912.5" y="-231.5" font-family="Helvetica,sans-Serif" font-size="10.00">MAX7219_Base.hpp</text>
</a>
</g>
</g>
<!-- Node28&#45;&gt;Node37 -->
<g id="edge46" class="edge">
<title>Node28&#45;&gt;Node37</title>
<path fill="none" stroke="midnightblue" d="M1318.83,-280.72C1234.98,-272 1099.97,-257.68 983.5,-244 978.81,-243.45 973.95,-242.86 969.07,-242.27"/>
<polygon fill="midnightblue" stroke="midnightblue" points="1318.49,-284.2 1328.79,-281.75 1319.21,-277.24 1318.49,-284.2"/>
</g>
<!-- Node39 -->
<g id="node39" class="node">
<title>Node39</title>
<g id="a_node39"><a xlink:href="../../d8/dd2/MCP23017Encoders_8hpp.html" target="_top" xlink:title=" ">
<polygon fill="white" stroke="black" points="1699.5,-224.5 1699.5,-243.5 1833.5,-243.5 1833.5,-224.5 1699.5,-224.5"/>
<text text-anchor="middle" x="1766.5" y="-231.5" font-family="Helvetica,sans-Serif" font-size="10.00">MCP23017Encoders.hpp</text>
</a>
</g>
</g>
<!-- Node28&#45;&gt;Node39 -->
<g id="edge50" class="edge">
<title>Node28&#45;&gt;Node39</title>
<path fill="none" stroke="midnightblue" d="M1467.6,-278.98C1536.93,-268.78 1643.23,-253.14 1708.62,-243.52"/>
<polygon fill="midnightblue" stroke="midnightblue" points="1467.04,-275.53 1457.65,-280.44 1468.06,-282.45 1467.04,-275.53"/>
</g>
<!-- Node29&#45;&gt;Node30 -->
<g id="edge36" class="edge">
<title>Node29&#45;&gt;Node30</title>
<path fill="none" stroke="midnightblue" d="M1508.73,-214.1C1508.43,-205.14 1509.26,-194.86 1511.04,-187.75"/>
<polygon fill="midnightblue" stroke="midnightblue" points="1505.25,-214.45 1509.66,-224.08 1512.21,-213.8 1505.25,-214.45"/>
</g>
<!-- Node30&#45;&gt;Node29 -->
<g id="edge37" class="edge">
<title>Node30&#45;&gt;Node29</title>
<path fill="none" stroke="midnightblue" d="M1522.28,-197.99C1522.56,-206.86 1521.75,-217.01 1520,-224.08"/>
<polygon fill="midnightblue" stroke="midnightblue" points="1525.73,-197.38 1521.31,-187.75 1518.76,-198.04 1525.73,-197.38"/>
</g>
<!-- Node31&#45;&gt;Node16 -->
<g id="edge41" class="edge">
<title>Node31&#45;&gt;Node16</title>
<path fill="none" stroke="midnightblue" d="M809.6,-224.18C898.12,-214.05 1042.33,-197.55 1129.82,-187.54"/>
<polygon fill="midnightblue" stroke="midnightblue" points="809.16,-220.71 799.62,-225.32 809.96,-227.66 809.16,-220.71"/>
</g>
<!-- Node31&#45;&gt;Node32 -->
<g id="edge39" class="edge">
<title>Node31&#45;&gt;Node32</title>
<path fill="none" stroke="midnightblue" d="M684.07,-222.28C637.96,-212.08 569.47,-196.92 526.98,-187.52"/>
<polygon fill="midnightblue" stroke="midnightblue" points="683.32,-225.7 693.84,-224.44 684.83,-218.87 683.32,-225.7"/>
</g>
<!-- Node31&#45;&gt;Node33 -->
<g id="edge40" class="edge">
<title>Node31&#45;&gt;Node33</title>
<path fill="none" stroke="midnightblue" d="M709.26,-218.9C692.94,-209 671.63,-196.07 657.76,-187.65"/>
<polygon fill="midnightblue" stroke="midnightblue" points="707.84,-222.13 718.2,-224.32 711.47,-216.14 707.84,-222.13"/>
</g>
<!-- Node36 -->
<g id="node36" class="node">
<title>Node36</title>
<g id="a_node36"><a xlink:href="../../d6/d3a/DotBarDisplayLEDs_8hpp.html" target="_top" xlink:title=" ">
<polygon fill="white" stroke="black" points="1585.5,-168.5 1585.5,-187.5 1717.5,-187.5 1717.5,-168.5 1585.5,-168.5"/>
<text text-anchor="middle" x="1651.5" y="-175.5" font-family="Helvetica,sans-Serif" font-size="10.00">DotBarDisplayLEDs.hpp</text>
</a>
</g>
</g>
<!-- Node35&#45;&gt;Node36 -->
<g id="edge45" class="edge">
<title>Node35&#45;&gt;Node36</title>
<path fill="none" stroke="midnightblue" d="M1624.88,-215.86C1631.64,-206.5 1639.71,-195.33 1645.18,-187.75"/>
<polygon fill="midnightblue" stroke="midnightblue" points="1621.96,-213.93 1618.94,-224.08 1627.63,-218.03 1621.96,-213.93"/>
</g>
<!-- Node37&#45;&gt;Node17 -->
<g id="edge47" class="edge">
<title>Node37&#45;&gt;Node17</title>
<path fill="none" stroke="midnightblue" d="M850.41,-222.37C813.45,-214.63 771.64,-202.91 760.5,-188 755.18,-180.88 754.7,-174.73 760.5,-168 793.39,-129.82 944.38,-123.55 1019.22,-122.84"/>
<polygon fill="midnightblue" stroke="midnightblue" points="850.18,-225.89 860.67,-224.44 851.57,-219.03 850.18,-225.89"/>
</g>
<!-- Node38 -->
<g id="node38" class="node">
<title>Node38</title>
<g id="a_node38"><a xlink:href="../../d5/d0c/MAX7219SevenSegmentDisplay_8hpp.html" target="_top" xlink:title=" ">
<polygon fill="white" stroke="black" points="770,-168.5 770,-187.5 963,-187.5 963,-168.5 770,-168.5"/>
<text text-anchor="middle" x="866.5" y="-175.5" font-family="Helvetica,sans-Serif" font-size="10.00">MAX7219SevenSegmentDisplay.hpp</text>
</a>
</g>
</g>
<!-- Node37&#45;&gt;Node38 -->
<g id="edge48" class="edge">
<title>Node37&#45;&gt;Node38</title>
<path fill="none" stroke="midnightblue" d="M898.39,-216.43C890.32,-206.97 880.54,-195.48 873.95,-187.75"/>
<polygon fill="midnightblue" stroke="midnightblue" points="895.75,-218.74 904.9,-224.08 901.08,-214.2 895.75,-218.74"/>
</g>
<!-- Node40&#45;&gt;Node39 -->
<g id="edge59" class="edge">
<title>Node40&#45;&gt;Node39</title>
<path fill="none" stroke="midnightblue" d="M1831.52,-274.9C1815.39,-265 1794.32,-252.07 1780.6,-243.65"/>
<polygon fill="midnightblue" stroke="midnightblue" points="1830.01,-278.08 1840.36,-280.32 1833.67,-272.11 1830.01,-278.08"/>
</g>
<!-- Node41&#45;&gt;Node17 -->
<g id="edge61" class="edge">
<title>Node41&#45;&gt;Node17</title>
<path fill="none" stroke="midnightblue" d="M1058.9,-158.1C1059.56,-149.14 1060.33,-138.86 1060.85,-131.75"/>
<polygon fill="midnightblue" stroke="midnightblue" points="1055.41,-157.85 1058.16,-168.08 1062.39,-158.37 1055.41,-157.85"/>
</g>
<!-- Node41&#45;&gt;Node18 -->
<g id="edge62" class="edge">
<title>Node41&#45;&gt;Node18</title>
<path fill="none" stroke="midnightblue" d="M1084.05,-163.73C1104.05,-153.73 1130.89,-140.31 1148.19,-131.65"/>
<polygon fill="midnightblue" stroke="midnightblue" points="1082.23,-160.72 1074.85,-168.32 1085.36,-166.98 1082.23,-160.72"/>
</g>
<!-- Node41&#45;&gt;Node20 -->
<g id="edge63" class="edge">
<title>Node41&#45;&gt;Node20</title>
<path fill="none" stroke="midnightblue" d="M1105.72,-167.84C1192.48,-153.03 1281.74,-139.79 1339.22,-131.51"/>
<polygon fill="midnightblue" stroke="midnightblue" points="1104.96,-164.42 1095.7,-169.56 1106.15,-171.32 1104.96,-164.42"/>
</g>
<!-- Node43&#45;&gt;Node31 -->
<g id="edge68" class="edge">
<title>Node43&#45;&gt;Node31</title>
<path fill="none" stroke="midnightblue" d="M648.93,-438.87C667.48,-393.63 715.29,-276.99 728.86,-243.88"/>
<polygon fill="midnightblue" stroke="midnightblue" points="645.62,-437.72 645.07,-448.3 652.1,-440.37 645.62,-437.72"/>
</g>
<!-- Node45&#45;&gt;Node43 -->
<g id="edge71" class="edge">
<title>Node45&#45;&gt;Node43</title>
<path fill="none" stroke="midnightblue" d="M724.74,-499.86C704.34,-489.85 676.83,-476.35 659.13,-467.65"/>
<polygon fill="midnightblue" stroke="midnightblue" points="723.31,-503.06 733.83,-504.32 726.39,-496.78 723.31,-503.06"/>
</g>
<!-- Node46&#45;&gt;Node25 -->
<g id="edge75" class="edge">
<title>Node46&#45;&gt;Node25</title>
<path fill="none" stroke="midnightblue" d="M2075.11,-550.34C2070.37,-528.56 2063.5,-491.37 2063.5,-459 2063.5,-459 2063.5,-459 2063.5,-177 2063.5,-86.66 1757.16,-70.23 1616.55,-67.45"/>
<polygon fill="midnightblue" stroke="midnightblue" points="2071.72,-551.24 2077.34,-560.22 2078.55,-549.7 2071.72,-551.24"/>
</g>
<!-- Node47 -->
<g id="node47" class="node">
<title>Node47</title>
<g id="a_node47"><a xlink:href="../../db/d0b/ShiftRegisterOutRGB_8cpp.html" target="_top" xlink:title=" ">
<polygon fill="white" stroke="black" points="2092,-504.5 2092,-523.5 2229,-523.5 2229,-504.5 2092,-504.5"/>
<text text-anchor="middle" x="2160.5" y="-511.5" font-family="Helvetica,sans-Serif" font-size="10.00">ShiftRegisterOutRGB.cpp</text>
</a>
</g>
</g>
<!-- Node46&#45;&gt;Node47 -->
<g id="edge76" class="edge">
<title>Node46&#45;&gt;Node47</title>
<path fill="none" stroke="midnightblue" d="M2101.07,-554.62C2115.86,-544.76 2135.01,-531.99 2147.52,-523.65"/>
<polygon fill="midnightblue" stroke="midnightblue" points="2098.89,-551.86 2092.51,-560.32 2102.78,-557.69 2098.89,-551.86"/>
</g>
</g>
</svg>
