<?xml version="1.0" encoding="UTF-8" standalone="no"?>
<!DOCTYPE svg PUBLIC "-//W3C//DTD SVG 1.1//EN"
 "http://www.w3.org/Graphics/SVG/1.1/DTD/svg11.dtd">
<!-- Generated by graphviz version 2.43.0 (0)
 -->
<!-- Title: Debug.hpp Pages: 1 -->
<svg width="2003pt" height="588pt"
 viewBox="0.00 0.00 2002.97 588.00" xmlns="http://www.w3.org/2000/svg" xmlns:xlink="http://www.w3.org/1999/xlink">
<g id="graph0" class="graph" transform="scale(1 1) rotate(0) translate(4 584)">
<title>Debug.hpp</title>
<polygon fill="white" stroke="transparent" points="-4,4 -4,-584 1998.97,-584 1998.97,4 -4,4"/>
<!-- Node1 -->
<g id="node1" class="node">
<title>Node1</title>
<g id="a_node1"><a xlink:title=" ">
<polygon fill="#bfbfbf" stroke="black" points="326.47,-560.5 326.47,-579.5 395.47,-579.5 395.47,-560.5 326.47,-560.5"/>
<text text-anchor="middle" x="360.97" y="-567.5" font-family="Helvetica,sans-Serif" font-size="10.00">Debug.hpp</text>
</a>
</g>
</g>
<!-- Node2 -->
<g id="node2" class="node">
<title>Node2</title>
<g id="a_node2"><a xlink:href="../../df/d66/Debug_8cpp.html" target="_top" xlink:title=" ">
<polygon fill="white" stroke="black" points="215.97,-504.5 215.97,-523.5 283.97,-523.5 283.97,-504.5 215.97,-504.5"/>
<text text-anchor="middle" x="249.97" y="-511.5" font-family="Helvetica,sans-Serif" font-size="10.00">Debug.cpp</text>
</a>
</g>
</g>
<!-- Node1&#45;&gt;Node2 -->
<g id="edge1" class="edge">
<title>Node1&#45;&gt;Node2</title>
<path fill="none" stroke="midnightblue" d="M333.96,-555.86C313.38,-545.85 285.62,-532.35 267.76,-523.65"/>
<polygon fill="midnightblue" stroke="midnightblue" points="332.61,-559.1 343.13,-560.32 335.67,-552.8 332.61,-559.1"/>
</g>
<!-- Node3 -->
<g id="node3" class="node">
<title>Node3</title>
<g id="a_node3"><a xlink:href="../../d1/d93/Error_8hpp.html" target="_top" xlink:title=" ">
<polygon fill="white" stroke="black" points="589.97,-504.5 589.97,-523.5 649.97,-523.5 649.97,-504.5 589.97,-504.5"/>
<text text-anchor="middle" x="619.97" y="-511.5" font-family="Helvetica,sans-Serif" font-size="10.00">Error.hpp</text>
</a>
</g>
</g>
<!-- Node1&#45;&gt;Node3 -->
<g id="edge2" class="edge">
<title>Node1&#45;&gt;Node3</title>
<path fill="none" stroke="midnightblue" d="M405.71,-559.67C458.44,-548.68 544.61,-530.71 589.93,-521.26"/>
<polygon fill="midnightblue" stroke="midnightblue" points="404.7,-556.31 395.63,-561.77 406.13,-563.16 404.7,-556.31"/>
</g>
<!-- Node42 -->
<g id="node42" class="node">
<title>Node42</title>
<g id="a_node42"><a xlink:href="../../de/dd1/LinkedList_8hpp.html" target="_top" xlink:title=" ">
<polygon fill="white" stroke="black" points="437.97,-504.5 437.97,-523.5 523.97,-523.5 523.97,-504.5 437.97,-504.5"/>
<text text-anchor="middle" x="480.97" y="-511.5" font-family="Helvetica,sans-Serif" font-size="10.00">LinkedList.hpp</text>
</a>
</g>
</g>
<!-- Node1&#45;&gt;Node42 -->
<g id="edge66" class="edge">
<title>Node1&#45;&gt;Node42</title>
<path fill="none" stroke="midnightblue" d="M389.34,-556.23C411.79,-546.13 442.5,-532.31 462.04,-523.52"/>
<polygon fill="midnightblue" stroke="midnightblue" points="387.67,-553.15 379.98,-560.44 390.54,-559.53 387.67,-553.15"/>
</g>
<!-- Node43 -->
<g id="node43" class="node">
<title>Node43</title>
<g id="a_node43"><a xlink:href="../../d2/dd5/SettingsWrapper_8hpp.html" target="_top" xlink:title=" ">
<polygon fill="white" stroke="black" points="301.97,-504.5 301.97,-523.5 419.97,-523.5 419.97,-504.5 301.97,-504.5"/>
<text text-anchor="middle" x="360.97" y="-511.5" font-family="Helvetica,sans-Serif" font-size="10.00">SettingsWrapper.hpp</text>
</a>
</g>
</g>
<!-- Node1&#45;&gt;Node43 -->
<g id="edge68" class="edge">
<title>Node1&#45;&gt;Node43</title>
<path fill="none" stroke="midnightblue" d="M354.5,-550.1C353.86,-541.14 354.31,-530.86 355.84,-523.75"/>
<polygon fill="midnightblue" stroke="midnightblue" points="351.03,-550.62 355.8,-560.08 357.97,-549.71 351.03,-550.62"/>
</g>
<!-- Node4 -->
<g id="node4" class="node">
<title>Node4</title>
<g id="a_node4"><a xlink:href="../../de/d76/Array_8hpp.html" target="_top" xlink:title=" ">
<polygon fill="white" stroke="black" points="830.97,-448.5 830.97,-467.5 892.97,-467.5 892.97,-448.5 830.97,-448.5"/>
<text text-anchor="middle" x="861.97" y="-455.5" font-family="Helvetica,sans-Serif" font-size="10.00">Array.hpp</text>
</a>
</g>
</g>
<!-- Node3&#45;&gt;Node4 -->
<g id="edge3" class="edge">
<title>Node3&#45;&gt;Node4</title>
<path fill="none" stroke="midnightblue" d="M660.14,-504.04C708.04,-493.35 787.06,-475.71 830.66,-465.99"/>
<polygon fill="midnightblue" stroke="midnightblue" points="659.13,-500.68 650.13,-506.27 660.65,-507.51 659.13,-500.68"/>
</g>
<!-- Node29 -->
<g id="node29" class="node">
<title>Node29</title>
<g id="a_node29"><a xlink:href="../../da/d1f/ExtendedIOElement_8cpp.html" target="_top" xlink:title=" ">
<polygon fill="white" stroke="black" points="488.97,-168.5 488.97,-187.5 622.97,-187.5 622.97,-168.5 488.97,-168.5"/>
<text text-anchor="middle" x="555.97" y="-175.5" font-family="Helvetica,sans-Serif" font-size="10.00">ExtendedIOElement.cpp</text>
</a>
</g>
</g>
<!-- Node3&#45;&gt;Node29 -->
<g id="edge61" class="edge">
<title>Node3&#45;&gt;Node29</title>
<path fill="none" stroke="midnightblue" d="M589.34,-499.96C574.62,-492.42 557.67,-481.69 545.97,-468 508.49,-424.14 498.97,-404.69 498.97,-347 498.97,-347 498.97,-347 498.97,-289 498.97,-247.06 532.04,-205.19 547.8,-187.62"/>
<polygon fill="midnightblue" stroke="midnightblue" points="588.09,-503.25 598.62,-504.46 591.15,-496.95 588.09,-503.25"/>
</g>
<!-- Node30 -->
<g id="node30" class="node">
<title>Node30</title>
<g id="a_node30"><a xlink:href="../../d6/d3c/ExtendedInputOutput_8cpp.html" target="_top" xlink:title=" ">
<polygon fill="white" stroke="black" points="640.97,-168.5 640.97,-187.5 780.97,-187.5 780.97,-168.5 640.97,-168.5"/>
<text text-anchor="middle" x="710.97" y="-175.5" font-family="Helvetica,sans-Serif" font-size="10.00">ExtendedInputOutput.cpp</text>
</a>
</g>
</g>
<!-- Node3&#45;&gt;Node30 -->
<g id="edge62" class="edge">
<title>Node3&#45;&gt;Node30</title>
<path fill="none" stroke="midnightblue" d="M628.23,-495.25C637.41,-473.86 650.97,-436.59 650.97,-403 650.97,-403 650.97,-403 650.97,-345 650.97,-276.63 514.91,-278.67 555.97,-224 568.34,-207.53 617.61,-195.14 657.32,-187.57"/>
<polygon fill="midnightblue" stroke="midnightblue" points="625.03,-493.83 624.15,-504.39 631.42,-496.69 625.03,-493.83"/>
</g>
<!-- Node38 -->
<g id="node38" class="node">
<title>Node38</title>
<g id="a_node38"><a xlink:href="../../d1/d40/BitArray_8hpp.html" target="_top" xlink:title=" ">
<polygon fill="white" stroke="black" points="1708.97,-168.5 1708.97,-187.5 1784.97,-187.5 1784.97,-168.5 1708.97,-168.5"/>
<text text-anchor="middle" x="1746.97" y="-175.5" font-family="Helvetica,sans-Serif" font-size="10.00">BitArray.hpp</text>
</a>
</g>
</g>
<!-- Node3&#45;&gt;Node38 -->
<g id="edge56" class="edge">
<title>Node3&#45;&gt;Node38</title>
<path fill="none" stroke="midnightblue" d="M660.02,-511.74C877.93,-504.6 1910.97,-467.39 1910.97,-403 1910.97,-403 1910.97,-403 1910.97,-289 1910.97,-228.66 1833.45,-199.3 1785,-186.84"/>
<polygon fill="midnightblue" stroke="midnightblue" points="659.86,-508.24 649.98,-512.06 660.09,-515.24 659.86,-508.24"/>
</g>
<!-- Node39 -->
<g id="node39" class="node">
<title>Node39</title>
<g id="a_node39"><a xlink:href="../../d6/df4/Exit_8cpp.html" target="_top" xlink:title=" ">
<polygon fill="white" stroke="black" points="1938.97,-448.5 1938.97,-467.5 1994.97,-467.5 1994.97,-448.5 1938.97,-448.5"/>
<text text-anchor="middle" x="1966.97" y="-455.5" font-family="Helvetica,sans-Serif" font-size="10.00">Exit.cpp</text>
</a>
</g>
</g>
<!-- Node3&#45;&gt;Node39 -->
<g id="edge60" class="edge">
<title>Node3&#45;&gt;Node39</title>
<path fill="none" stroke="midnightblue" d="M660.36,-512.57C852.05,-510.37 1671.31,-499.3 1924.97,-468 1929.41,-467.45 1934.07,-466.67 1938.62,-465.78"/>
<polygon fill="midnightblue" stroke="midnightblue" points="660.12,-509.07 650.16,-512.68 660.2,-516.07 660.12,-509.07"/>
</g>
<!-- Node40 -->
<g id="node40" class="node">
<title>Node40</title>
<g id="a_node40"><a xlink:href="../../d4/d93/Updatable_8hpp.html" target="_top" xlink:title=" ">
<polygon fill="white" stroke="black" points="410.97,-448.5 410.97,-467.5 498.97,-467.5 498.97,-448.5 410.97,-448.5"/>
<text text-anchor="middle" x="454.97" y="-455.5" font-family="Helvetica,sans-Serif" font-size="10.00">Updatable.hpp</text>
</a>
</g>
</g>
<!-- Node3&#45;&gt;Node40 -->
<g id="edge63" class="edge">
<title>Node3&#45;&gt;Node40</title>
<path fill="none" stroke="midnightblue" d="M584.23,-501.3C553.14,-491.13 508.82,-476.62 480.99,-467.52"/>
<polygon fill="midnightblue" stroke="midnightblue" points="583.23,-504.66 593.82,-504.44 585.41,-498.01 583.23,-504.66"/>
</g>
<!-- Node41 -->
<g id="node41" class="node">
<title>Node41</title>
<g id="a_node41"><a xlink:href="../../d4/d1b/vector_8cpp.html" target="_top" xlink:title=" ">
<polygon fill="white" stroke="black" points="555.47,-448.5 555.47,-467.5 622.47,-467.5 622.47,-448.5 555.47,-448.5"/>
<text text-anchor="middle" x="588.97" y="-455.5" font-family="Helvetica,sans-Serif" font-size="10.00">vector.cpp</text>
</a>
</g>
</g>
<!-- Node3&#45;&gt;Node41 -->
<g id="edge65" class="edge">
<title>Node3&#45;&gt;Node41</title>
<path fill="none" stroke="midnightblue" d="M609.79,-495.27C604.49,-486.05 598.25,-475.17 593.99,-467.75"/>
<polygon fill="midnightblue" stroke="midnightblue" points="606.83,-497.15 614.85,-504.08 612.91,-493.67 606.83,-497.15"/>
</g>
<!-- Node5 -->
<g id="node5" class="node">
<title>Node5</title>
<g id="a_node5"><a xlink:href="../../d7/def/AnalogMultiplex_8hpp.html" target="_top" xlink:title=" ">
<polygon fill="white" stroke="black" points="875.47,-112.5 875.47,-131.5 992.47,-131.5 992.47,-112.5 875.47,-112.5"/>
<text text-anchor="middle" x="933.97" y="-119.5" font-family="Helvetica,sans-Serif" font-size="10.00">AnalogMultiplex.hpp</text>
</a>
</g>
</g>
<!-- Node4&#45;&gt;Node5 -->
<g id="edge4" class="edge">
<title>Node4&#45;&gt;Node5</title>
<path fill="none" stroke="midnightblue" d="M821.16,-445.8C700.6,-410.89 361.73,-298.54 479.97,-168 506.02,-139.24 758.31,-128.14 875.13,-124.52"/>
<polygon fill="midnightblue" stroke="midnightblue" points="820.21,-449.17 830.79,-448.56 822.14,-442.44 820.21,-449.17"/>
</g>
<!-- Node6 -->
<g id="node6" class="node">
<title>Node6</title>
<g id="a_node6"><a xlink:href="../../d5/db6/ArrayHelpers_8hpp.html" target="_top" xlink:title=" ">
<polygon fill="white" stroke="black" points="1421.47,-280.5 1421.47,-299.5 1522.47,-299.5 1522.47,-280.5 1421.47,-280.5"/>
<text text-anchor="middle" x="1471.97" y="-287.5" font-family="Helvetica,sans-Serif" font-size="10.00">ArrayHelpers.hpp</text>
</a>
</g>
</g>
<!-- Node4&#45;&gt;Node6 -->
<g id="edge5" class="edge">
<title>Node4&#45;&gt;Node6</title>
<path fill="none" stroke="midnightblue" d="M902.83,-445.88C1017.18,-414.76 1338.68,-327.27 1440.58,-299.54"/>
<polygon fill="midnightblue" stroke="midnightblue" points="901.79,-442.54 893.06,-448.54 903.62,-449.29 901.79,-442.54"/>
</g>
<!-- Node17 -->
<g id="node17" class="node">
<title>Node17</title>
<g id="a_node17"><a xlink:href="../../d4/d35/Hardware-Types_8hpp.html" target="_top" xlink:title=" ">
<polygon fill="white" stroke="black" points="803.97,-392.5 803.97,-411.5 919.97,-411.5 919.97,-392.5 803.97,-392.5"/>
<text text-anchor="middle" x="861.97" y="-399.5" font-family="Helvetica,sans-Serif" font-size="10.00">Hardware&#45;Types.hpp</text>
</a>
</g>
</g>
<!-- Node4&#45;&gt;Node17 -->
<g id="edge21" class="edge">
<title>Node4&#45;&gt;Node17</title>
<path fill="none" stroke="midnightblue" d="M861.97,-437.8C861.97,-428.91 861.97,-418.78 861.97,-411.75"/>
<polygon fill="midnightblue" stroke="midnightblue" points="858.47,-438.08 861.97,-448.08 865.47,-438.08 858.47,-438.08"/>
</g>
<!-- Node37 -->
<g id="node37" class="node">
<title>Node37</title>
<g id="a_node37"><a xlink:href="../../dd/ddf/RegisterEncoders_8hpp.html" target="_top" xlink:title=" ">
<polygon fill="white" stroke="black" points="1090.97,-336.5 1090.97,-355.5 1212.97,-355.5 1212.97,-336.5 1090.97,-336.5"/>
<text text-anchor="middle" x="1151.97" y="-343.5" font-family="Helvetica,sans-Serif" font-size="10.00">RegisterEncoders.hpp</text>
</a>
</g>
</g>
<!-- Node4&#45;&gt;Node37 -->
<g id="edge54" class="edge">
<title>Node4&#45;&gt;Node37</title>
<path fill="none" stroke="midnightblue" d="M894.33,-444.73C953.59,-422.25 1078.17,-374.99 1129.32,-355.59"/>
<polygon fill="midnightblue" stroke="midnightblue" points="892.83,-441.55 884.72,-448.37 895.31,-448.09 892.83,-441.55"/>
</g>
<!-- Node7 -->
<g id="node7" class="node">
<title>Node7</title>
<g id="a_node7"><a xlink:href="../../d2/d05/StaticSizeExtendedIOElement_8hpp.html" target="_top" xlink:title=" ">
<polygon fill="white" stroke="black" points="950.97,-168.5 950.97,-187.5 1132.97,-187.5 1132.97,-168.5 950.97,-168.5"/>
<text text-anchor="middle" x="1041.97" y="-175.5" font-family="Helvetica,sans-Serif" font-size="10.00">StaticSizeExtendedIOElement.hpp</text>
</a>
</g>
</g>
<!-- Node6&#45;&gt;Node7 -->
<g id="edge6" class="edge">
<title>Node6&#45;&gt;Node7</title>
<path fill="none" stroke="midnightblue" d="M1532.7,-285.35C1626.46,-279.09 1797.61,-264.92 1815.97,-244 1821.83,-237.32 1822.08,-230.45 1815.97,-224 1790.17,-196.79 1179.37,-190.68 1141.97,-188 1139.01,-187.79 1136.01,-187.56 1132.97,-187.33"/>
<polygon fill="midnightblue" stroke="midnightblue" points="1532.25,-281.87 1522.5,-286.02 1532.71,-288.86 1532.25,-281.87"/>
</g>
<!-- Node7&#45;&gt;Node5 -->
<g id="edge7" class="edge">
<title>Node7&#45;&gt;Node5</title>
<path fill="none" stroke="midnightblue" d="M1015.42,-163.73C995.42,-153.73 968.58,-140.31 951.28,-131.65"/>
<polygon fill="midnightblue" stroke="midnightblue" points="1014.11,-166.98 1024.62,-168.32 1017.24,-160.72 1014.11,-166.98"/>
</g>
<!-- Node8 -->
<g id="node8" class="node">
<title>Node8</title>
<g id="a_node8"><a xlink:href="../../d2/d25/MAX7219_8hpp.html" target="_top" xlink:title=" ">
<polygon fill="white" stroke="black" points="1010.97,-112.5 1010.97,-131.5 1094.97,-131.5 1094.97,-112.5 1010.97,-112.5"/>
<text text-anchor="middle" x="1052.97" y="-119.5" font-family="Helvetica,sans-Serif" font-size="10.00">MAX7219.hpp</text>
</a>
</g>
</g>
<!-- Node7&#45;&gt;Node8 -->
<g id="edge8" class="edge">
<title>Node7&#45;&gt;Node8</title>
<path fill="none" stroke="midnightblue" d="M1045.82,-158.1C1047.64,-149.14 1049.74,-138.86 1051.19,-131.75"/>
<polygon fill="midnightblue" stroke="midnightblue" points="1042.35,-157.59 1043.78,-168.08 1049.21,-158.98 1042.35,-157.59"/>
</g>
<!-- Node9 -->
<g id="node9" class="node">
<title>Node9</title>
<g id="a_node9"><a xlink:href="../../d7/dca/MCP23017_8hpp.html" target="_top" xlink:title=" ">
<polygon fill="white" stroke="black" points="1366.47,-112.5 1366.47,-131.5 1455.47,-131.5 1455.47,-112.5 1366.47,-112.5"/>
<text text-anchor="middle" x="1410.97" y="-119.5" font-family="Helvetica,sans-Serif" font-size="10.00">MCP23017.hpp</text>
</a>
</g>
</g>
<!-- Node7&#45;&gt;Node9 -->
<g id="edge9" class="edge">
<title>Node7&#45;&gt;Node9</title>
<path fill="none" stroke="midnightblue" d="M1110.69,-166.94C1185.46,-156 1302.8,-138.83 1366.4,-129.52"/>
<polygon fill="midnightblue" stroke="midnightblue" points="1109.82,-163.53 1100.44,-168.44 1110.84,-170.46 1109.82,-163.53"/>
</g>
<!-- Node11 -->
<g id="node11" class="node">
<title>Node11</title>
<g id="a_node11"><a xlink:href="../../d8/d93/ShiftRegisterOutBase_8hpp.html" target="_top" xlink:title=" ">
<polygon fill="white" stroke="black" points="1113.47,-112.5 1113.47,-131.5 1254.47,-131.5 1254.47,-112.5 1113.47,-112.5"/>
<text text-anchor="middle" x="1183.97" y="-119.5" font-family="Helvetica,sans-Serif" font-size="10.00">ShiftRegisterOutBase.hpp</text>
</a>
</g>
</g>
<!-- Node7&#45;&gt;Node11 -->
<g id="edge12" class="edge">
<title>Node7&#45;&gt;Node11</title>
<path fill="none" stroke="midnightblue" d="M1074.12,-164.77C1100.8,-154.63 1138.04,-140.47 1161.57,-131.52"/>
<polygon fill="midnightblue" stroke="midnightblue" points="1072.57,-161.62 1064.47,-168.44 1075.06,-168.16 1072.57,-161.62"/>
</g>
<!-- Node10 -->
<g id="node10" class="node">
<title>Node10</title>
<g id="a_node10"><a xlink:href="../../d2/d94/MCP23017_8ipp.html" target="_top" xlink:title=" ">
<polygon fill="white" stroke="black" points="1367.97,-56.5 1367.97,-75.5 1453.97,-75.5 1453.97,-56.5 1367.97,-56.5"/>
<text text-anchor="middle" x="1410.97" y="-63.5" font-family="Helvetica,sans-Serif" font-size="10.00">MCP23017.ipp</text>
</a>
</g>
</g>
<!-- Node9&#45;&gt;Node10 -->
<g id="edge10" class="edge">
<title>Node9&#45;&gt;Node10</title>
<path fill="none" stroke="midnightblue" d="M1404.5,-102.1C1403.86,-93.14 1404.31,-82.86 1405.84,-75.75"/>
<polygon fill="midnightblue" stroke="midnightblue" points="1401.03,-102.62 1405.8,-112.08 1407.97,-101.71 1401.03,-102.62"/>
</g>
<!-- Node10&#45;&gt;Node9 -->
<g id="edge11" class="edge">
<title>Node10&#45;&gt;Node9</title>
<path fill="none" stroke="midnightblue" d="M1417.43,-85.69C1418.07,-94.64 1417.64,-104.93 1416.13,-112.08"/>
<polygon fill="midnightblue" stroke="midnightblue" points="1420.89,-85.2 1416.1,-75.75 1413.95,-86.13 1420.89,-85.2"/>
</g>
<!-- Node12 -->
<g id="node12" class="node">
<title>Node12</title>
<g id="a_node12"><a xlink:href="../../d7/d88/SPIShiftRegisterOut_8hpp.html" target="_top" xlink:title=" ">
<polygon fill="white" stroke="black" points="1205.97,-56.5 1205.97,-75.5 1337.97,-75.5 1337.97,-56.5 1205.97,-56.5"/>
<text text-anchor="middle" x="1271.97" y="-63.5" font-family="Helvetica,sans-Serif" font-size="10.00">SPIShiftRegisterOut.hpp</text>
</a>
</g>
</g>
<!-- Node11&#45;&gt;Node12 -->
<g id="edge13" class="edge">
<title>Node11&#45;&gt;Node12</title>
<path fill="none" stroke="midnightblue" d="M1206.94,-106.9C1223.08,-97 1244.15,-84.07 1257.86,-75.65"/>
<polygon fill="midnightblue" stroke="midnightblue" points="1204.8,-104.11 1198.11,-112.32 1208.46,-110.08 1204.8,-104.11"/>
</g>
<!-- Node14 -->
<g id="node14" class="node">
<title>Node14</title>
<g id="a_node14"><a xlink:href="../../d0/db4/ShiftRegisterOut_8hpp.html" target="_top" xlink:title=" ">
<polygon fill="white" stroke="black" points="1059.47,-56.5 1059.47,-75.5 1176.47,-75.5 1176.47,-56.5 1059.47,-56.5"/>
<text text-anchor="middle" x="1117.97" y="-63.5" font-family="Helvetica,sans-Serif" font-size="10.00">ShiftRegisterOut.hpp</text>
</a>
</g>
</g>
<!-- Node11&#45;&gt;Node14 -->
<g id="edge16" class="edge">
<title>Node11&#45;&gt;Node14</title>
<path fill="none" stroke="midnightblue" d="M1165.41,-105.82C1153.59,-96.15 1138.68,-83.95 1128.76,-75.83"/>
<polygon fill="midnightblue" stroke="midnightblue" points="1163.41,-108.7 1173.36,-112.32 1167.84,-103.28 1163.41,-108.7"/>
</g>
<!-- Node16 -->
<g id="node16" class="node">
<title>Node16</title>
<g id="a_node16"><a xlink:href="../../d5/d47/ShiftRegisterOutBase_8ipp.html" target="_top" xlink:title=" ">
<polygon fill="white" stroke="black" points="880.97,-56.5 880.97,-75.5 1018.97,-75.5 1018.97,-56.5 880.97,-56.5"/>
<text text-anchor="middle" x="949.97" y="-63.5" font-family="Helvetica,sans-Serif" font-size="10.00">ShiftRegisterOutBase.ipp</text>
</a>
</g>
</g>
<!-- Node11&#45;&gt;Node16 -->
<g id="edge19" class="edge">
<title>Node11&#45;&gt;Node16</title>
<path fill="none" stroke="midnightblue" d="M1132.01,-110.28C1086.01,-100.08 1020.47,-84.92 981.79,-75.52"/>
<polygon fill="midnightblue" stroke="midnightblue" points="1131.28,-113.71 1141.8,-112.44 1132.79,-106.87 1131.28,-113.71"/>
</g>
<!-- Node13 -->
<g id="node13" class="node">
<title>Node13</title>
<g id="a_node13"><a xlink:href="../../da/d45/SPIShiftRegisterOut_8ipp.html" target="_top" xlink:title=" ">
<polygon fill="white" stroke="black" points="1207.47,-0.5 1207.47,-19.5 1336.47,-19.5 1336.47,-0.5 1207.47,-0.5"/>
<text text-anchor="middle" x="1271.97" y="-7.5" font-family="Helvetica,sans-Serif" font-size="10.00">SPIShiftRegisterOut.ipp</text>
</a>
</g>
</g>
<!-- Node12&#45;&gt;Node13 -->
<g id="edge14" class="edge">
<title>Node12&#45;&gt;Node13</title>
<path fill="none" stroke="midnightblue" d="M1265.5,-46.1C1264.86,-37.14 1265.31,-26.86 1266.84,-19.75"/>
<polygon fill="midnightblue" stroke="midnightblue" points="1262.03,-46.62 1266.8,-56.08 1268.97,-45.71 1262.03,-46.62"/>
</g>
<!-- Node13&#45;&gt;Node12 -->
<g id="edge15" class="edge">
<title>Node13&#45;&gt;Node12</title>
<path fill="none" stroke="midnightblue" d="M1278.43,-29.69C1279.07,-38.64 1278.64,-48.93 1277.13,-56.08"/>
<polygon fill="midnightblue" stroke="midnightblue" points="1281.89,-29.2 1277.1,-19.75 1274.95,-30.13 1281.89,-29.2"/>
</g>
<!-- Node15 -->
<g id="node15" class="node">
<title>Node15</title>
<g id="a_node15"><a xlink:href="../../de/d95/ShiftRegisterOut_8ipp.html" target="_top" xlink:title=" ">
<polygon fill="white" stroke="black" points="1060.97,-0.5 1060.97,-19.5 1174.97,-19.5 1174.97,-0.5 1060.97,-0.5"/>
<text text-anchor="middle" x="1117.97" y="-7.5" font-family="Helvetica,sans-Serif" font-size="10.00">ShiftRegisterOut.ipp</text>
</a>
</g>
</g>
<!-- Node14&#45;&gt;Node15 -->
<g id="edge17" class="edge">
<title>Node14&#45;&gt;Node15</title>
<path fill="none" stroke="midnightblue" d="M1111.5,-46.1C1110.86,-37.14 1111.31,-26.86 1112.84,-19.75"/>
<polygon fill="midnightblue" stroke="midnightblue" points="1108.03,-46.62 1112.8,-56.08 1114.97,-45.71 1108.03,-46.62"/>
</g>
<!-- Node15&#45;&gt;Node14 -->
<g id="edge18" class="edge">
<title>Node15&#45;&gt;Node14</title>
<path fill="none" stroke="midnightblue" d="M1124.43,-29.69C1125.07,-38.64 1124.64,-48.93 1123.13,-56.08"/>
<polygon fill="midnightblue" stroke="midnightblue" points="1127.89,-29.2 1123.1,-19.75 1120.95,-30.13 1127.89,-29.2"/>
</g>
<!-- Node16&#45;&gt;Node11 -->
<g id="edge20" class="edge">
<title>Node16&#45;&gt;Node11</title>
<path fill="none" stroke="midnightblue" d="M1001.73,-77.68C1047.68,-87.87 1113.22,-103.02 1151.98,-112.44"/>
<polygon fill="midnightblue" stroke="midnightblue" points="1002.47,-74.25 991.95,-75.52 1000.96,-81.09 1002.47,-74.25"/>
</g>
<!-- Node18 -->
<g id="node18" class="node">
<title>Node18</title>
<g id="a_node18"><a xlink:href="../../d2/d3c/Arduino-Hardware-Types_8hpp.html" target="_top" xlink:title=" ">
<polygon fill="white" stroke="black" points="862.47,-336.5 862.47,-355.5 1019.47,-355.5 1019.47,-336.5 862.47,-336.5"/>
<text text-anchor="middle" x="940.97" y="-343.5" font-family="Helvetica,sans-Serif" font-size="10.00">Arduino&#45;Hardware&#45;Types.hpp</text>
</a>
</g>
</g>
<!-- Node17&#45;&gt;Node18 -->
<g id="edge22" class="edge">
<title>Node17&#45;&gt;Node18</title>
<path fill="none" stroke="midnightblue" d="M883,-386.62C897.43,-376.76 916.11,-363.99 928.31,-355.65"/>
<polygon fill="midnightblue" stroke="midnightblue" points="880.94,-383.79 874.66,-392.32 884.89,-389.57 880.94,-383.79"/>
</g>
<!-- Node27 -->
<g id="node27" class="node">
<title>Node27</title>
<g id="a_node27"><a xlink:href="../../d9/d4b/ButtonMatrix_8hpp.html" target="_top" xlink:title=" ">
<polygon fill="white" stroke="black" points="1439.47,-168.5 1439.47,-187.5 1540.47,-187.5 1540.47,-168.5 1439.47,-168.5"/>
<text text-anchor="middle" x="1489.97" y="-175.5" font-family="Helvetica,sans-Serif" font-size="10.00">ButtonMatrix.hpp</text>
</a>
</g>
</g>
<!-- Node17&#45;&gt;Node27 -->
<g id="edge51" class="edge">
<title>Node17&#45;&gt;Node27</title>
<path fill="none" stroke="midnightblue" d="M930.46,-400.99C1132.14,-399.34 1716.93,-382.5 1831.97,-244 1860.51,-209.63 1859.52,-230.97 1549.97,-188 1546.94,-187.58 1543.83,-187.14 1540.7,-186.69"/>
<polygon fill="midnightblue" stroke="midnightblue" points="930.26,-397.49 920.29,-401.06 930.31,-404.49 930.26,-397.49"/>
</g>
<!-- Node28 -->
<g id="node28" class="node">
<title>Node28</title>
<g id="a_node28"><a xlink:href="../../d4/d57/ExtendedIOElement_8hpp.html" target="_top" xlink:title=" ">
<polygon fill="white" stroke="black" points="690.97,-224.5 690.97,-243.5 824.97,-243.5 824.97,-224.5 690.97,-224.5"/>
<text text-anchor="middle" x="757.97" y="-231.5" font-family="Helvetica,sans-Serif" font-size="10.00">ExtendedIOElement.hpp</text>
</a>
</g>
</g>
<!-- Node17&#45;&gt;Node28 -->
<g id="edge52" class="edge">
<title>Node17&#45;&gt;Node28</title>
<path fill="none" stroke="midnightblue" d="M850.89,-383.31C828.71,-347.92 779.62,-269.56 763.34,-243.57"/>
<polygon fill="midnightblue" stroke="midnightblue" points="848.1,-385.46 856.38,-392.08 854.03,-381.74 848.1,-385.46"/>
</g>
<!-- Node31 -->
<g id="node31" class="node">
<title>Node31</title>
<g id="a_node31"><a xlink:href="../../d8/df3/FilteredAnalog_8hpp.html" target="_top" xlink:title=" ">
<polygon fill="white" stroke="black" points="564.97,-224.5 564.97,-243.5 672.97,-243.5 672.97,-224.5 564.97,-224.5"/>
<text text-anchor="middle" x="618.97" y="-231.5" font-family="Helvetica,sans-Serif" font-size="10.00">FilteredAnalog.hpp</text>
</a>
</g>
</g>
<!-- Node17&#45;&gt;Node31 -->
<g id="edge53" class="edge">
<title>Node17&#45;&gt;Node31</title>
<path fill="none" stroke="midnightblue" d="M840.95,-386.65C791.88,-353.12 670.92,-270.49 631.56,-243.61"/>
<polygon fill="midnightblue" stroke="midnightblue" points="839.01,-389.56 849.25,-392.31 842.96,-383.78 839.01,-389.56"/>
</g>
<!-- Node19 -->
<g id="node19" class="node">
<title>Node19</title>
<g id="a_node19"><a xlink:href="../../dd/ddf/ExtendedInputOutput_8hpp.html" target="_top" xlink:title=" ">
<polygon fill="white" stroke="black" points="896.47,-280.5 896.47,-299.5 1037.47,-299.5 1037.47,-280.5 896.47,-280.5"/>
<text text-anchor="middle" x="966.97" y="-287.5" font-family="Helvetica,sans-Serif" font-size="10.00">ExtendedInputOutput.hpp</text>
</a>
</g>
</g>
<!-- Node18&#45;&gt;Node19 -->
<g id="edge23" class="edge">
<title>Node18&#45;&gt;Node19</title>
<path fill="none" stroke="midnightblue" d="M949.64,-326.98C954.06,-317.82 959.22,-307.09 962.75,-299.75"/>
<polygon fill="midnightblue" stroke="midnightblue" points="946.45,-325.55 945.26,-336.08 952.75,-328.59 946.45,-325.55"/>
</g>
<!-- Node19&#45;&gt;Node5 -->
<g id="edge24" class="edge">
<title>Node19&#45;&gt;Node5</title>
<path fill="none" stroke="midnightblue" d="M960.32,-270.98C951.45,-246.57 936.55,-204.19 933.97,-188 930.81,-168.16 932.04,-144.49 933.09,-131.9"/>
<polygon fill="midnightblue" stroke="midnightblue" points="957.08,-272.3 963.8,-280.49 963.65,-269.9 957.08,-272.3"/>
</g>
<!-- Node19&#45;&gt;Node9 -->
<g id="edge45" class="edge">
<title>Node19&#45;&gt;Node9</title>
<path fill="none" stroke="midnightblue" d="M1047.73,-286.56C1112.5,-282.46 1204.84,-271.74 1280.97,-244 1325.23,-227.87 1337.74,-221.39 1370.97,-188 1387.98,-170.91 1401.02,-145.26 1407.14,-131.87"/>
<polygon fill="midnightblue" stroke="midnightblue" points="1047.35,-283.08 1037.58,-287.16 1047.77,-290.06 1047.35,-283.08"/>
</g>
<!-- Node19&#45;&gt;Node11 -->
<g id="edge49" class="edge">
<title>Node19&#45;&gt;Node11</title>
<path fill="none" stroke="midnightblue" d="M1047.66,-279.49C1149.76,-265.6 1316.84,-236.06 1353.97,-188 1384.2,-148.87 1313.94,-133.29 1254.75,-127.09"/>
<polygon fill="midnightblue" stroke="midnightblue" points="1047.13,-276.03 1037.68,-280.82 1048.06,-282.97 1047.13,-276.03"/>
</g>
<!-- Node19&#45;&gt;Node13 -->
<g id="edge47" class="edge">
<title>Node19&#45;&gt;Node13</title>
<path fill="none" stroke="midnightblue" d="M1047.85,-287.65C1199.2,-284.43 1519.54,-274.18 1625.97,-244 1644.33,-238.79 1646.23,-231.03 1663.97,-224 1719.7,-201.91 1757.67,-235.72 1793.97,-188 1913.53,-30.82 1501.09,-12.03 1336.69,-10.66"/>
<polygon fill="midnightblue" stroke="midnightblue" points="1047.61,-284.15 1037.69,-287.86 1047.76,-291.15 1047.61,-284.15"/>
</g>
<!-- Node19&#45;&gt;Node15 -->
<g id="edge48" class="edge">
<title>Node19&#45;&gt;Node15</title>
<path fill="none" stroke="midnightblue" d="M945.54,-274.54C934.42,-266.39 921.09,-255.54 910.97,-244 854.71,-179.83 810.72,-115.42 871.97,-56 898.26,-30.49 996.78,-19.06 1060.88,-14.23"/>
<polygon fill="midnightblue" stroke="midnightblue" points="943.7,-277.53 953.88,-280.46 947.75,-271.82 943.7,-277.53"/>
</g>
<!-- Node19&#45;&gt;Node16 -->
<g id="edge50" class="edge">
<title>Node19&#45;&gt;Node16</title>
<path fill="none" stroke="midnightblue" d="M951.86,-272.74C928.08,-245.89 882.87,-189.52 865.97,-132 863.46,-123.47 861.4,-119.63 865.97,-112 877.02,-93.55 898.5,-82.23 916.98,-75.56"/>
<polygon fill="midnightblue" stroke="midnightblue" points="949.47,-275.31 958.77,-280.38 954.66,-270.61 949.47,-275.31"/>
</g>
<!-- Node20 -->
<g id="node20" class="node">
<title>Node20</title>
<g id="a_node20"><a xlink:href="../../d4/db3/Button_8hpp.html" target="_top" xlink:title=" ">
<polygon fill="white" stroke="black" points="309.97,-224.5 309.97,-243.5 379.97,-243.5 379.97,-224.5 309.97,-224.5"/>
<text text-anchor="middle" x="344.97" y="-231.5" font-family="Helvetica,sans-Serif" font-size="10.00">Button.hpp</text>
</a>
</g>
</g>
<!-- Node19&#45;&gt;Node20 -->
<g id="edge25" class="edge">
<title>Node19&#45;&gt;Node20</title>
<path fill="none" stroke="midnightblue" d="M886.2,-281.99C749.22,-270.1 476.83,-246.45 380.07,-238.05"/>
<polygon fill="midnightblue" stroke="midnightblue" points="885.96,-285.48 896.22,-282.86 886.56,-278.51 885.96,-285.48"/>
</g>
<!-- Node26 -->
<g id="node26" class="node">
<title>Node26</title>
<g id="a_node26"><a xlink:href="../../d5/d41/ButtonMatrix_8ipp.html" target="_top" xlink:title=" ">
<polygon fill="white" stroke="black" points="1438.97,-224.5 1438.97,-243.5 1536.97,-243.5 1536.97,-224.5 1438.97,-224.5"/>
<text text-anchor="middle" x="1487.97" y="-231.5" font-family="Helvetica,sans-Serif" font-size="10.00">ButtonMatrix.ipp</text>
</a>
</g>
</g>
<!-- Node19&#45;&gt;Node26 -->
<g id="edge31" class="edge">
<title>Node19&#45;&gt;Node26</title>
<path fill="none" stroke="midnightblue" d="M1047.72,-282.15C1139.31,-274.12 1293.08,-259.89 1424.97,-244 1429.47,-243.46 1434.14,-242.86 1438.81,-242.23"/>
<polygon fill="midnightblue" stroke="midnightblue" points="1047.34,-278.67 1037.69,-283.02 1047.95,-285.64 1047.34,-278.67"/>
</g>
<!-- Node19&#45;&gt;Node28 -->
<g id="edge34" class="edge">
<title>Node19&#45;&gt;Node28</title>
<path fill="none" stroke="midnightblue" d="M923.98,-277.89C884.52,-267.7 826.87,-252.8 790.93,-243.52"/>
<polygon fill="midnightblue" stroke="midnightblue" points="923.29,-281.33 933.85,-280.44 925.04,-274.55 923.29,-281.33"/>
</g>
<!-- Node19&#45;&gt;Node30 -->
<g id="edge38" class="edge">
<title>Node19&#45;&gt;Node30</title>
<path fill="none" stroke="midnightblue" d="M941.01,-275.92C908.49,-259.59 854.52,-232.75 833.97,-224 800.91,-209.92 761.81,-196.08 736.71,-187.55"/>
<polygon fill="midnightblue" stroke="midnightblue" points="939.46,-279.05 949.97,-280.42 942.6,-272.8 939.46,-279.05"/>
</g>
<!-- Node19&#45;&gt;Node31 -->
<g id="edge39" class="edge">
<title>Node19&#45;&gt;Node31</title>
<path fill="none" stroke="midnightblue" d="M901.94,-278.91C835.89,-268.66 734.78,-252.97 672.99,-243.38"/>
<polygon fill="midnightblue" stroke="midnightblue" points="901.41,-282.37 911.83,-280.44 902.48,-275.45 901.41,-282.37"/>
</g>
<!-- Node32 -->
<g id="node32" class="node">
<title>Node32</title>
<g id="a_node32"><a xlink:href="../../d9/d4f/LEDs_8hpp.html" target="_top" xlink:title=" ">
<polygon fill="white" stroke="black" points="1554.97,-224.5 1554.97,-243.5 1616.97,-243.5 1616.97,-224.5 1554.97,-224.5"/>
<text text-anchor="middle" x="1585.97" y="-231.5" font-family="Helvetica,sans-Serif" font-size="10.00">LEDs.hpp</text>
</a>
</g>
</g>
<!-- Node19&#45;&gt;Node32 -->
<g id="edge40" class="edge">
<title>Node19&#45;&gt;Node32</title>
<path fill="none" stroke="midnightblue" d="M1047.98,-286.38C1160.33,-281.91 1369.52,-270.57 1545.97,-244 1548.78,-243.58 1551.7,-243.06 1554.61,-242.5"/>
<polygon fill="midnightblue" stroke="midnightblue" points="1047.61,-282.89 1037.75,-286.78 1047.88,-289.88 1047.61,-282.89"/>
</g>
<!-- Node34 -->
<g id="node34" class="node">
<title>Node34</title>
<g id="a_node34"><a xlink:href="../../d7/d13/MAX7219__Base_8hpp.html" target="_top" xlink:title=" ">
<polygon fill="white" stroke="black" points="995.47,-224.5 995.47,-243.5 1108.47,-243.5 1108.47,-224.5 995.47,-224.5"/>
<text text-anchor="middle" x="1051.97" y="-231.5" font-family="Helvetica,sans-Serif" font-size="10.00">MAX7219_Base.hpp</text>
</a>
</g>
</g>
<!-- Node19&#45;&gt;Node34 -->
<g id="edge42" class="edge">
<title>Node19&#45;&gt;Node34</title>
<path fill="none" stroke="midnightblue" d="M989.16,-274.9C1004.75,-265 1025.1,-252.07 1038.35,-243.65"/>
<polygon fill="midnightblue" stroke="midnightblue" points="987.19,-272.01 980.62,-280.32 990.94,-277.92 987.19,-272.01"/>
</g>
<!-- Node36 -->
<g id="node36" class="node">
<title>Node36</title>
<g id="a_node36"><a xlink:href="../../d8/dd2/MCP23017Encoders_8hpp.html" target="_top" xlink:title=" ">
<polygon fill="white" stroke="black" points="1672.97,-224.5 1672.97,-243.5 1806.97,-243.5 1806.97,-224.5 1672.97,-224.5"/>
<text text-anchor="middle" x="1739.97" y="-231.5" font-family="Helvetica,sans-Serif" font-size="10.00">MCP23017Encoders.hpp</text>
</a>
</g>
</g>
<!-- Node19&#45;&gt;Node36 -->
<g id="edge46" class="edge">
<title>Node19&#45;&gt;Node36</title>
<path fill="none" stroke="midnightblue" d="M1047.99,-284.93C1177.31,-278.18 1438.28,-263.43 1658.97,-244 1663.48,-243.6 1668.13,-243.16 1672.81,-242.7"/>
<polygon fill="midnightblue" stroke="midnightblue" points="1047.58,-281.45 1037.78,-285.47 1047.95,-288.44 1047.58,-281.45"/>
</g>
<!-- Node21 -->
<g id="node21" class="node">
<title>Node21</title>
<g id="a_node21"><a xlink:href="../../de/dd1/Button_8cpp.html" target="_top" xlink:title=" ">
<polygon fill="white" stroke="black" points="226.47,-168.5 226.47,-187.5 295.47,-187.5 295.47,-168.5 226.47,-168.5"/>
<text text-anchor="middle" x="260.97" y="-175.5" font-family="Helvetica,sans-Serif" font-size="10.00">Button.cpp</text>
</a>
</g>
</g>
<!-- Node20&#45;&gt;Node21 -->
<g id="edge26" class="edge">
<title>Node20&#45;&gt;Node21</title>
<path fill="none" stroke="midnightblue" d="M323.04,-218.9C307.63,-209 287.52,-196.07 274.43,-187.65"/>
<polygon fill="midnightblue" stroke="midnightblue" points="321.17,-221.86 331.47,-224.32 324.95,-215.97 321.17,-221.86"/>
</g>
<!-- Node22 -->
<g id="node22" class="node">
<title>Node22</title>
<g id="a_node22"><a xlink:href="../../d5/d04/IncrementButton_8hpp.html" target="_top" xlink:title=" ">
<polygon fill="white" stroke="black" points="313.47,-168.5 313.47,-187.5 432.47,-187.5 432.47,-168.5 313.47,-168.5"/>
<text text-anchor="middle" x="372.97" y="-175.5" font-family="Helvetica,sans-Serif" font-size="10.00">IncrementButton.hpp</text>
</a>
</g>
</g>
<!-- Node20&#45;&gt;Node22 -->
<g id="edge27" class="edge">
<title>Node20&#45;&gt;Node22</title>
<path fill="none" stroke="midnightblue" d="M354.31,-214.98C359.06,-205.82 364.62,-195.09 368.43,-187.75"/>
<polygon fill="midnightblue" stroke="midnightblue" points="351.09,-213.59 349.59,-224.08 357.3,-216.82 351.09,-213.59"/>
</g>
<!-- Node24 -->
<g id="node24" class="node">
<title>Node24</title>
<g id="a_node24"><a xlink:href="../../df/df5/IncrementDecrementButtons_8hpp.html" target="_top" xlink:title=" ">
<polygon fill="white" stroke="black" points="29.47,-168.5 29.47,-187.5 208.47,-187.5 208.47,-168.5 29.47,-168.5"/>
<text text-anchor="middle" x="118.97" y="-175.5" font-family="Helvetica,sans-Serif" font-size="10.00">IncrementDecrementButtons.hpp</text>
</a>
</g>
</g>
<!-- Node20&#45;&gt;Node24 -->
<g id="edge29" class="edge">
<title>Node20&#45;&gt;Node24</title>
<path fill="none" stroke="midnightblue" d="M299.82,-222.21C257.17,-212.02 194.06,-196.94 154.78,-187.56"/>
<polygon fill="midnightblue" stroke="midnightblue" points="299.12,-225.64 309.66,-224.56 300.74,-218.83 299.12,-225.64"/>
</g>
<!-- Node23 -->
<g id="node23" class="node">
<title>Node23</title>
<g id="a_node23"><a xlink:href="../../db/d9d/IncrementButton_8cpp.html" target="_top" xlink:title=" ">
<polygon fill="white" stroke="black" points="313.47,-112.5 313.47,-131.5 432.47,-131.5 432.47,-112.5 313.47,-112.5"/>
<text text-anchor="middle" x="372.97" y="-119.5" font-family="Helvetica,sans-Serif" font-size="10.00">IncrementButton.cpp</text>
</a>
</g>
</g>
<!-- Node22&#45;&gt;Node23 -->
<g id="edge28" class="edge">
<title>Node22&#45;&gt;Node23</title>
<path fill="none" stroke="midnightblue" d="M372.97,-157.8C372.97,-148.91 372.97,-138.78 372.97,-131.75"/>
<polygon fill="midnightblue" stroke="midnightblue" points="369.47,-158.08 372.97,-168.08 376.47,-158.08 369.47,-158.08"/>
</g>
<!-- Node25 -->
<g id="node25" class="node">
<title>Node25</title>
<g id="a_node25"><a xlink:href="../../da/d66/IncrementDecrementButtons_8cpp.html" target="_top" xlink:title=" ">
<polygon fill="white" stroke="black" points="29.97,-112.5 29.97,-131.5 207.97,-131.5 207.97,-112.5 29.97,-112.5"/>
<text text-anchor="middle" x="118.97" y="-119.5" font-family="Helvetica,sans-Serif" font-size="10.00">IncrementDecrementButtons.cpp</text>
</a>
</g>
</g>
<!-- Node24&#45;&gt;Node25 -->
<g id="edge30" class="edge">
<title>Node24&#45;&gt;Node25</title>
<path fill="none" stroke="midnightblue" d="M118.97,-157.8C118.97,-148.91 118.97,-138.78 118.97,-131.75"/>
<polygon fill="midnightblue" stroke="midnightblue" points="115.47,-158.08 118.97,-168.08 122.47,-158.08 115.47,-158.08"/>
</g>
<!-- Node26&#45;&gt;Node27 -->
<g id="edge32" class="edge">
<title>Node26&#45;&gt;Node27</title>
<path fill="none" stroke="midnightblue" d="M1482.2,-214.1C1481.9,-205.14 1482.72,-194.86 1484.51,-187.75"/>
<polygon fill="midnightblue" stroke="midnightblue" points="1478.71,-214.45 1483.13,-224.08 1485.68,-213.8 1478.71,-214.45"/>
</g>
<!-- Node27&#45;&gt;Node26 -->
<g id="edge33" class="edge">
<title>Node27&#45;&gt;Node26</title>
<path fill="none" stroke="midnightblue" d="M1495.74,-197.99C1496.03,-206.86 1495.22,-217.01 1493.46,-224.08"/>
<polygon fill="midnightblue" stroke="midnightblue" points="1499.2,-197.38 1494.77,-187.75 1492.23,-198.04 1499.2,-197.38"/>
</g>
<!-- Node28&#45;&gt;Node7 -->
<g id="edge37" class="edge">
<title>Node28&#45;&gt;Node7</title>
<path fill="none" stroke="midnightblue" d="M812.99,-222.54C866.67,-212.33 947.31,-197 997.18,-187.52"/>
<polygon fill="midnightblue" stroke="midnightblue" points="812.14,-219.14 802.97,-224.44 813.45,-226.01 812.14,-219.14"/>
</g>
<!-- Node28&#45;&gt;Node29 -->
<g id="edge35" class="edge">
<title>Node28&#45;&gt;Node29</title>
<path fill="none" stroke="midnightblue" d="M716.18,-221.83C678.04,-211.63 622.49,-196.78 587.83,-187.52"/>
<polygon fill="midnightblue" stroke="midnightblue" points="715.4,-225.24 725.96,-224.44 717.2,-218.48 715.4,-225.24"/>
</g>
<!-- Node28&#45;&gt;Node30 -->
<g id="edge36" class="edge">
<title>Node28&#45;&gt;Node30</title>
<path fill="none" stroke="midnightblue" d="M743.55,-216.43C735.31,-206.97 725.31,-195.48 718.58,-187.75"/>
<polygon fill="midnightblue" stroke="midnightblue" points="741,-218.84 750.21,-224.08 746.28,-214.24 741,-218.84"/>
</g>
<!-- Node33 -->
<g id="node33" class="node">
<title>Node33</title>
<g id="a_node33"><a xlink:href="../../d6/d3a/DotBarDisplayLEDs_8hpp.html" target="_top" xlink:title=" ">
<polygon fill="white" stroke="black" points="1558.97,-168.5 1558.97,-187.5 1690.97,-187.5 1690.97,-168.5 1558.97,-168.5"/>
<text text-anchor="middle" x="1624.97" y="-175.5" font-family="Helvetica,sans-Serif" font-size="10.00">DotBarDisplayLEDs.hpp</text>
</a>
</g>
</g>
<!-- Node32&#45;&gt;Node33 -->
<g id="edge41" class="edge">
<title>Node32&#45;&gt;Node33</title>
<path fill="none" stroke="midnightblue" d="M1598.35,-215.86C1605.1,-206.5 1613.18,-195.33 1618.65,-187.75"/>
<polygon fill="midnightblue" stroke="midnightblue" points="1595.43,-213.93 1592.41,-224.08 1601.1,-218.03 1595.43,-213.93"/>
</g>
<!-- Node34&#45;&gt;Node8 -->
<g id="edge43" class="edge">
<title>Node34&#45;&gt;Node8</title>
<path fill="none" stroke="midnightblue" d="M997.29,-221.86C961.37,-211.85 924.07,-194.57 941.97,-168 951.2,-154.29 991.79,-140.25 1021.21,-131.58"/>
<polygon fill="midnightblue" stroke="midnightblue" points="996.78,-225.35 1007.34,-224.5 998.56,-218.57 996.78,-225.35"/>
</g>
<!-- Node35 -->
<g id="node35" class="node">
<title>Node35</title>
<g id="a_node35"><a xlink:href="../../d5/d0c/MAX7219SevenSegmentDisplay_8hpp.html" target="_top" xlink:title=" ">
<polygon fill="white" stroke="black" points="1151.47,-168.5 1151.47,-187.5 1344.47,-187.5 1344.47,-168.5 1151.47,-168.5"/>
<text text-anchor="middle" x="1247.97" y="-175.5" font-family="Helvetica,sans-Serif" font-size="10.00">MAX7219SevenSegmentDisplay.hpp</text>
</a>
</g>
</g>
<!-- Node34&#45;&gt;Node35 -->
<g id="edge44" class="edge">
<title>Node34&#45;&gt;Node35</title>
<path fill="none" stroke="midnightblue" d="M1092.99,-221.7C1129.98,-211.51 1183.57,-196.74 1217.06,-187.52"/>
<polygon fill="midnightblue" stroke="midnightblue" points="1091.74,-218.41 1083.02,-224.44 1093.6,-225.16 1091.74,-218.41"/>
</g>
<!-- Node37&#45;&gt;Node36 -->
<g id="edge55" class="edge">
<title>Node37&#45;&gt;Node36</title>
<path fill="none" stroke="midnightblue" d="M1191.82,-333.66C1242.75,-319.49 1333.82,-295.26 1412.97,-280 1461.29,-270.69 1591.96,-253.61 1672.73,-243.39"/>
<polygon fill="midnightblue" stroke="midnightblue" points="1190.56,-330.37 1181.88,-336.44 1192.45,-337.11 1190.56,-330.37"/>
</g>
<!-- Node38&#45;&gt;Node8 -->
<g id="edge57" class="edge">
<title>Node38&#45;&gt;Node8</title>
<path fill="none" stroke="midnightblue" d="M1698.55,-167.99C1434.87,-135.68 1364.16,-162.71 1103.97,-132 1101.11,-131.66 1098.17,-131.27 1095.21,-130.84"/>
<polygon fill="midnightblue" stroke="midnightblue" points="1698.46,-171.51 1708.81,-169.27 1699.32,-164.56 1698.46,-171.51"/>
</g>
<!-- Node38&#45;&gt;Node9 -->
<g id="edge58" class="edge">
<title>Node38&#45;&gt;Node9</title>
<path fill="none" stroke="midnightblue" d="M1698.72,-167.83C1606.6,-151.96 1510.45,-137.5 1455.6,-129.46"/>
<polygon fill="midnightblue" stroke="midnightblue" points="1698.32,-171.31 1708.77,-169.57 1699.51,-164.42 1698.32,-171.31"/>
</g>
<!-- Node38&#45;&gt;Node11 -->
<g id="edge59" class="edge">
<title>Node38&#45;&gt;Node11</title>
<path fill="none" stroke="midnightblue" d="M1698.49,-167.93C1534.01,-145.46 1352.38,-132.73 1254.75,-126.88"/>
<polygon fill="midnightblue" stroke="midnightblue" points="1698.42,-171.45 1708.8,-169.35 1699.38,-164.52 1698.42,-171.45"/>
</g>
<!-- Node40&#45;&gt;Node28 -->
<g id="edge64" class="edge">
<title>Node40&#45;&gt;Node28</title>
<path fill="none" stroke="midnightblue" d="M506.53,-445.95C532.58,-438.86 563.9,-427.94 588.97,-412 665.7,-363.22 732.24,-272.31 752.01,-243.79"/>
<polygon fill="midnightblue" stroke="midnightblue" points="505.62,-442.57 496.82,-448.49 507.38,-449.35 505.62,-442.57"/>
</g>
<!-- Node42&#45;&gt;Node40 -->
<g id="edge67" class="edge">
<title>Node42&#45;&gt;Node40</title>
<path fill="none" stroke="midnightblue" d="M472.29,-494.98C467.88,-485.82 462.72,-475.09 459.18,-467.75"/>
<polygon fill="midnightblue" stroke="midnightblue" points="469.18,-496.59 476.67,-504.08 475.49,-493.55 469.18,-496.59"/>
</g>
<!-- Node43&#45;&gt;Node1 -->
<g id="edge70" class="edge">
<title>Node43&#45;&gt;Node1</title>
<path fill="none" stroke="midnightblue" d="M367.43,-533.69C368.07,-542.64 367.64,-552.93 366.13,-560.08"/>
<polygon fill="midnightblue" stroke="midnightblue" points="370.89,-533.2 366.1,-523.75 363.95,-534.13 370.89,-533.2"/>
</g>
<!-- Node43&#45;&gt;Node20 -->
<g id="edge69" class="edge">
<title>Node43&#45;&gt;Node20</title>
<path fill="none" stroke="midnightblue" d="M356.58,-494.34C351.84,-472.56 344.97,-435.37 344.97,-403 344.97,-403 344.97,-403 344.97,-345 344.97,-307.19 344.97,-262.06 344.97,-243.56"/>
<polygon fill="midnightblue" stroke="midnightblue" points="353.19,-495.24 358.81,-504.22 360.02,-493.7 353.19,-495.24"/>
</g>
<!-- Node43&#45;&gt;Node31 -->
<g id="edge71" class="edge">
<title>Node43&#45;&gt;Node31</title>
<path fill="none" stroke="midnightblue" d="M370.58,-495.39C378.31,-481.87 389.84,-463.04 401.97,-448 420.44,-425.09 571.39,-280.47 610,-243.56"/>
<polygon fill="midnightblue" stroke="midnightblue" points="367.5,-493.72 365.68,-504.16 373.61,-497.14 367.5,-493.72"/>
</g>
<!-- Node43&#45;&gt;Node40 -->
<g id="edge75" class="edge">
<title>Node43&#45;&gt;Node40</title>
<path fill="none" stroke="midnightblue" d="M385.03,-499.18C402.33,-489.24 425.12,-476.15 439.9,-467.65"/>
<polygon fill="midnightblue" stroke="midnightblue" points="383,-496.31 376.07,-504.32 386.49,-502.38 383,-496.31"/>
</g>
<!-- Node44 -->
<g id="node44" class="node">
<title>Node44</title>
<g id="a_node44"><a xlink:href="../../d1/d1f/ShiftRegisterOutRGB_8hpp.html" target="_top" xlink:title=" ">
<polygon fill="white" stroke="black" points="103.97,-448.5 103.97,-467.5 241.97,-467.5 241.97,-448.5 103.97,-448.5"/>
<text text-anchor="middle" x="172.97" y="-455.5" font-family="Helvetica,sans-Serif" font-size="10.00">ShiftRegisterOutRGB.hpp</text>
</a>
</g>
</g>
<!-- Node43&#45;&gt;Node44 -->
<g id="edge72" class="edge">
<title>Node43&#45;&gt;Node44</title>
<path fill="none" stroke="midnightblue" d="M321.17,-501.57C285.7,-491.38 234.6,-476.7 202.62,-467.52"/>
<polygon fill="midnightblue" stroke="midnightblue" points="320.6,-505.05 331.18,-504.44 322.53,-498.32 320.6,-505.05"/>
</g>
<!-- Node44&#45;&gt;Node16 -->
<g id="edge73" class="edge">
<title>Node44&#45;&gt;Node16</title>
<path fill="none" stroke="midnightblue" d="M117.95,-445.96C67.63,-432.28 0.97,-403.49 0.97,-347 0.97,-347 0.97,-347 0.97,-177 0.97,-146.77 -2.9,-130.54 20.97,-112 54.8,-85.72 671.14,-72.08 880.81,-68.19"/>
<polygon fill="midnightblue" stroke="midnightblue" points="117.22,-449.39 127.78,-448.5 118.97,-442.61 117.22,-449.39"/>
</g>
<!-- Node45 -->
<g id="node45" class="node">
<title>Node45</title>
<g id="a_node45"><a xlink:href="../../db/d0b/ShiftRegisterOutRGB_8cpp.html" target="_top" xlink:title=" ">
<polygon fill="white" stroke="black" points="104.47,-392.5 104.47,-411.5 241.47,-411.5 241.47,-392.5 104.47,-392.5"/>
<text text-anchor="middle" x="172.97" y="-399.5" font-family="Helvetica,sans-Serif" font-size="10.00">ShiftRegisterOutRGB.cpp</text>
</a>
</g>
</g>
<!-- Node44&#45;&gt;Node45 -->
<g id="edge74" class="edge">
<title>Node44&#45;&gt;Node45</title>
<path fill="none" stroke="midnightblue" d="M172.97,-437.8C172.97,-428.91 172.97,-418.78 172.97,-411.75"/>
<polygon fill="midnightblue" stroke="midnightblue" points="169.47,-438.08 172.97,-448.08 176.47,-438.08 169.47,-438.08"/>
</g>
</g>
</svg>
