<?xml version="1.0" encoding="UTF-8" standalone="no"?>
<!DOCTYPE svg PUBLIC "-//W3C//DTD SVG 1.1//EN"
 "http://www.w3.org/Graphics/SVG/1.1/DTD/svg11.dtd">
<!-- Generated by graphviz version 2.43.0 (0)
 -->
<!-- Title: Error.hpp Pages: 1 -->
<svg width="1793pt" height="532pt"
 viewBox="0.00 0.00 1793.09 532.00" xmlns="http://www.w3.org/2000/svg" xmlns:xlink="http://www.w3.org/1999/xlink">
<g id="graph0" class="graph" transform="scale(1 1) rotate(0) translate(4 528)">
<title>Error.hpp</title>
<polygon fill="white" stroke="transparent" points="-4,4 -4,-528 1789.09,-528 1789.09,4 -4,4"/>
<!-- Node1 -->
<g id="node1" class="node">
<title>Node1</title>
<g id="a_node1"><a xlink:title=" ">
<polygon fill="#bfbfbf" stroke="black" points="283,-504.5 283,-523.5 343,-523.5 343,-504.5 283,-504.5"/>
<text text-anchor="middle" x="313" y="-511.5" font-family="Helvetica,sans-Serif" font-size="10.00">Error.hpp</text>
</a>
</g>
</g>
<!-- Node2 -->
<g id="node2" class="node">
<title>Node2</title>
<g id="a_node2"><a xlink:href="../../de/d76/Array_8hpp.html" target="_top" xlink:title=" ">
<polygon fill="white" stroke="black" points="458,-448.5 458,-467.5 520,-467.5 520,-448.5 458,-448.5"/>
<text text-anchor="middle" x="489" y="-455.5" font-family="Helvetica,sans-Serif" font-size="10.00">Array.hpp</text>
</a>
</g>
</g>
<!-- Node1&#45;&gt;Node2 -->
<g id="edge1" class="edge">
<title>Node1&#45;&gt;Node2</title>
<path fill="none" stroke="midnightblue" d="M350.69,-501.44C383.87,-491.26 431.43,-476.66 461.24,-467.52"/>
<polygon fill="midnightblue" stroke="midnightblue" points="349.42,-498.16 340.89,-504.44 351.47,-504.86 349.42,-498.16"/>
</g>
<!-- Node27 -->
<g id="node27" class="node">
<title>Node27</title>
<g id="a_node27"><a xlink:href="../../da/d1f/ExtendedIOElement_8cpp.html" target="_top" xlink:title=" ">
<polygon fill="white" stroke="black" points="94,-168.5 94,-187.5 228,-187.5 228,-168.5 94,-168.5"/>
<text text-anchor="middle" x="161" y="-175.5" font-family="Helvetica,sans-Serif" font-size="10.00">ExtendedIOElement.cpp</text>
</a>
</g>
</g>
<!-- Node1&#45;&gt;Node27 -->
<g id="edge59" class="edge">
<title>Node1&#45;&gt;Node27</title>
<path fill="none" stroke="midnightblue" d="M280.01,-500.48C243.27,-484.13 189,-451.74 189,-403 189,-403 189,-403 189,-289 189,-250.18 172.42,-205.97 164.78,-187.65"/>
<polygon fill="midnightblue" stroke="midnightblue" points="278.81,-503.77 289.38,-504.48 281.56,-497.33 278.81,-503.77"/>
</g>
<!-- Node28 -->
<g id="node28" class="node">
<title>Node28</title>
<g id="a_node28"><a xlink:href="../../d6/d3c/ExtendedInputOutput_8cpp.html" target="_top" xlink:title=" ">
<polygon fill="white" stroke="black" points="446,-168.5 446,-187.5 586,-187.5 586,-168.5 446,-168.5"/>
<text text-anchor="middle" x="516" y="-175.5" font-family="Helvetica,sans-Serif" font-size="10.00">ExtendedInputOutput.cpp</text>
</a>
</g>
</g>
<!-- Node1&#45;&gt;Node28 -->
<g id="edge60" class="edge">
<title>Node1&#45;&gt;Node28</title>
<path fill="none" stroke="midnightblue" d="M305.33,-495.11C284.77,-444.06 234.96,-296.65 311,-224 322.08,-213.41 407.15,-197.3 464.16,-187.51"/>
<polygon fill="midnightblue" stroke="midnightblue" points="302.15,-496.59 309.22,-504.48 308.62,-493.91 302.15,-496.59"/>
</g>
<!-- Node36 -->
<g id="node36" class="node">
<title>Node36</title>
<g id="a_node36"><a xlink:href="../../d1/d40/BitArray_8hpp.html" target="_top" xlink:title=" ">
<polygon fill="white" stroke="black" points="0,-168.5 0,-187.5 76,-187.5 76,-168.5 0,-168.5"/>
<text text-anchor="middle" x="38" y="-175.5" font-family="Helvetica,sans-Serif" font-size="10.00">BitArray.hpp</text>
</a>
</g>
</g>
<!-- Node1&#45;&gt;Node36 -->
<g id="edge54" class="edge">
<title>Node1&#45;&gt;Node36</title>
<path fill="none" stroke="midnightblue" d="M272.67,-510.48C209.67,-504.11 95,-481.71 95,-403 95,-403 95,-403 95,-289 95,-247.06 61.93,-205.19 46.17,-187.62"/>
<polygon fill="midnightblue" stroke="midnightblue" points="272.41,-513.97 282.69,-511.4 273.05,-507 272.41,-513.97"/>
</g>
<!-- Node37 -->
<g id="node37" class="node">
<title>Node37</title>
<g id="a_node37"><a xlink:href="../../d6/df4/Exit_8cpp.html" target="_top" xlink:title=" ">
<polygon fill="white" stroke="black" points="341,-448.5 341,-467.5 397,-467.5 397,-448.5 341,-448.5"/>
<text text-anchor="middle" x="369" y="-455.5" font-family="Helvetica,sans-Serif" font-size="10.00">Exit.cpp</text>
</a>
</g>
</g>
<!-- Node1&#45;&gt;Node37 -->
<g id="edge58" class="edge">
<title>Node1&#45;&gt;Node37</title>
<path fill="none" stroke="midnightblue" d="M329.33,-497.25C339.26,-487.67 351.59,-475.79 359.84,-467.83"/>
<polygon fill="midnightblue" stroke="midnightblue" points="326.77,-494.86 322,-504.32 331.63,-499.9 326.77,-494.86"/>
</g>
<!-- Node38 -->
<g id="node38" class="node">
<title>Node38</title>
<g id="a_node38"><a xlink:href="../../d4/d93/Updatable_8hpp.html" target="_top" xlink:title=" ">
<polygon fill="white" stroke="black" points="290,-336.5 290,-355.5 378,-355.5 378,-336.5 290,-336.5"/>
<text text-anchor="middle" x="334" y="-343.5" font-family="Helvetica,sans-Serif" font-size="10.00">Updatable.hpp</text>
</a>
</g>
</g>
<!-- Node1&#45;&gt;Node38 -->
<g id="edge61" class="edge">
<title>Node1&#45;&gt;Node38</title>
<path fill="none" stroke="midnightblue" d="M315.41,-493.93C319.97,-457.92 329.67,-381.23 332.92,-355.57"/>
<polygon fill="midnightblue" stroke="midnightblue" points="311.91,-493.71 314.13,-504.08 318.86,-494.59 311.91,-493.71"/>
</g>
<!-- Node39 -->
<g id="node39" class="node">
<title>Node39</title>
<g id="a_node39"><a xlink:href="../../d4/d1b/vector_8cpp.html" target="_top" xlink:title=" ">
<polygon fill="white" stroke="black" points="538.5,-448.5 538.5,-467.5 605.5,-467.5 605.5,-448.5 538.5,-448.5"/>
<text text-anchor="middle" x="572" y="-455.5" font-family="Helvetica,sans-Serif" font-size="10.00">vector.cpp</text>
</a>
</g>
</g>
<!-- Node1&#45;&gt;Node39 -->
<g id="edge63" class="edge">
<title>Node1&#45;&gt;Node39</title>
<path fill="none" stroke="midnightblue" d="M352.92,-504.69C396.27,-495.67 467.56,-480.83 529,-468 531.99,-467.38 535.09,-466.73 538.2,-466.08"/>
<polygon fill="midnightblue" stroke="midnightblue" points="352.13,-501.28 343.05,-506.75 353.56,-508.14 352.13,-501.28"/>
</g>
<!-- Node3 -->
<g id="node3" class="node">
<title>Node3</title>
<g id="a_node3"><a xlink:href="../../d7/def/AnalogMultiplex_8hpp.html" target="_top" xlink:title=" ">
<polygon fill="white" stroke="black" points="1140.5,-112.5 1140.5,-131.5 1257.5,-131.5 1257.5,-112.5 1140.5,-112.5"/>
<text text-anchor="middle" x="1199" y="-119.5" font-family="Helvetica,sans-Serif" font-size="10.00">AnalogMultiplex.hpp</text>
</a>
</g>
</g>
<!-- Node2&#45;&gt;Node3 -->
<g id="edge2" class="edge">
<title>Node2&#45;&gt;Node3</title>
<path fill="none" stroke="midnightblue" d="M530.29,-448.44C712.48,-429.66 1784,-483.99 1784,-347 1784,-347 1784,-347 1784,-233 1784,-202.9 1788.35,-186.99 1765,-168 1745.52,-152.16 1398.51,-133.03 1257.68,-125.88"/>
<polygon fill="midnightblue" stroke="midnightblue" points="529.75,-444.98 520.26,-449.68 530.61,-451.92 529.75,-444.98"/>
</g>
<!-- Node4 -->
<g id="node4" class="node">
<title>Node4</title>
<g id="a_node4"><a xlink:href="../../d5/db6/ArrayHelpers_8hpp.html" target="_top" xlink:title=" ">
<polygon fill="white" stroke="black" points="355.5,-392.5 355.5,-411.5 456.5,-411.5 456.5,-392.5 355.5,-392.5"/>
<text text-anchor="middle" x="406" y="-399.5" font-family="Helvetica,sans-Serif" font-size="10.00">ArrayHelpers.hpp</text>
</a>
</g>
</g>
<!-- Node2&#45;&gt;Node4 -->
<g id="edge3" class="edge">
<title>Node2&#45;&gt;Node4</title>
<path fill="none" stroke="midnightblue" d="M466.9,-442.62C451.74,-432.76 432.12,-419.99 419.3,-411.65"/>
<polygon fill="midnightblue" stroke="midnightblue" points="465.37,-445.8 475.66,-448.32 469.19,-439.94 465.37,-445.8"/>
</g>
<!-- Node15 -->
<g id="node15" class="node">
<title>Node15</title>
<g id="a_node15"><a xlink:href="../../d4/d35/Hardware-Types_8hpp.html" target="_top" xlink:title=" ">
<polygon fill="white" stroke="black" points="475,-392.5 475,-411.5 591,-411.5 591,-392.5 475,-392.5"/>
<text text-anchor="middle" x="533" y="-399.5" font-family="Helvetica,sans-Serif" font-size="10.00">Hardware&#45;Types.hpp</text>
</a>
</g>
</g>
<!-- Node2&#45;&gt;Node15 -->
<g id="edge19" class="edge">
<title>Node2&#45;&gt;Node15</title>
<path fill="none" stroke="midnightblue" d="M502.73,-440.14C510.4,-430.74 519.63,-419.4 525.87,-411.75"/>
<polygon fill="midnightblue" stroke="midnightblue" points="499.87,-438.12 496.27,-448.08 505.3,-442.54 499.87,-438.12"/>
</g>
<!-- Node35 -->
<g id="node35" class="node">
<title>Node35</title>
<g id="a_node35"><a xlink:href="../../dd/ddf/RegisterEncoders_8hpp.html" target="_top" xlink:title=" ">
<polygon fill="white" stroke="black" points="1208,-280.5 1208,-299.5 1330,-299.5 1330,-280.5 1208,-280.5"/>
<text text-anchor="middle" x="1269" y="-287.5" font-family="Helvetica,sans-Serif" font-size="10.00">RegisterEncoders.hpp</text>
</a>
</g>
</g>
<!-- Node2&#45;&gt;Node35 -->
<g id="edge52" class="edge">
<title>Node2&#45;&gt;Node35</title>
<path fill="none" stroke="midnightblue" d="M530.45,-447.91C803.82,-388.9 1117.68,-322.8 1228.12,-299.58"/>
<polygon fill="midnightblue" stroke="midnightblue" points="529.37,-444.57 520.33,-450.1 530.85,-451.41 529.37,-444.57"/>
</g>
<!-- Node5 -->
<g id="node5" class="node">
<title>Node5</title>
<g id="a_node5"><a xlink:href="../../d2/d05/StaticSizeExtendedIOElement_8hpp.html" target="_top" xlink:title=" ">
<polygon fill="white" stroke="black" points="246,-168.5 246,-187.5 428,-187.5 428,-168.5 246,-168.5"/>
<text text-anchor="middle" x="337" y="-175.5" font-family="Helvetica,sans-Serif" font-size="10.00">StaticSizeExtendedIOElement.hpp</text>
</a>
</g>
</g>
<!-- Node4&#45;&gt;Node5 -->
<g id="edge4" class="edge">
<title>Node4&#45;&gt;Node5</title>
<path fill="none" stroke="midnightblue" d="M402.62,-382.19C399.71,-368.78 394.74,-350.61 387,-336 362.16,-289.14 328.95,-293.91 311,-244 303.68,-223.64 319.11,-200.17 329.19,-187.76"/>
<polygon fill="midnightblue" stroke="midnightblue" points="399.22,-383.03 404.59,-392.16 406.08,-381.67 399.22,-383.03"/>
</g>
<!-- Node5&#45;&gt;Node3 -->
<g id="edge5" class="edge">
<title>Node5&#45;&gt;Node3</title>
<path fill="none" stroke="midnightblue" d="M438.1,-167.95C745.46,-146.49 824.98,-159.06 1128,-132 1131.96,-131.65 1136.04,-131.24 1140.15,-130.8"/>
<polygon fill="midnightblue" stroke="midnightblue" points="437.74,-164.47 428.01,-168.66 438.23,-171.45 437.74,-164.47"/>
</g>
<!-- Node6 -->
<g id="node6" class="node">
<title>Node6</title>
<g id="a_node6"><a xlink:href="../../d2/d25/MAX7219_8hpp.html" target="_top" xlink:title=" ">
<polygon fill="white" stroke="black" points="347,-112.5 347,-131.5 431,-131.5 431,-112.5 347,-112.5"/>
<text text-anchor="middle" x="389" y="-119.5" font-family="Helvetica,sans-Serif" font-size="10.00">MAX7219.hpp</text>
</a>
</g>
</g>
<!-- Node5&#45;&gt;Node6 -->
<g id="edge6" class="edge">
<title>Node5&#45;&gt;Node6</title>
<path fill="none" stroke="midnightblue" d="M352.68,-160.72C361.84,-151.2 373.05,-139.56 380.57,-131.75"/>
<polygon fill="midnightblue" stroke="midnightblue" points="350,-158.45 345.59,-168.08 355.04,-163.31 350,-158.45"/>
</g>
<!-- Node7 -->
<g id="node7" class="node">
<title>Node7</title>
<g id="a_node7"><a xlink:href="../../d7/dca/MCP23017_8hpp.html" target="_top" xlink:title=" ">
<polygon fill="white" stroke="black" points="240.5,-112.5 240.5,-131.5 329.5,-131.5 329.5,-112.5 240.5,-112.5"/>
<text text-anchor="middle" x="285" y="-119.5" font-family="Helvetica,sans-Serif" font-size="10.00">MCP23017.hpp</text>
</a>
</g>
</g>
<!-- Node5&#45;&gt;Node7 -->
<g id="edge7" class="edge">
<title>Node5&#45;&gt;Node7</title>
<path fill="none" stroke="midnightblue" d="M321.32,-160.72C312.16,-151.2 300.95,-139.56 293.43,-131.75"/>
<polygon fill="midnightblue" stroke="midnightblue" points="318.96,-163.31 328.41,-168.08 324,-158.45 318.96,-163.31"/>
</g>
<!-- Node9 -->
<g id="node9" class="node">
<title>Node9</title>
<g id="a_node9"><a xlink:href="../../d8/d93/ShiftRegisterOutBase_8hpp.html" target="_top" xlink:title=" ">
<polygon fill="white" stroke="black" points="977.5,-112.5 977.5,-131.5 1118.5,-131.5 1118.5,-112.5 977.5,-112.5"/>
<text text-anchor="middle" x="1048" y="-119.5" font-family="Helvetica,sans-Serif" font-size="10.00">ShiftRegisterOutBase.hpp</text>
</a>
</g>
</g>
<!-- Node5&#45;&gt;Node9 -->
<g id="edge10" class="edge">
<title>Node5&#45;&gt;Node9</title>
<path fill="none" stroke="midnightblue" d="M438.22,-167.91C640.23,-151.46 865.5,-135.56 977.41,-127.83"/>
<polygon fill="midnightblue" stroke="midnightblue" points="437.69,-164.44 428.01,-168.75 438.26,-171.42 437.69,-164.44"/>
</g>
<!-- Node8 -->
<g id="node8" class="node">
<title>Node8</title>
<g id="a_node8"><a xlink:href="../../d2/d94/MCP23017_8ipp.html" target="_top" xlink:title=" ">
<polygon fill="white" stroke="black" points="242,-56.5 242,-75.5 328,-75.5 328,-56.5 242,-56.5"/>
<text text-anchor="middle" x="285" y="-63.5" font-family="Helvetica,sans-Serif" font-size="10.00">MCP23017.ipp</text>
</a>
</g>
</g>
<!-- Node7&#45;&gt;Node8 -->
<g id="edge8" class="edge">
<title>Node7&#45;&gt;Node8</title>
<path fill="none" stroke="midnightblue" d="M278.53,-102.1C277.9,-93.14 278.34,-82.86 279.87,-75.75"/>
<polygon fill="midnightblue" stroke="midnightblue" points="275.07,-102.62 279.83,-112.08 282.01,-101.71 275.07,-102.62"/>
</g>
<!-- Node8&#45;&gt;Node7 -->
<g id="edge9" class="edge">
<title>Node8&#45;&gt;Node7</title>
<path fill="none" stroke="midnightblue" d="M291.46,-85.69C292.11,-94.64 291.68,-104.93 290.17,-112.08"/>
<polygon fill="midnightblue" stroke="midnightblue" points="294.92,-85.2 290.13,-75.75 287.98,-86.13 294.92,-85.2"/>
</g>
<!-- Node10 -->
<g id="node10" class="node">
<title>Node10</title>
<g id="a_node10"><a xlink:href="../../d7/d88/SPIShiftRegisterOut_8hpp.html" target="_top" xlink:title=" ">
<polygon fill="white" stroke="black" points="836,-56.5 836,-75.5 968,-75.5 968,-56.5 836,-56.5"/>
<text text-anchor="middle" x="902" y="-63.5" font-family="Helvetica,sans-Serif" font-size="10.00">SPIShiftRegisterOut.hpp</text>
</a>
</g>
</g>
<!-- Node9&#45;&gt;Node10 -->
<g id="edge11" class="edge">
<title>Node9&#45;&gt;Node10</title>
<path fill="none" stroke="midnightblue" d="M1015.3,-108.91C987.85,-98.75 949.33,-84.51 925.03,-75.52"/>
<polygon fill="midnightblue" stroke="midnightblue" points="1014.27,-112.26 1024.87,-112.44 1016.7,-105.69 1014.27,-112.26"/>
</g>
<!-- Node12 -->
<g id="node12" class="node">
<title>Node12</title>
<g id="a_node12"><a xlink:href="../../d0/db4/ShiftRegisterOut_8hpp.html" target="_top" xlink:title=" ">
<polygon fill="white" stroke="black" points="989.5,-56.5 989.5,-75.5 1106.5,-75.5 1106.5,-56.5 989.5,-56.5"/>
<text text-anchor="middle" x="1048" y="-63.5" font-family="Helvetica,sans-Serif" font-size="10.00">ShiftRegisterOut.hpp</text>
</a>
</g>
</g>
<!-- Node9&#45;&gt;Node12 -->
<g id="edge14" class="edge">
<title>Node9&#45;&gt;Node12</title>
<path fill="none" stroke="midnightblue" d="M1048,-101.8C1048,-92.91 1048,-82.78 1048,-75.75"/>
<polygon fill="midnightblue" stroke="midnightblue" points="1044.5,-102.08 1048,-112.08 1051.5,-102.08 1044.5,-102.08"/>
</g>
<!-- Node14 -->
<g id="node14" class="node">
<title>Node14</title>
<g id="a_node14"><a xlink:href="../../d5/d47/ShiftRegisterOutBase_8ipp.html" target="_top" xlink:title=" ">
<polygon fill="white" stroke="black" points="1125,-56.5 1125,-75.5 1263,-75.5 1263,-56.5 1125,-56.5"/>
<text text-anchor="middle" x="1194" y="-63.5" font-family="Helvetica,sans-Serif" font-size="10.00">ShiftRegisterOutBase.ipp</text>
</a>
</g>
</g>
<!-- Node9&#45;&gt;Node14 -->
<g id="edge17" class="edge">
<title>Node9&#45;&gt;Node14</title>
<path fill="none" stroke="midnightblue" d="M1075.65,-108.64C1101.55,-98.5 1139.84,-84.43 1165.89,-75.52"/>
<polygon fill="midnightblue" stroke="midnightblue" points="1074.05,-105.5 1066.05,-112.44 1076.63,-112.01 1074.05,-105.5"/>
</g>
<!-- Node11 -->
<g id="node11" class="node">
<title>Node11</title>
<g id="a_node11"><a xlink:href="../../da/d45/SPIShiftRegisterOut_8ipp.html" target="_top" xlink:title=" ">
<polygon fill="white" stroke="black" points="837.5,-0.5 837.5,-19.5 966.5,-19.5 966.5,-0.5 837.5,-0.5"/>
<text text-anchor="middle" x="902" y="-7.5" font-family="Helvetica,sans-Serif" font-size="10.00">SPIShiftRegisterOut.ipp</text>
</a>
</g>
</g>
<!-- Node10&#45;&gt;Node11 -->
<g id="edge12" class="edge">
<title>Node10&#45;&gt;Node11</title>
<path fill="none" stroke="midnightblue" d="M895.53,-46.1C894.9,-37.14 895.34,-26.86 896.87,-19.75"/>
<polygon fill="midnightblue" stroke="midnightblue" points="892.07,-46.62 896.83,-56.08 899.01,-45.71 892.07,-46.62"/>
</g>
<!-- Node11&#45;&gt;Node10 -->
<g id="edge13" class="edge">
<title>Node11&#45;&gt;Node10</title>
<path fill="none" stroke="midnightblue" d="M908.46,-29.69C909.11,-38.64 908.68,-48.93 907.17,-56.08"/>
<polygon fill="midnightblue" stroke="midnightblue" points="911.92,-29.2 907.13,-19.75 904.98,-30.13 911.92,-29.2"/>
</g>
<!-- Node13 -->
<g id="node13" class="node">
<title>Node13</title>
<g id="a_node13"><a xlink:href="../../de/d95/ShiftRegisterOut_8ipp.html" target="_top" xlink:title=" ">
<polygon fill="white" stroke="black" points="991,-0.5 991,-19.5 1105,-19.5 1105,-0.5 991,-0.5"/>
<text text-anchor="middle" x="1048" y="-7.5" font-family="Helvetica,sans-Serif" font-size="10.00">ShiftRegisterOut.ipp</text>
</a>
</g>
</g>
<!-- Node12&#45;&gt;Node13 -->
<g id="edge15" class="edge">
<title>Node12&#45;&gt;Node13</title>
<path fill="none" stroke="midnightblue" d="M1041.53,-46.1C1040.9,-37.14 1041.34,-26.86 1042.87,-19.75"/>
<polygon fill="midnightblue" stroke="midnightblue" points="1038.07,-46.62 1042.83,-56.08 1045.01,-45.71 1038.07,-46.62"/>
</g>
<!-- Node13&#45;&gt;Node12 -->
<g id="edge16" class="edge">
<title>Node13&#45;&gt;Node12</title>
<path fill="none" stroke="midnightblue" d="M1054.46,-29.69C1055.11,-38.64 1054.68,-48.93 1053.17,-56.08"/>
<polygon fill="midnightblue" stroke="midnightblue" points="1057.92,-29.2 1053.13,-19.75 1050.98,-30.13 1057.92,-29.2"/>
</g>
<!-- Node14&#45;&gt;Node9 -->
<g id="edge18" class="edge">
<title>Node14&#45;&gt;Node9</title>
<path fill="none" stroke="midnightblue" d="M1166.47,-79.32C1140.61,-89.44 1102.32,-103.52 1076.22,-112.44"/>
<polygon fill="midnightblue" stroke="midnightblue" points="1168.05,-82.46 1176.05,-75.52 1165.47,-75.95 1168.05,-82.46"/>
</g>
<!-- Node16 -->
<g id="node16" class="node">
<title>Node16</title>
<g id="a_node16"><a xlink:href="../../d2/d3c/Arduino-Hardware-Types_8hpp.html" target="_top" xlink:title=" ">
<polygon fill="white" stroke="black" points="682.5,-336.5 682.5,-355.5 839.5,-355.5 839.5,-336.5 682.5,-336.5"/>
<text text-anchor="middle" x="761" y="-343.5" font-family="Helvetica,sans-Serif" font-size="10.00">Arduino&#45;Hardware&#45;Types.hpp</text>
</a>
</g>
</g>
<!-- Node15&#45;&gt;Node16 -->
<g id="edge20" class="edge">
<title>Node15&#45;&gt;Node16</title>
<path fill="none" stroke="midnightblue" d="M579.07,-390.09C622.15,-379.89 685.59,-364.86 725.04,-355.52"/>
<polygon fill="midnightblue" stroke="midnightblue" points="578.05,-386.73 569.13,-392.44 579.66,-393.54 578.05,-386.73"/>
</g>
<!-- Node25 -->
<g id="node25" class="node">
<title>Node25</title>
<g id="a_node25"><a xlink:href="../../d9/d4b/ButtonMatrix_8hpp.html" target="_top" xlink:title=" ">
<polygon fill="white" stroke="black" points="830.5,-168.5 830.5,-187.5 931.5,-187.5 931.5,-168.5 830.5,-168.5"/>
<text text-anchor="middle" x="881" y="-175.5" font-family="Helvetica,sans-Serif" font-size="10.00">ButtonMatrix.hpp</text>
</a>
</g>
</g>
<!-- Node15&#45;&gt;Node25 -->
<g id="edge49" class="edge">
<title>Node15&#45;&gt;Node25</title>
<path fill="none" stroke="midnightblue" d="M521.72,-383.72C500.54,-348.88 460.43,-269.66 501,-224 506.43,-217.89 727.97,-194.59 830.23,-184.13"/>
<polygon fill="midnightblue" stroke="midnightblue" points="518.83,-385.7 527.11,-392.3 524.76,-381.97 518.83,-385.7"/>
</g>
<!-- Node26 -->
<g id="node26" class="node">
<title>Node26</title>
<g id="a_node26"><a xlink:href="../../d4/d57/ExtendedIOElement_8hpp.html" target="_top" xlink:title=" ">
<polygon fill="white" stroke="black" points="320,-224.5 320,-243.5 454,-243.5 454,-224.5 320,-224.5"/>
<text text-anchor="middle" x="387" y="-231.5" font-family="Helvetica,sans-Serif" font-size="10.00">ExtendedIOElement.hpp</text>
</a>
</g>
</g>
<!-- Node15&#45;&gt;Node26 -->
<g id="edge50" class="edge">
<title>Node15&#45;&gt;Node26</title>
<path fill="none" stroke="midnightblue" d="M508.48,-387.1C495.54,-379.05 479.93,-368.12 468,-356 432,-319.43 402.16,-264.77 391.35,-243.71"/>
<polygon fill="midnightblue" stroke="midnightblue" points="506.96,-390.27 517.33,-392.43 510.57,-384.28 506.96,-390.27"/>
</g>
<!-- Node29 -->
<g id="node29" class="node">
<title>Node29</title>
<g id="a_node29"><a xlink:href="../../d8/df3/FilteredAnalog_8hpp.html" target="_top" xlink:title=" ">
<polygon fill="white" stroke="black" points="510,-224.5 510,-243.5 618,-243.5 618,-224.5 510,-224.5"/>
<text text-anchor="middle" x="564" y="-231.5" font-family="Helvetica,sans-Serif" font-size="10.00">FilteredAnalog.hpp</text>
</a>
</g>
</g>
<!-- Node15&#45;&gt;Node29 -->
<g id="edge51" class="edge">
<title>Node15&#45;&gt;Node29</title>
<path fill="none" stroke="midnightblue" d="M536.56,-381.93C543.29,-345.92 557.61,-269.23 562.4,-243.57"/>
<polygon fill="midnightblue" stroke="midnightblue" points="533.06,-381.6 534.67,-392.08 539.94,-382.89 533.06,-381.6"/>
</g>
<!-- Node17 -->
<g id="node17" class="node">
<title>Node17</title>
<g id="a_node17"><a xlink:href="../../dd/ddf/ExtendedInputOutput_8hpp.html" target="_top" xlink:title=" ">
<polygon fill="white" stroke="black" points="810.5,-280.5 810.5,-299.5 951.5,-299.5 951.5,-280.5 810.5,-280.5"/>
<text text-anchor="middle" x="881" y="-287.5" font-family="Helvetica,sans-Serif" font-size="10.00">ExtendedInputOutput.hpp</text>
</a>
</g>
</g>
<!-- Node16&#45;&gt;Node17 -->
<g id="edge21" class="edge">
<title>Node16&#45;&gt;Node17</title>
<path fill="none" stroke="midnightblue" d="M789.37,-332.23C811.82,-322.13 842.54,-308.31 862.07,-299.52"/>
<polygon fill="midnightblue" stroke="midnightblue" points="787.7,-329.15 780.01,-336.44 790.57,-335.53 787.7,-329.15"/>
</g>
<!-- Node17&#45;&gt;Node3 -->
<g id="edge22" class="edge">
<title>Node17&#45;&gt;Node3</title>
<path fill="none" stroke="midnightblue" d="M961.75,-283.22C1011.27,-277.53 1075.1,-266.27 1128,-244 1167.67,-227.3 1187.24,-226.23 1207,-188 1216.5,-169.62 1208.45,-144.52 1203,-131.55"/>
<polygon fill="midnightblue" stroke="midnightblue" points="961.29,-279.75 951.73,-284.32 962.05,-286.71 961.29,-279.75"/>
</g>
<!-- Node17&#45;&gt;Node7 -->
<g id="edge43" class="edge">
<title>Node17&#45;&gt;Node7</title>
<path fill="none" stroke="midnightblue" d="M815.91,-278.48C781.34,-271.44 738.72,-260.4 703,-244 649.66,-219.51 649.59,-189.56 595,-168 487.73,-125.63 451.98,-149.66 338,-132 335.23,-131.57 332.39,-131.12 329.52,-130.66"/>
<polygon fill="midnightblue" stroke="midnightblue" points="815.41,-281.95 825.9,-280.45 816.77,-275.09 815.41,-281.95"/>
</g>
<!-- Node17&#45;&gt;Node9 -->
<g id="edge47" class="edge">
<title>Node17&#45;&gt;Node9</title>
<path fill="none" stroke="midnightblue" d="M941.17,-278.63C1023.39,-263.01 1163.82,-230.68 1191,-188 1212.02,-154.99 1164.54,-138.57 1118.76,-130.5"/>
<polygon fill="midnightblue" stroke="midnightblue" points="940.38,-275.21 931.19,-280.49 941.67,-282.09 940.38,-275.21"/>
</g>
<!-- Node17&#45;&gt;Node11 -->
<g id="edge45" class="edge">
<title>Node17&#45;&gt;Node11</title>
<path fill="none" stroke="midnightblue" d="M856.82,-275.06C845.15,-267.25 831.81,-256.55 823,-244 805.57,-219.15 802,-209.36 802,-179 802,-179 802,-179 802,-121 802,-90.05 807.09,-79.7 827,-56 841.16,-39.14 863.34,-26.94 879.92,-19.54"/>
<polygon fill="midnightblue" stroke="midnightblue" points="854.99,-278.05 865.31,-280.45 858.74,-272.14 854.99,-278.05"/>
</g>
<!-- Node17&#45;&gt;Node13 -->
<g id="edge46" class="edge">
<title>Node17&#45;&gt;Node13</title>
<path fill="none" stroke="midnightblue" d="M961.83,-285.38C1089.62,-277.43 1324,-252.78 1324,-179 1324,-179 1324,-179 1324,-121 1324,-84 1303.59,-75.25 1272,-56 1221.19,-25.05 1153.02,-14.92 1105.27,-11.83"/>
<polygon fill="midnightblue" stroke="midnightblue" points="961.46,-281.9 951.68,-285.99 961.88,-288.88 961.46,-281.9"/>
</g>
<!-- Node17&#45;&gt;Node14 -->
<g id="edge48" class="edge">
<title>Node17&#45;&gt;Node14</title>
<path fill="none" stroke="midnightblue" d="M962.08,-281.63C1033.12,-274.18 1130.3,-261.3 1165,-244 1225.25,-213.96 1244.99,-195.63 1267,-132 1269.91,-123.6 1271.33,-119.76 1267,-112 1257.06,-94.19 1236.85,-82.56 1220.21,-75.59"/>
<polygon fill="midnightblue" stroke="midnightblue" points="961.38,-278.18 951.79,-282.69 962.1,-285.14 961.38,-278.18"/>
</g>
<!-- Node18 -->
<g id="node18" class="node">
<title>Node18</title>
<g id="a_node18"><a xlink:href="../../d4/db3/Button_8hpp.html" target="_top" xlink:title=" ">
<polygon fill="white" stroke="black" points="1352,-224.5 1352,-243.5 1422,-243.5 1422,-224.5 1352,-224.5"/>
<text text-anchor="middle" x="1387" y="-231.5" font-family="Helvetica,sans-Serif" font-size="10.00">Button.hpp</text>
</a>
</g>
</g>
<!-- Node17&#45;&gt;Node18 -->
<g id="edge23" class="edge">
<title>Node17&#45;&gt;Node18</title>
<path fill="none" stroke="midnightblue" d="M961.7,-283.1C1053.21,-275.94 1206.74,-262.48 1338,-244 1342.54,-243.36 1347.3,-242.6 1351.99,-241.8"/>
<polygon fill="midnightblue" stroke="midnightblue" points="961.38,-279.62 951.68,-283.88 961.92,-286.6 961.38,-279.62"/>
</g>
<!-- Node24 -->
<g id="node24" class="node">
<title>Node24</title>
<g id="a_node24"><a xlink:href="../../d5/d41/ButtonMatrix_8ipp.html" target="_top" xlink:title=" ">
<polygon fill="white" stroke="black" points="832,-224.5 832,-243.5 930,-243.5 930,-224.5 832,-224.5"/>
<text text-anchor="middle" x="881" y="-231.5" font-family="Helvetica,sans-Serif" font-size="10.00">ButtonMatrix.ipp</text>
</a>
</g>
</g>
<!-- Node17&#45;&gt;Node24 -->
<g id="edge29" class="edge">
<title>Node17&#45;&gt;Node24</title>
<path fill="none" stroke="midnightblue" d="M881,-269.8C881,-260.91 881,-250.78 881,-243.75"/>
<polygon fill="midnightblue" stroke="midnightblue" points="877.5,-270.08 881,-280.08 884.5,-270.08 877.5,-270.08"/>
</g>
<!-- Node17&#45;&gt;Node26 -->
<g id="edge32" class="edge">
<title>Node17&#45;&gt;Node26</title>
<path fill="none" stroke="midnightblue" d="M800.49,-280.2C704.05,-269.66 544.26,-252.19 454.16,-242.34"/>
<polygon fill="midnightblue" stroke="midnightblue" points="800.16,-283.68 810.48,-281.29 800.92,-276.73 800.16,-283.68"/>
</g>
<!-- Node17&#45;&gt;Node28 -->
<g id="edge36" class="edge">
<title>Node17&#45;&gt;Node28</title>
<path fill="none" stroke="midnightblue" d="M813.99,-278.69C771.99,-271.25 717.09,-259.75 670,-244 650.01,-237.32 646.33,-232.41 627,-224 596.49,-210.73 560.76,-196.47 538.25,-187.64"/>
<polygon fill="midnightblue" stroke="midnightblue" points="813.65,-282.18 824.1,-280.44 814.85,-275.28 813.65,-282.18"/>
</g>
<!-- Node17&#45;&gt;Node29 -->
<g id="edge37" class="edge">
<title>Node17&#45;&gt;Node29</title>
<path fill="none" stroke="midnightblue" d="M820.7,-278.73C760.79,-268.52 670.01,-253.06 613.99,-243.52"/>
<polygon fill="midnightblue" stroke="midnightblue" points="820.32,-282.21 830.77,-280.44 821.5,-275.31 820.32,-282.21"/>
</g>
<!-- Node30 -->
<g id="node30" class="node">
<title>Node30</title>
<g id="a_node30"><a xlink:href="../../d9/d4f/LEDs_8hpp.html" target="_top" xlink:title=" ">
<polygon fill="white" stroke="black" points="712,-224.5 712,-243.5 774,-243.5 774,-224.5 712,-224.5"/>
<text text-anchor="middle" x="743" y="-231.5" font-family="Helvetica,sans-Serif" font-size="10.00">LEDs.hpp</text>
</a>
</g>
</g>
<!-- Node17&#45;&gt;Node30 -->
<g id="edge38" class="edge">
<title>Node17&#45;&gt;Node30</title>
<path fill="none" stroke="midnightblue" d="M849.75,-276.77C823.83,-266.63 787.64,-252.47 764.76,-243.52"/>
<polygon fill="midnightblue" stroke="midnightblue" points="848.55,-280.06 859.13,-280.44 851.1,-273.54 848.55,-280.06"/>
</g>
<!-- Node32 -->
<g id="node32" class="node">
<title>Node32</title>
<g id="a_node32"><a xlink:href="../../d7/d13/MAX7219__Base_8hpp.html" target="_top" xlink:title=" ">
<polygon fill="white" stroke="black" points="948.5,-224.5 948.5,-243.5 1061.5,-243.5 1061.5,-224.5 948.5,-224.5"/>
<text text-anchor="middle" x="1005" y="-231.5" font-family="Helvetica,sans-Serif" font-size="10.00">MAX7219_Base.hpp</text>
</a>
</g>
</g>
<!-- Node17&#45;&gt;Node32 -->
<g id="edge40" class="edge">
<title>Node17&#45;&gt;Node32</title>
<path fill="none" stroke="midnightblue" d="M910.01,-276.37C933.23,-266.26 965.16,-252.35 985.44,-243.52"/>
<polygon fill="midnightblue" stroke="midnightblue" points="908.42,-273.24 900.65,-280.44 911.21,-279.66 908.42,-273.24"/>
</g>
<!-- Node34 -->
<g id="node34" class="node">
<title>Node34</title>
<g id="a_node34"><a xlink:href="../../d8/dd2/MCP23017Encoders_8hpp.html" target="_top" xlink:title=" ">
<polygon fill="white" stroke="black" points="1440,-224.5 1440,-243.5 1574,-243.5 1574,-224.5 1440,-224.5"/>
<text text-anchor="middle" x="1507" y="-231.5" font-family="Helvetica,sans-Serif" font-size="10.00">MCP23017Encoders.hpp</text>
</a>
</g>
</g>
<!-- Node17&#45;&gt;Node34 -->
<g id="edge44" class="edge">
<title>Node17&#45;&gt;Node34</title>
<path fill="none" stroke="midnightblue" d="M961.94,-283.3C1069.27,-275.53 1264.54,-260.66 1431,-244 1433.91,-243.71 1436.88,-243.4 1439.88,-243.08"/>
<polygon fill="midnightblue" stroke="midnightblue" points="961.56,-279.82 951.83,-284.03 962.06,-286.8 961.56,-279.82"/>
</g>
<!-- Node19 -->
<g id="node19" class="node">
<title>Node19</title>
<g id="a_node19"><a xlink:href="../../de/dd1/Button_8cpp.html" target="_top" xlink:title=" ">
<polygon fill="white" stroke="black" points="1352.5,-168.5 1352.5,-187.5 1421.5,-187.5 1421.5,-168.5 1352.5,-168.5"/>
<text text-anchor="middle" x="1387" y="-175.5" font-family="Helvetica,sans-Serif" font-size="10.00">Button.cpp</text>
</a>
</g>
</g>
<!-- Node18&#45;&gt;Node19 -->
<g id="edge24" class="edge">
<title>Node18&#45;&gt;Node19</title>
<path fill="none" stroke="midnightblue" d="M1387,-213.8C1387,-204.91 1387,-194.78 1387,-187.75"/>
<polygon fill="midnightblue" stroke="midnightblue" points="1383.5,-214.08 1387,-224.08 1390.5,-214.08 1383.5,-214.08"/>
</g>
<!-- Node20 -->
<g id="node20" class="node">
<title>Node20</title>
<g id="a_node20"><a xlink:href="../../d5/d04/IncrementButton_8hpp.html" target="_top" xlink:title=" ">
<polygon fill="white" stroke="black" points="1636.5,-168.5 1636.5,-187.5 1755.5,-187.5 1755.5,-168.5 1636.5,-168.5"/>
<text text-anchor="middle" x="1696" y="-175.5" font-family="Helvetica,sans-Serif" font-size="10.00">IncrementButton.hpp</text>
</a>
</g>
</g>
<!-- Node18&#45;&gt;Node20 -->
<g id="edge25" class="edge">
<title>Node18&#45;&gt;Node20</title>
<path fill="none" stroke="midnightblue" d="M1432.16,-223.83C1511.07,-209.16 1591.22,-195.85 1642.61,-187.53"/>
<polygon fill="midnightblue" stroke="midnightblue" points="1431.23,-220.44 1422.04,-225.72 1432.52,-227.33 1431.23,-220.44"/>
</g>
<!-- Node22 -->
<g id="node22" class="node">
<title>Node22</title>
<g id="a_node22"><a xlink:href="../../df/df5/IncrementDecrementButtons_8hpp.html" target="_top" xlink:title=" ">
<polygon fill="white" stroke="black" points="1439.5,-168.5 1439.5,-187.5 1618.5,-187.5 1618.5,-168.5 1439.5,-168.5"/>
<text text-anchor="middle" x="1529" y="-175.5" font-family="Helvetica,sans-Serif" font-size="10.00">IncrementDecrementButtons.hpp</text>
</a>
</g>
</g>
<!-- Node18&#45;&gt;Node22 -->
<g id="edge27" class="edge">
<title>Node18&#45;&gt;Node22</title>
<path fill="none" stroke="midnightblue" d="M1419.16,-220.77C1445.83,-210.63 1483.07,-196.47 1506.6,-187.52"/>
<polygon fill="midnightblue" stroke="midnightblue" points="1417.6,-217.62 1409.5,-224.44 1420.09,-224.16 1417.6,-217.62"/>
</g>
<!-- Node21 -->
<g id="node21" class="node">
<title>Node21</title>
<g id="a_node21"><a xlink:href="../../db/d9d/IncrementButton_8cpp.html" target="_top" xlink:title=" ">
<polygon fill="white" stroke="black" points="1636.5,-112.5 1636.5,-131.5 1755.5,-131.5 1755.5,-112.5 1636.5,-112.5"/>
<text text-anchor="middle" x="1696" y="-119.5" font-family="Helvetica,sans-Serif" font-size="10.00">IncrementButton.cpp</text>
</a>
</g>
</g>
<!-- Node20&#45;&gt;Node21 -->
<g id="edge26" class="edge">
<title>Node20&#45;&gt;Node21</title>
<path fill="none" stroke="midnightblue" d="M1696,-157.8C1696,-148.91 1696,-138.78 1696,-131.75"/>
<polygon fill="midnightblue" stroke="midnightblue" points="1692.5,-158.08 1696,-168.08 1699.5,-158.08 1692.5,-158.08"/>
</g>
<!-- Node23 -->
<g id="node23" class="node">
<title>Node23</title>
<g id="a_node23"><a xlink:href="../../da/d66/IncrementDecrementButtons_8cpp.html" target="_top" xlink:title=" ">
<polygon fill="white" stroke="black" points="1440,-112.5 1440,-131.5 1618,-131.5 1618,-112.5 1440,-112.5"/>
<text text-anchor="middle" x="1529" y="-119.5" font-family="Helvetica,sans-Serif" font-size="10.00">IncrementDecrementButtons.cpp</text>
</a>
</g>
</g>
<!-- Node22&#45;&gt;Node23 -->
<g id="edge28" class="edge">
<title>Node22&#45;&gt;Node23</title>
<path fill="none" stroke="midnightblue" d="M1529,-157.8C1529,-148.91 1529,-138.78 1529,-131.75"/>
<polygon fill="midnightblue" stroke="midnightblue" points="1525.5,-158.08 1529,-168.08 1532.5,-158.08 1525.5,-158.08"/>
</g>
<!-- Node24&#45;&gt;Node25 -->
<g id="edge30" class="edge">
<title>Node24&#45;&gt;Node25</title>
<path fill="none" stroke="midnightblue" d="M874.53,-214.1C873.9,-205.14 874.34,-194.86 875.87,-187.75"/>
<polygon fill="midnightblue" stroke="midnightblue" points="871.07,-214.62 875.83,-224.08 878.01,-213.71 871.07,-214.62"/>
</g>
<!-- Node25&#45;&gt;Node24 -->
<g id="edge31" class="edge">
<title>Node25&#45;&gt;Node24</title>
<path fill="none" stroke="midnightblue" d="M887.46,-197.69C888.11,-206.64 887.68,-216.93 886.17,-224.08"/>
<polygon fill="midnightblue" stroke="midnightblue" points="890.92,-197.2 886.13,-187.75 883.98,-198.13 890.92,-197.2"/>
</g>
<!-- Node26&#45;&gt;Node5 -->
<g id="edge35" class="edge">
<title>Node26&#45;&gt;Node5</title>
<path fill="none" stroke="midnightblue" d="M371.92,-216.72C363.11,-207.2 352.33,-195.56 345.1,-187.75"/>
<polygon fill="midnightblue" stroke="midnightblue" points="369.38,-219.12 378.74,-224.08 374.52,-214.37 369.38,-219.12"/>
</g>
<!-- Node26&#45;&gt;Node27 -->
<g id="edge33" class="edge">
<title>Node26&#45;&gt;Node27</title>
<path fill="none" stroke="midnightblue" d="M341.33,-222.09C298.64,-211.89 235.75,-196.86 196.64,-187.52"/>
<polygon fill="midnightblue" stroke="midnightblue" points="340.65,-225.52 351.19,-224.44 342.28,-218.72 340.65,-225.52"/>
</g>
<!-- Node26&#45;&gt;Node28 -->
<g id="edge34" class="edge">
<title>Node26&#45;&gt;Node28</title>
<path fill="none" stroke="midnightblue" d="M416.85,-220.5C441.04,-210.38 474.46,-196.39 495.66,-187.52"/>
<polygon fill="midnightblue" stroke="midnightblue" points="415.31,-217.35 407.44,-224.44 418.02,-223.81 415.31,-217.35"/>
</g>
<!-- Node31 -->
<g id="node31" class="node">
<title>Node31</title>
<g id="a_node31"><a xlink:href="../../d6/d3a/DotBarDisplayLEDs_8hpp.html" target="_top" xlink:title=" ">
<polygon fill="white" stroke="black" points="642,-168.5 642,-187.5 774,-187.5 774,-168.5 642,-168.5"/>
<text text-anchor="middle" x="708" y="-175.5" font-family="Helvetica,sans-Serif" font-size="10.00">DotBarDisplayLEDs.hpp</text>
</a>
</g>
</g>
<!-- Node30&#45;&gt;Node31 -->
<g id="edge39" class="edge">
<title>Node30&#45;&gt;Node31</title>
<path fill="none" stroke="midnightblue" d="M731.7,-215.57C725.68,-206.27 718.53,-195.25 713.67,-187.75"/>
<polygon fill="midnightblue" stroke="midnightblue" points="728.84,-217.6 737.22,-224.08 734.72,-213.79 728.84,-217.6"/>
</g>
<!-- Node32&#45;&gt;Node6 -->
<g id="edge41" class="edge">
<title>Node32&#45;&gt;Node6</title>
<path fill="none" stroke="midnightblue" d="M993.83,-216.13C982.53,-200.63 963.55,-178.54 941,-168 850.63,-125.76 544.1,-122.43 431.2,-122.69"/>
<polygon fill="midnightblue" stroke="midnightblue" points="990.97,-218.15 999.56,-224.35 996.71,-214.14 990.97,-218.15"/>
</g>
<!-- Node33 -->
<g id="node33" class="node">
<title>Node33</title>
<g id="a_node33"><a xlink:href="../../d5/d0c/MAX7219SevenSegmentDisplay_8hpp.html" target="_top" xlink:title=" ">
<polygon fill="white" stroke="black" points="988.5,-168.5 988.5,-187.5 1181.5,-187.5 1181.5,-168.5 988.5,-168.5"/>
<text text-anchor="middle" x="1085" y="-175.5" font-family="Helvetica,sans-Serif" font-size="10.00">MAX7219SevenSegmentDisplay.hpp</text>
</a>
</g>
</g>
<!-- Node32&#45;&gt;Node33 -->
<g id="edge42" class="edge">
<title>Node32&#45;&gt;Node33</title>
<path fill="none" stroke="midnightblue" d="M1026.3,-218.62C1040.92,-208.76 1059.83,-195.99 1072.18,-187.65"/>
<polygon fill="midnightblue" stroke="midnightblue" points="1024.18,-215.83 1017.85,-224.32 1028.1,-221.63 1024.18,-215.83"/>
</g>
<!-- Node35&#45;&gt;Node34 -->
<g id="edge53" class="edge">
<title>Node35&#45;&gt;Node34</title>
<path fill="none" stroke="midnightblue" d="M1316.52,-278.22C1361.5,-268.01 1428.1,-252.9 1469.46,-243.52"/>
<polygon fill="midnightblue" stroke="midnightblue" points="1315.69,-274.82 1306.71,-280.44 1317.24,-281.64 1315.69,-274.82"/>
</g>
<!-- Node36&#45;&gt;Node6 -->
<g id="edge55" class="edge">
<title>Node36&#45;&gt;Node6</title>
<path fill="none" stroke="midnightblue" d="M86.24,-167.86C198.73,-149.33 229.01,-149.37 338,-132 340.93,-131.53 343.95,-131.04 346.99,-130.53"/>
<polygon fill="midnightblue" stroke="midnightblue" points="85.48,-164.44 76.19,-169.53 86.63,-171.34 85.48,-164.44"/>
</g>
<!-- Node36&#45;&gt;Node7 -->
<g id="edge56" class="edge">
<title>Node36&#45;&gt;Node7</title>
<path fill="none" stroke="midnightblue" d="M85.93,-166.52C132.63,-156.31 202.74,-140.98 246.09,-131.51"/>
<polygon fill="midnightblue" stroke="midnightblue" points="85.07,-163.13 76.05,-168.68 86.57,-169.96 85.07,-163.13"/>
</g>
<!-- Node36&#45;&gt;Node9 -->
<g id="edge57" class="edge">
<title>Node36&#45;&gt;Node9</title>
<path fill="none" stroke="midnightblue" d="M86.16,-168.04C425.01,-128.53 819.26,-123.3 977.34,-122.86"/>
<polygon fill="midnightblue" stroke="midnightblue" points="85.67,-164.58 76.15,-169.22 86.49,-171.53 85.67,-164.58"/>
</g>
<!-- Node38&#45;&gt;Node26 -->
<g id="edge62" class="edge">
<title>Node38&#45;&gt;Node26</title>
<path fill="none" stroke="midnightblue" d="M342.52,-327.32C354.06,-303.37 374.21,-261.55 382.86,-243.59"/>
<polygon fill="midnightblue" stroke="midnightblue" points="339.35,-325.84 338.16,-336.37 345.65,-328.88 339.35,-325.84"/>
</g>
</g>
</svg>
