<?xml version="1.0" encoding="UTF-8" standalone="no"?>
<!DOCTYPE svg PUBLIC "-//W3C//DTD SVG 1.1//EN"
 "http://www.w3.org/Graphics/SVG/1.1/DTD/svg11.dtd">
<!-- Generated by graphviz version 2.43.0 (0)
 -->
<!-- Title: Array.hpp Pages: 1 -->
<svg width="1946pt" height="476pt"
 viewBox="0.00 0.00 1945.50 476.00" xmlns="http://www.w3.org/2000/svg" xmlns:xlink="http://www.w3.org/1999/xlink">
<g id="graph0" class="graph" transform="scale(1 1) rotate(0) translate(4 472)">
<title>Array.hpp</title>
<polygon fill="white" stroke="transparent" points="-4,4 -4,-472 1941.5,-472 1941.5,4 -4,4"/>
<!-- Node1 -->
<g id="node1" class="node">
<title>Node1</title>
<g id="a_node1"><a xlink:title=" ">
<polygon fill="#bfbfbf" stroke="black" points="369.5,-448.5 369.5,-467.5 431.5,-467.5 431.5,-448.5 369.5,-448.5"/>
<text text-anchor="middle" x="400.5" y="-455.5" font-family="Helvetica,sans-Serif" font-size="10.00">Array.hpp</text>
</a>
</g>
</g>
<!-- Node2 -->
<g id="node2" class="node">
<title>Node2</title>
<g id="a_node2"><a xlink:href="../../d7/def/AnalogMultiplex_8hpp.html" target="_top" xlink:title=" ">
<polygon fill="white" stroke="black" points="0,-112.5 0,-131.5 117,-131.5 117,-112.5 0,-112.5"/>
<text text-anchor="middle" x="58.5" y="-119.5" font-family="Helvetica,sans-Serif" font-size="10.00">AnalogMultiplex.hpp</text>
</a>
</g>
</g>
<!-- Node1&#45;&gt;Node2 -->
<g id="edge1" class="edge">
<title>Node1&#45;&gt;Node2</title>
<path fill="none" stroke="midnightblue" d="M359.23,-453.85C260.82,-445.19 20.5,-416.91 20.5,-347 20.5,-347 20.5,-347 20.5,-233 20.5,-193.4 42.77,-149.96 53.22,-131.77"/>
<polygon fill="midnightblue" stroke="midnightblue" points="359.14,-457.35 369.4,-454.71 359.74,-450.38 359.14,-457.35"/>
</g>
<!-- Node3 -->
<g id="node3" class="node">
<title>Node3</title>
<g id="a_node3"><a xlink:href="../../d5/db6/ArrayHelpers_8hpp.html" target="_top" xlink:title=" ">
<polygon fill="white" stroke="black" points="172,-280.5 172,-299.5 273,-299.5 273,-280.5 172,-280.5"/>
<text text-anchor="middle" x="222.5" y="-287.5" font-family="Helvetica,sans-Serif" font-size="10.00">ArrayHelpers.hpp</text>
</a>
</g>
</g>
<!-- Node1&#45;&gt;Node3 -->
<g id="edge2" class="edge">
<title>Node1&#45;&gt;Node3</title>
<path fill="none" stroke="midnightblue" d="M383.44,-441.09C346.47,-406.62 260.04,-326.01 231.69,-299.57"/>
<polygon fill="midnightblue" stroke="midnightblue" points="381.23,-443.81 390.93,-448.08 386,-438.7 381.23,-443.81"/>
</g>
<!-- Node14 -->
<g id="node14" class="node">
<title>Node14</title>
<g id="a_node14"><a xlink:href="../../d4/d35/Hardware-Types_8hpp.html" target="_top" xlink:title=" ">
<polygon fill="white" stroke="black" points="388.5,-392.5 388.5,-411.5 504.5,-411.5 504.5,-392.5 388.5,-392.5"/>
<text text-anchor="middle" x="446.5" y="-399.5" font-family="Helvetica,sans-Serif" font-size="10.00">Hardware&#45;Types.hpp</text>
</a>
</g>
</g>
<!-- Node1&#45;&gt;Node14 -->
<g id="edge18" class="edge">
<title>Node1&#45;&gt;Node14</title>
<path fill="none" stroke="midnightblue" d="M414.61,-440.43C422.68,-430.97 432.46,-419.48 439.05,-411.75"/>
<polygon fill="midnightblue" stroke="midnightblue" points="411.92,-438.2 408.1,-448.08 417.25,-442.74 411.92,-438.2"/>
</g>
<!-- Node34 -->
<g id="node34" class="node">
<title>Node34</title>
<g id="a_node34"><a xlink:href="../../dd/ddf/RegisterEncoders_8hpp.html" target="_top" xlink:title=" ">
<polygon fill="white" stroke="black" points="1721.5,-336.5 1721.5,-355.5 1843.5,-355.5 1843.5,-336.5 1721.5,-336.5"/>
<text text-anchor="middle" x="1782.5" y="-343.5" font-family="Helvetica,sans-Serif" font-size="10.00">RegisterEncoders.hpp</text>
</a>
</g>
</g>
<!-- Node1&#45;&gt;Node34 -->
<g id="edge51" class="edge">
<title>Node1&#45;&gt;Node34</title>
<path fill="none" stroke="midnightblue" d="M442.3,-453.72C602,-441.17 1188.99,-394.98 1672.5,-356 1688.35,-354.72 1705.49,-353.33 1721.41,-352.02"/>
<polygon fill="midnightblue" stroke="midnightblue" points="441.67,-450.26 431.97,-454.53 442.21,-457.24 441.67,-450.26"/>
</g>
<!-- Node4 -->
<g id="node4" class="node">
<title>Node4</title>
<g id="a_node4"><a xlink:href="../../d2/d05/StaticSizeExtendedIOElement_8hpp.html" target="_top" xlink:title=" ">
<polygon fill="white" stroke="black" points="86.5,-168.5 86.5,-187.5 268.5,-187.5 268.5,-168.5 86.5,-168.5"/>
<text text-anchor="middle" x="177.5" y="-175.5" font-family="Helvetica,sans-Serif" font-size="10.00">StaticSizeExtendedIOElement.hpp</text>
</a>
</g>
</g>
<!-- Node3&#45;&gt;Node4 -->
<g id="edge3" class="edge">
<title>Node3&#45;&gt;Node4</title>
<path fill="none" stroke="midnightblue" d="M211.24,-271.77C206.24,-263.59 200.58,-253.54 196.5,-244 188.18,-224.54 182.17,-200.31 179.33,-187.64"/>
<polygon fill="midnightblue" stroke="midnightblue" points="208.37,-273.78 216.67,-280.36 214.29,-270.04 208.37,-273.78"/>
</g>
<!-- Node4&#45;&gt;Node2 -->
<g id="edge4" class="edge">
<title>Node4&#45;&gt;Node2</title>
<path fill="none" stroke="midnightblue" d="M149.36,-164.23C127.1,-154.13 96.64,-140.31 77.27,-131.52"/>
<polygon fill="midnightblue" stroke="midnightblue" points="148.09,-167.5 158.64,-168.44 150.98,-161.12 148.09,-167.5"/>
</g>
<!-- Node5 -->
<g id="node5" class="node">
<title>Node5</title>
<g id="a_node5"><a xlink:href="../../d2/d25/MAX7219_8hpp.html" target="_top" xlink:title=" ">
<polygon fill="white" stroke="black" points="459.5,-112.5 459.5,-131.5 543.5,-131.5 543.5,-112.5 459.5,-112.5"/>
<text text-anchor="middle" x="501.5" y="-119.5" font-family="Helvetica,sans-Serif" font-size="10.00">MAX7219.hpp</text>
</a>
</g>
</g>
<!-- Node4&#45;&gt;Node5 -->
<g id="edge5" class="edge">
<title>Node4&#45;&gt;Node5</title>
<path fill="none" stroke="midnightblue" d="M238.87,-166.77C303.33,-156.03 402.98,-139.42 459.18,-130.05"/>
<polygon fill="midnightblue" stroke="midnightblue" points="238.13,-163.35 228.84,-168.44 239.28,-170.25 238.13,-163.35"/>
</g>
<!-- Node6 -->
<g id="node6" class="node">
<title>Node6</title>
<g id="a_node6"><a xlink:href="../../d7/dca/MCP23017_8hpp.html" target="_top" xlink:title=" ">
<polygon fill="white" stroke="black" points="208,-112.5 208,-131.5 297,-131.5 297,-112.5 208,-112.5"/>
<text text-anchor="middle" x="252.5" y="-119.5" font-family="Helvetica,sans-Serif" font-size="10.00">MCP23017.hpp</text>
</a>
</g>
</g>
<!-- Node4&#45;&gt;Node6 -->
<g id="edge6" class="edge">
<title>Node4&#45;&gt;Node6</title>
<path fill="none" stroke="midnightblue" d="M197.81,-162.38C211.36,-152.62 228.74,-140.11 240.23,-131.83"/>
<polygon fill="midnightblue" stroke="midnightblue" points="195.62,-159.64 189.55,-168.32 199.71,-165.32 195.62,-159.64"/>
</g>
<!-- Node8 -->
<g id="node8" class="node">
<title>Node8</title>
<g id="a_node8"><a xlink:href="../../d8/d93/ShiftRegisterOutBase_8hpp.html" target="_top" xlink:title=" ">
<polygon fill="white" stroke="black" points="1448,-112.5 1448,-131.5 1589,-131.5 1589,-112.5 1448,-112.5"/>
<text text-anchor="middle" x="1518.5" y="-119.5" font-family="Helvetica,sans-Serif" font-size="10.00">ShiftRegisterOutBase.hpp</text>
</a>
</g>
</g>
<!-- Node4&#45;&gt;Node8 -->
<g id="edge9" class="edge">
<title>Node4&#45;&gt;Node8</title>
<path fill="none" stroke="midnightblue" d="M278.49,-167.97C730.18,-139.76 1259.49,-127.82 1447.77,-124.24"/>
<polygon fill="midnightblue" stroke="midnightblue" points="278.26,-164.48 268.5,-168.6 278.7,-171.47 278.26,-164.48"/>
</g>
<!-- Node7 -->
<g id="node7" class="node">
<title>Node7</title>
<g id="a_node7"><a xlink:href="../../d2/d94/MCP23017_8ipp.html" target="_top" xlink:title=" ">
<polygon fill="white" stroke="black" points="209.5,-56.5 209.5,-75.5 295.5,-75.5 295.5,-56.5 209.5,-56.5"/>
<text text-anchor="middle" x="252.5" y="-63.5" font-family="Helvetica,sans-Serif" font-size="10.00">MCP23017.ipp</text>
</a>
</g>
</g>
<!-- Node6&#45;&gt;Node7 -->
<g id="edge7" class="edge">
<title>Node6&#45;&gt;Node7</title>
<path fill="none" stroke="midnightblue" d="M246.03,-102.1C245.4,-93.14 245.84,-82.86 247.37,-75.75"/>
<polygon fill="midnightblue" stroke="midnightblue" points="242.57,-102.62 247.33,-112.08 249.51,-101.71 242.57,-102.62"/>
</g>
<!-- Node7&#45;&gt;Node6 -->
<g id="edge8" class="edge">
<title>Node7&#45;&gt;Node6</title>
<path fill="none" stroke="midnightblue" d="M258.96,-85.69C259.61,-94.64 259.18,-104.93 257.67,-112.08"/>
<polygon fill="midnightblue" stroke="midnightblue" points="262.42,-85.2 257.63,-75.75 255.48,-86.13 262.42,-85.2"/>
</g>
<!-- Node9 -->
<g id="node9" class="node">
<title>Node9</title>
<g id="a_node9"><a xlink:href="../../d7/d88/SPIShiftRegisterOut_8hpp.html" target="_top" xlink:title=" ">
<polygon fill="white" stroke="black" points="1323.5,-56.5 1323.5,-75.5 1455.5,-75.5 1455.5,-56.5 1323.5,-56.5"/>
<text text-anchor="middle" x="1389.5" y="-63.5" font-family="Helvetica,sans-Serif" font-size="10.00">SPIShiftRegisterOut.hpp</text>
</a>
</g>
</g>
<!-- Node8&#45;&gt;Node9 -->
<g id="edge10" class="edge">
<title>Node8&#45;&gt;Node9</title>
<path fill="none" stroke="midnightblue" d="M1488.65,-108.5C1464.46,-98.38 1431.04,-84.39 1409.84,-75.52"/>
<polygon fill="midnightblue" stroke="midnightblue" points="1487.48,-111.81 1498.06,-112.44 1490.19,-105.35 1487.48,-111.81"/>
</g>
<!-- Node11 -->
<g id="node11" class="node">
<title>Node11</title>
<g id="a_node11"><a xlink:href="../../d0/db4/ShiftRegisterOut_8hpp.html" target="_top" xlink:title=" ">
<polygon fill="white" stroke="black" points="1474,-56.5 1474,-75.5 1591,-75.5 1591,-56.5 1474,-56.5"/>
<text text-anchor="middle" x="1532.5" y="-63.5" font-family="Helvetica,sans-Serif" font-size="10.00">ShiftRegisterOut.hpp</text>
</a>
</g>
</g>
<!-- Node8&#45;&gt;Node11 -->
<g id="edge13" class="edge">
<title>Node8&#45;&gt;Node11</title>
<path fill="none" stroke="midnightblue" d="M1523.32,-102.4C1525.67,-93.36 1528.37,-82.94 1530.23,-75.75"/>
<polygon fill="midnightblue" stroke="midnightblue" points="1519.93,-101.52 1520.81,-112.08 1526.71,-103.28 1519.93,-101.52"/>
</g>
<!-- Node13 -->
<g id="node13" class="node">
<title>Node13</title>
<g id="a_node13"><a xlink:href="../../d5/d47/ShiftRegisterOutBase_8ipp.html" target="_top" xlink:title=" ">
<polygon fill="white" stroke="black" points="1609.5,-56.5 1609.5,-75.5 1747.5,-75.5 1747.5,-56.5 1609.5,-56.5"/>
<text text-anchor="middle" x="1678.5" y="-63.5" font-family="Helvetica,sans-Serif" font-size="10.00">ShiftRegisterOutBase.ipp</text>
</a>
</g>
</g>
<!-- Node8&#45;&gt;Node13 -->
<g id="edge16" class="edge">
<title>Node8&#45;&gt;Node13</title>
<path fill="none" stroke="midnightblue" d="M1548.22,-109.04C1576.76,-98.88 1619.44,-84.55 1648.19,-75.52"/>
<polygon fill="midnightblue" stroke="midnightblue" points="1546.99,-105.76 1538.76,-112.44 1549.36,-112.35 1546.99,-105.76"/>
</g>
<!-- Node10 -->
<g id="node10" class="node">
<title>Node10</title>
<g id="a_node10"><a xlink:href="../../da/d45/SPIShiftRegisterOut_8ipp.html" target="_top" xlink:title=" ">
<polygon fill="white" stroke="black" points="1325,-0.5 1325,-19.5 1454,-19.5 1454,-0.5 1325,-0.5"/>
<text text-anchor="middle" x="1389.5" y="-7.5" font-family="Helvetica,sans-Serif" font-size="10.00">SPIShiftRegisterOut.ipp</text>
</a>
</g>
</g>
<!-- Node9&#45;&gt;Node10 -->
<g id="edge11" class="edge">
<title>Node9&#45;&gt;Node10</title>
<path fill="none" stroke="midnightblue" d="M1383.03,-46.1C1382.4,-37.14 1382.84,-26.86 1384.37,-19.75"/>
<polygon fill="midnightblue" stroke="midnightblue" points="1379.57,-46.62 1384.33,-56.08 1386.51,-45.71 1379.57,-46.62"/>
</g>
<!-- Node10&#45;&gt;Node9 -->
<g id="edge12" class="edge">
<title>Node10&#45;&gt;Node9</title>
<path fill="none" stroke="midnightblue" d="M1395.96,-29.69C1396.61,-38.64 1396.18,-48.93 1394.67,-56.08"/>
<polygon fill="midnightblue" stroke="midnightblue" points="1399.42,-29.2 1394.63,-19.75 1392.48,-30.13 1399.42,-29.2"/>
</g>
<!-- Node12 -->
<g id="node12" class="node">
<title>Node12</title>
<g id="a_node12"><a xlink:href="../../de/d95/ShiftRegisterOut_8ipp.html" target="_top" xlink:title=" ">
<polygon fill="white" stroke="black" points="1475.5,-0.5 1475.5,-19.5 1589.5,-19.5 1589.5,-0.5 1475.5,-0.5"/>
<text text-anchor="middle" x="1532.5" y="-7.5" font-family="Helvetica,sans-Serif" font-size="10.00">ShiftRegisterOut.ipp</text>
</a>
</g>
</g>
<!-- Node11&#45;&gt;Node12 -->
<g id="edge14" class="edge">
<title>Node11&#45;&gt;Node12</title>
<path fill="none" stroke="midnightblue" d="M1526.03,-46.1C1525.4,-37.14 1525.84,-26.86 1527.37,-19.75"/>
<polygon fill="midnightblue" stroke="midnightblue" points="1522.57,-46.62 1527.33,-56.08 1529.51,-45.71 1522.57,-46.62"/>
</g>
<!-- Node12&#45;&gt;Node11 -->
<g id="edge15" class="edge">
<title>Node12&#45;&gt;Node11</title>
<path fill="none" stroke="midnightblue" d="M1538.96,-29.69C1539.61,-38.64 1539.18,-48.93 1537.67,-56.08"/>
<polygon fill="midnightblue" stroke="midnightblue" points="1542.42,-29.2 1537.63,-19.75 1535.48,-30.13 1542.42,-29.2"/>
</g>
<!-- Node13&#45;&gt;Node8 -->
<g id="edge17" class="edge">
<title>Node13&#45;&gt;Node8</title>
<path fill="none" stroke="midnightblue" d="M1648.9,-78.92C1620.4,-89.06 1577.73,-103.4 1548.94,-112.44"/>
<polygon fill="midnightblue" stroke="midnightblue" points="1650.12,-82.2 1658.35,-75.52 1647.75,-75.61 1650.12,-82.2"/>
</g>
<!-- Node15 -->
<g id="node15" class="node">
<title>Node15</title>
<g id="a_node15"><a xlink:href="../../d2/d3c/Arduino-Hardware-Types_8hpp.html" target="_top" xlink:title=" ">
<polygon fill="white" stroke="black" points="718,-336.5 718,-355.5 875,-355.5 875,-336.5 718,-336.5"/>
<text text-anchor="middle" x="796.5" y="-343.5" font-family="Helvetica,sans-Serif" font-size="10.00">Arduino&#45;Hardware&#45;Types.hpp</text>
</a>
</g>
</g>
<!-- Node14&#45;&gt;Node15 -->
<g id="edge19" class="edge">
<title>Node14&#45;&gt;Node15</title>
<path fill="none" stroke="midnightblue" d="M511.86,-390.92C577.98,-380.71 679.07,-365.12 741.3,-355.52"/>
<polygon fill="midnightblue" stroke="midnightblue" points="511.31,-387.46 501.96,-392.44 512.38,-394.38 511.31,-387.46"/>
</g>
<!-- Node24 -->
<g id="node24" class="node">
<title>Node24</title>
<g id="a_node24"><a xlink:href="../../d9/d4b/ButtonMatrix_8hpp.html" target="_top" xlink:title=" ">
<polygon fill="white" stroke="black" points="1533,-168.5 1533,-187.5 1634,-187.5 1634,-168.5 1533,-168.5"/>
<text text-anchor="middle" x="1583.5" y="-175.5" font-family="Helvetica,sans-Serif" font-size="10.00">ButtonMatrix.hpp</text>
</a>
</g>
</g>
<!-- Node14&#45;&gt;Node24 -->
<g id="edge48" class="edge">
<title>Node14&#45;&gt;Node24</title>
<path fill="none" stroke="midnightblue" d="M514.88,-394.93C601.15,-387.06 754.04,-372.37 884.5,-356 1221.09,-313.77 1417.93,-500.87 1639.5,-244 1656.92,-223.81 1622.6,-200.08 1600.38,-187.62"/>
<polygon fill="midnightblue" stroke="midnightblue" points="514.33,-391.47 504.69,-395.86 514.97,-398.44 514.33,-391.47"/>
</g>
<!-- Node25 -->
<g id="node25" class="node">
<title>Node25</title>
<g id="a_node25"><a xlink:href="../../d4/d57/ExtendedIOElement_8hpp.html" target="_top" xlink:title=" ">
<polygon fill="white" stroke="black" points="379.5,-224.5 379.5,-243.5 513.5,-243.5 513.5,-224.5 379.5,-224.5"/>
<text text-anchor="middle" x="446.5" y="-231.5" font-family="Helvetica,sans-Serif" font-size="10.00">ExtendedIOElement.hpp</text>
</a>
</g>
</g>
<!-- Node14&#45;&gt;Node25 -->
<g id="edge49" class="edge">
<title>Node14&#45;&gt;Node25</title>
<path fill="none" stroke="midnightblue" d="M446.5,-381.93C446.5,-345.92 446.5,-269.23 446.5,-243.57"/>
<polygon fill="midnightblue" stroke="midnightblue" points="443,-382.08 446.5,-392.08 450,-382.08 443,-382.08"/>
</g>
<!-- Node28 -->
<g id="node28" class="node">
<title>Node28</title>
<g id="a_node28"><a xlink:href="../../d8/df3/FilteredAnalog_8hpp.html" target="_top" xlink:title=" ">
<polygon fill="white" stroke="black" points="205.5,-224.5 205.5,-243.5 313.5,-243.5 313.5,-224.5 205.5,-224.5"/>
<text text-anchor="middle" x="259.5" y="-231.5" font-family="Helvetica,sans-Serif" font-size="10.00">FilteredAnalog.hpp</text>
</a>
</g>
</g>
<!-- Node14&#45;&gt;Node28 -->
<g id="edge50" class="edge">
<title>Node14&#45;&gt;Node28</title>
<path fill="none" stroke="midnightblue" d="M428.89,-385.37C390.26,-351.07 299.1,-270.16 269.19,-243.61"/>
<polygon fill="midnightblue" stroke="midnightblue" points="426.91,-388.29 436.71,-392.31 431.55,-383.05 426.91,-388.29"/>
</g>
<!-- Node16 -->
<g id="node16" class="node">
<title>Node16</title>
<g id="a_node16"><a xlink:href="../../dd/ddf/ExtendedInputOutput_8hpp.html" target="_top" xlink:title=" ">
<polygon fill="white" stroke="black" points="984,-280.5 984,-299.5 1125,-299.5 1125,-280.5 984,-280.5"/>
<text text-anchor="middle" x="1054.5" y="-287.5" font-family="Helvetica,sans-Serif" font-size="10.00">ExtendedInputOutput.hpp</text>
</a>
</g>
</g>
<!-- Node15&#45;&gt;Node16 -->
<g id="edge20" class="edge">
<title>Node15&#45;&gt;Node16</title>
<path fill="none" stroke="midnightblue" d="M847.4,-334.35C896.16,-324.14 968.79,-308.94 1013.81,-299.52"/>
<polygon fill="midnightblue" stroke="midnightblue" points="846.45,-330.97 837.38,-336.44 847.89,-337.82 846.45,-330.97"/>
</g>
<!-- Node16&#45;&gt;Node2 -->
<g id="edge21" class="edge">
<title>Node16&#45;&gt;Node2</title>
<path fill="none" stroke="midnightblue" d="M973.45,-287C817.89,-282.61 482.91,-270.35 370.5,-244 348,-238.73 344.77,-230.17 322.5,-224 216.44,-194.61 160.52,-260.25 77.5,-188 61,-173.64 58.45,-145.84 58.28,-131.7"/>
<polygon fill="midnightblue" stroke="midnightblue" points="973.79,-290.51 983.88,-287.29 973.99,-283.51 973.79,-290.51"/>
</g>
<!-- Node16&#45;&gt;Node6 -->
<g id="edge42" class="edge">
<title>Node16&#45;&gt;Node6</title>
<path fill="none" stroke="midnightblue" d="M1005.22,-278.28C964.49,-269.34 905.16,-256.15 853.5,-244 752.35,-220.2 723.83,-224.4 626.5,-188 608.25,-181.18 606.09,-173.83 587.5,-168 486.85,-136.46 362.38,-127.02 297.17,-124.2"/>
<polygon fill="midnightblue" stroke="midnightblue" points="1004.64,-281.73 1015.16,-280.46 1006.14,-274.9 1004.64,-281.73"/>
</g>
<!-- Node16&#45;&gt;Node8 -->
<g id="edge46" class="edge">
<title>Node16&#45;&gt;Node8</title>
<path fill="none" stroke="midnightblue" d="M1135.53,-285.19C1251.66,-279.03 1454.42,-265.35 1480.5,-244 1515.6,-215.27 1518.82,-154.43 1518.73,-131.76"/>
<polygon fill="midnightblue" stroke="midnightblue" points="1135.06,-281.71 1125.25,-285.73 1135.42,-288.7 1135.06,-281.71"/>
</g>
<!-- Node16&#45;&gt;Node10 -->
<g id="edge44" class="edge">
<title>Node16&#45;&gt;Node10</title>
<path fill="none" stroke="midnightblue" d="M1135.21,-280.63C1239.72,-267.84 1412.66,-239.33 1447.5,-188 1452.49,-180.65 1451.63,-175.87 1447.5,-168 1414.13,-104.34 1347.87,-139.66 1314.5,-76 1301.06,-50.36 1337.56,-30.38 1364.24,-19.67"/>
<polygon fill="midnightblue" stroke="midnightblue" points="1134.52,-277.19 1125,-281.86 1135.35,-284.14 1134.52,-277.19"/>
</g>
<!-- Node16&#45;&gt;Node12 -->
<g id="edge45" class="edge">
<title>Node16&#45;&gt;Node12</title>
<path fill="none" stroke="midnightblue" d="M1135.6,-287.41C1277.64,-283.89 1565.48,-273.29 1661.5,-244 1717.29,-226.98 1775.5,-237.32 1775.5,-179 1775.5,-179 1775.5,-179 1775.5,-121 1775.5,-90.9 1778.68,-76.35 1756.5,-56 1732.6,-34.08 1647.86,-21.8 1589.74,-15.79"/>
<polygon fill="midnightblue" stroke="midnightblue" points="1135.13,-283.92 1125.21,-287.66 1135.29,-290.92 1135.13,-283.92"/>
</g>
<!-- Node16&#45;&gt;Node13 -->
<g id="edge47" class="edge">
<title>Node16&#45;&gt;Node13</title>
<path fill="none" stroke="midnightblue" d="M1135.31,-288.04C1286.94,-285.5 1602.29,-276.33 1639.5,-244 1690.57,-199.63 1683.37,-104.94 1679.75,-75.75"/>
<polygon fill="midnightblue" stroke="midnightblue" points="1135.06,-284.55 1125.12,-288.21 1135.17,-291.55 1135.06,-284.55"/>
</g>
<!-- Node17 -->
<g id="node17" class="node">
<title>Node17</title>
<g id="a_node17"><a xlink:href="../../d4/db3/Button_8hpp.html" target="_top" xlink:title=" ">
<polygon fill="white" stroke="black" points="862.5,-224.5 862.5,-243.5 932.5,-243.5 932.5,-224.5 862.5,-224.5"/>
<text text-anchor="middle" x="897.5" y="-231.5" font-family="Helvetica,sans-Serif" font-size="10.00">Button.hpp</text>
</a>
</g>
</g>
<!-- Node16&#45;&gt;Node17 -->
<g id="edge22" class="edge">
<title>Node16&#45;&gt;Node17</title>
<path fill="none" stroke="midnightblue" d="M1020.11,-277.17C990.55,-267 948.63,-252.59 922.26,-243.52"/>
<polygon fill="midnightblue" stroke="midnightblue" points="1019.03,-280.5 1029.62,-280.44 1021.3,-273.88 1019.03,-280.5"/>
</g>
<!-- Node23 -->
<g id="node23" class="node">
<title>Node23</title>
<g id="a_node23"><a xlink:href="../../d5/d41/ButtonMatrix_8ipp.html" target="_top" xlink:title=" ">
<polygon fill="white" stroke="black" points="1532.5,-224.5 1532.5,-243.5 1630.5,-243.5 1630.5,-224.5 1532.5,-224.5"/>
<text text-anchor="middle" x="1581.5" y="-231.5" font-family="Helvetica,sans-Serif" font-size="10.00">ButtonMatrix.ipp</text>
</a>
</g>
</g>
<!-- Node16&#45;&gt;Node23 -->
<g id="edge28" class="edge">
<title>Node16&#45;&gt;Node23</title>
<path fill="none" stroke="midnightblue" d="M1135.51,-282.26C1228.2,-274.29 1384.5,-260.06 1518.5,-244 1523,-243.46 1527.67,-242.86 1532.35,-242.24"/>
<polygon fill="midnightblue" stroke="midnightblue" points="1135.02,-278.79 1125.36,-283.13 1135.62,-285.76 1135.02,-278.79"/>
</g>
<!-- Node16&#45;&gt;Node25 -->
<g id="edge31" class="edge">
<title>Node16&#45;&gt;Node25</title>
<path fill="none" stroke="midnightblue" d="M973.61,-281.91C873.2,-273.1 696.7,-257.56 545.5,-244 535.19,-243.08 524.27,-242.09 513.6,-241.12"/>
<polygon fill="midnightblue" stroke="midnightblue" points="973.41,-285.41 983.68,-282.79 974.02,-278.43 973.41,-285.41"/>
</g>
<!-- Node27 -->
<g id="node27" class="node">
<title>Node27</title>
<g id="a_node27"><a xlink:href="../../d6/d3c/ExtendedInputOutput_8cpp.html" target="_top" xlink:title=" ">
<polygon fill="white" stroke="black" points="438.5,-168.5 438.5,-187.5 578.5,-187.5 578.5,-168.5 438.5,-168.5"/>
<text text-anchor="middle" x="508.5" y="-175.5" font-family="Helvetica,sans-Serif" font-size="10.00">ExtendedInputOutput.cpp</text>
</a>
</g>
</g>
<!-- Node16&#45;&gt;Node27 -->
<g id="edge35" class="edge">
<title>Node16&#45;&gt;Node27</title>
<path fill="none" stroke="midnightblue" d="M973.55,-286.5C860,-282.08 659.76,-270.69 592.5,-244 560.28,-231.21 530.08,-202.15 516.31,-187.62"/>
<polygon fill="midnightblue" stroke="midnightblue" points="973.46,-290 983.59,-286.88 973.73,-283 973.46,-290"/>
</g>
<!-- Node16&#45;&gt;Node28 -->
<g id="edge36" class="edge">
<title>Node16&#45;&gt;Node28</title>
<path fill="none" stroke="midnightblue" d="M973.73,-285.84C839.39,-280.18 561.65,-266.71 327.5,-244 323,-243.56 318.33,-243.06 313.65,-242.51"/>
<polygon fill="midnightblue" stroke="midnightblue" points="973.8,-289.35 983.93,-286.27 974.09,-282.35 973.8,-289.35"/>
</g>
<!-- Node29 -->
<g id="node29" class="node">
<title>Node29</title>
<g id="a_node29"><a xlink:href="../../d9/d4f/LEDs_8hpp.html" target="_top" xlink:title=" ">
<polygon fill="white" stroke="black" points="1235.5,-224.5 1235.5,-243.5 1297.5,-243.5 1297.5,-224.5 1235.5,-224.5"/>
<text text-anchor="middle" x="1266.5" y="-231.5" font-family="Helvetica,sans-Serif" font-size="10.00">LEDs.hpp</text>
</a>
</g>
</g>
<!-- Node16&#45;&gt;Node29 -->
<g id="edge37" class="edge">
<title>Node16&#45;&gt;Node29</title>
<path fill="none" stroke="midnightblue" d="M1097.8,-277.97C1138.73,-267.54 1199.15,-252.16 1235.48,-242.9"/>
<polygon fill="midnightblue" stroke="midnightblue" points="1096.92,-274.58 1088.09,-280.44 1098.65,-281.37 1096.92,-274.58"/>
</g>
<!-- Node31 -->
<g id="node31" class="node">
<title>Node31</title>
<g id="a_node31"><a xlink:href="../../d7/d13/MAX7219__Base_8hpp.html" target="_top" xlink:title=" ">
<polygon fill="white" stroke="black" points="998,-224.5 998,-243.5 1111,-243.5 1111,-224.5 998,-224.5"/>
<text text-anchor="middle" x="1054.5" y="-231.5" font-family="Helvetica,sans-Serif" font-size="10.00">MAX7219_Base.hpp</text>
</a>
</g>
</g>
<!-- Node16&#45;&gt;Node31 -->
<g id="edge39" class="edge">
<title>Node16&#45;&gt;Node31</title>
<path fill="none" stroke="midnightblue" d="M1054.5,-269.8C1054.5,-260.91 1054.5,-250.78 1054.5,-243.75"/>
<polygon fill="midnightblue" stroke="midnightblue" points="1051,-270.08 1054.5,-280.08 1058,-270.08 1051,-270.08"/>
</g>
<!-- Node33 -->
<g id="node33" class="node">
<title>Node33</title>
<g id="a_node33"><a xlink:href="../../d8/dd2/MCP23017Encoders_8hpp.html" target="_top" xlink:title=" ">
<polygon fill="white" stroke="black" points="1803.5,-224.5 1803.5,-243.5 1937.5,-243.5 1937.5,-224.5 1803.5,-224.5"/>
<text text-anchor="middle" x="1870.5" y="-231.5" font-family="Helvetica,sans-Serif" font-size="10.00">MCP23017Encoders.hpp</text>
</a>
</g>
</g>
<!-- Node16&#45;&gt;Node33 -->
<g id="edge43" class="edge">
<title>Node16&#45;&gt;Node33</title>
<path fill="none" stroke="midnightblue" d="M1135.31,-285.36C1270.75,-278.97 1552.09,-264.44 1789.5,-244 1794.01,-243.61 1798.66,-243.18 1803.34,-242.72"/>
<polygon fill="midnightblue" stroke="midnightblue" points="1134.85,-281.88 1125.02,-285.85 1135.18,-288.87 1134.85,-281.88"/>
</g>
<!-- Node18 -->
<g id="node18" class="node">
<title>Node18</title>
<g id="a_node18"><a xlink:href="../../de/dd1/Button_8cpp.html" target="_top" xlink:title=" ">
<polygon fill="white" stroke="black" points="772,-168.5 772,-187.5 841,-187.5 841,-168.5 772,-168.5"/>
<text text-anchor="middle" x="806.5" y="-175.5" font-family="Helvetica,sans-Serif" font-size="10.00">Button.cpp</text>
</a>
</g>
</g>
<!-- Node17&#45;&gt;Node18 -->
<g id="edge23" class="edge">
<title>Node17&#45;&gt;Node18</title>
<path fill="none" stroke="midnightblue" d="M874.21,-219.18C857.46,-209.24 835.4,-196.15 821.08,-187.65"/>
<polygon fill="midnightblue" stroke="midnightblue" points="872.49,-222.23 882.88,-224.32 876.07,-216.21 872.49,-222.23"/>
</g>
<!-- Node19 -->
<g id="node19" class="node">
<title>Node19</title>
<g id="a_node19"><a xlink:href="../../d5/d04/IncrementButton_8hpp.html" target="_top" xlink:title=" ">
<polygon fill="white" stroke="black" points="635,-168.5 635,-187.5 754,-187.5 754,-168.5 635,-168.5"/>
<text text-anchor="middle" x="694.5" y="-175.5" font-family="Helvetica,sans-Serif" font-size="10.00">IncrementButton.hpp</text>
</a>
</g>
</g>
<!-- Node17&#45;&gt;Node19 -->
<g id="edge24" class="edge">
<title>Node17&#45;&gt;Node19</title>
<path fill="none" stroke="midnightblue" d="M855.51,-221.83C817.18,-211.63 761.35,-196.78 726.52,-187.52"/>
<polygon fill="midnightblue" stroke="midnightblue" points="854.77,-225.26 865.33,-224.44 856.57,-218.49 854.77,-225.26"/>
</g>
<!-- Node21 -->
<g id="node21" class="node">
<title>Node21</title>
<g id="a_node21"><a xlink:href="../../df/df5/IncrementDecrementButtons_8hpp.html" target="_top" xlink:title=" ">
<polygon fill="white" stroke="black" points="898,-168.5 898,-187.5 1077,-187.5 1077,-168.5 898,-168.5"/>
<text text-anchor="middle" x="987.5" y="-175.5" font-family="Helvetica,sans-Serif" font-size="10.00">IncrementDecrementButtons.hpp</text>
</a>
</g>
</g>
<!-- Node17&#45;&gt;Node21 -->
<g id="edge26" class="edge">
<title>Node17&#45;&gt;Node21</title>
<path fill="none" stroke="midnightblue" d="M920.54,-219.18C937.1,-209.24 958.92,-196.15 973.08,-187.65"/>
<polygon fill="midnightblue" stroke="midnightblue" points="918.73,-216.18 911.96,-224.32 922.34,-222.18 918.73,-216.18"/>
</g>
<!-- Node20 -->
<g id="node20" class="node">
<title>Node20</title>
<g id="a_node20"><a xlink:href="../../db/d9d/IncrementButton_8cpp.html" target="_top" xlink:title=" ">
<polygon fill="white" stroke="black" points="635,-112.5 635,-131.5 754,-131.5 754,-112.5 635,-112.5"/>
<text text-anchor="middle" x="694.5" y="-119.5" font-family="Helvetica,sans-Serif" font-size="10.00">IncrementButton.cpp</text>
</a>
</g>
</g>
<!-- Node19&#45;&gt;Node20 -->
<g id="edge25" class="edge">
<title>Node19&#45;&gt;Node20</title>
<path fill="none" stroke="midnightblue" d="M694.5,-157.8C694.5,-148.91 694.5,-138.78 694.5,-131.75"/>
<polygon fill="midnightblue" stroke="midnightblue" points="691,-158.08 694.5,-168.08 698,-158.08 691,-158.08"/>
</g>
<!-- Node22 -->
<g id="node22" class="node">
<title>Node22</title>
<g id="a_node22"><a xlink:href="../../da/d66/IncrementDecrementButtons_8cpp.html" target="_top" xlink:title=" ">
<polygon fill="white" stroke="black" points="898.5,-112.5 898.5,-131.5 1076.5,-131.5 1076.5,-112.5 898.5,-112.5"/>
<text text-anchor="middle" x="987.5" y="-119.5" font-family="Helvetica,sans-Serif" font-size="10.00">IncrementDecrementButtons.cpp</text>
</a>
</g>
</g>
<!-- Node21&#45;&gt;Node22 -->
<g id="edge27" class="edge">
<title>Node21&#45;&gt;Node22</title>
<path fill="none" stroke="midnightblue" d="M987.5,-157.8C987.5,-148.91 987.5,-138.78 987.5,-131.75"/>
<polygon fill="midnightblue" stroke="midnightblue" points="984,-158.08 987.5,-168.08 991,-158.08 984,-158.08"/>
</g>
<!-- Node23&#45;&gt;Node24 -->
<g id="edge29" class="edge">
<title>Node23&#45;&gt;Node24</title>
<path fill="none" stroke="midnightblue" d="M1575.73,-214.1C1575.43,-205.14 1576.26,-194.86 1578.04,-187.75"/>
<polygon fill="midnightblue" stroke="midnightblue" points="1572.25,-214.45 1576.66,-224.08 1579.21,-213.8 1572.25,-214.45"/>
</g>
<!-- Node24&#45;&gt;Node23 -->
<g id="edge30" class="edge">
<title>Node24&#45;&gt;Node23</title>
<path fill="none" stroke="midnightblue" d="M1589.28,-197.99C1589.56,-206.86 1588.75,-217.01 1587,-224.08"/>
<polygon fill="midnightblue" stroke="midnightblue" points="1592.73,-197.38 1588.31,-187.75 1585.76,-198.04 1592.73,-197.38"/>
</g>
<!-- Node25&#45;&gt;Node4 -->
<g id="edge34" class="edge">
<title>Node25&#45;&gt;Node4</title>
<path fill="none" stroke="midnightblue" d="M394.06,-222.47C343.22,-212.27 267.06,-196.98 219.92,-187.52"/>
<polygon fill="midnightblue" stroke="midnightblue" points="393.38,-225.91 403.88,-224.44 394.76,-219.04 393.38,-225.91"/>
</g>
<!-- Node26 -->
<g id="node26" class="node">
<title>Node26</title>
<g id="a_node26"><a xlink:href="../../da/d1f/ExtendedIOElement_8cpp.html" target="_top" xlink:title=" ">
<polygon fill="white" stroke="black" points="286.5,-168.5 286.5,-187.5 420.5,-187.5 420.5,-168.5 286.5,-168.5"/>
<text text-anchor="middle" x="353.5" y="-175.5" font-family="Helvetica,sans-Serif" font-size="10.00">ExtendedIOElement.cpp</text>
</a>
</g>
</g>
<!-- Node25&#45;&gt;Node26 -->
<g id="edge32" class="edge">
<title>Node25&#45;&gt;Node26</title>
<path fill="none" stroke="midnightblue" d="M422.69,-219.18C405.58,-209.24 383.03,-196.15 368.4,-187.65"/>
<polygon fill="midnightblue" stroke="midnightblue" points="421.15,-222.33 431.56,-224.32 424.67,-216.28 421.15,-222.33"/>
</g>
<!-- Node25&#45;&gt;Node27 -->
<g id="edge33" class="edge">
<title>Node25&#45;&gt;Node27</title>
<path fill="none" stroke="midnightblue" d="M464.25,-217.54C475.31,-207.91 489.13,-195.87 498.36,-187.83"/>
<polygon fill="midnightblue" stroke="midnightblue" points="461.7,-215.12 456.46,-224.32 466.3,-220.4 461.7,-215.12"/>
</g>
<!-- Node30 -->
<g id="node30" class="node">
<title>Node30</title>
<g id="a_node30"><a xlink:href="../../d6/d3a/DotBarDisplayLEDs_8hpp.html" target="_top" xlink:title=" ">
<polygon fill="white" stroke="black" points="1306.5,-168.5 1306.5,-187.5 1438.5,-187.5 1438.5,-168.5 1306.5,-168.5"/>
<text text-anchor="middle" x="1372.5" y="-175.5" font-family="Helvetica,sans-Serif" font-size="10.00">DotBarDisplayLEDs.hpp</text>
</a>
</g>
</g>
<!-- Node29&#45;&gt;Node30 -->
<g id="edge38" class="edge">
<title>Node29&#45;&gt;Node30</title>
<path fill="none" stroke="midnightblue" d="M1292.56,-219.73C1312.18,-209.73 1338.53,-196.31 1355.51,-187.65"/>
<polygon fill="midnightblue" stroke="midnightblue" points="1290.85,-216.67 1283.53,-224.32 1294.03,-222.9 1290.85,-216.67"/>
</g>
<!-- Node31&#45;&gt;Node5 -->
<g id="edge40" class="edge">
<title>Node31&#45;&gt;Node5</title>
<path fill="none" stroke="midnightblue" d="M1004.16,-222.14C971.03,-214.3 927.01,-202.55 889.5,-188 871.34,-180.95 869.1,-173.78 850.5,-168 794.05,-150.47 623.55,-133.73 543.66,-126.6"/>
<polygon fill="midnightblue" stroke="midnightblue" points="1003.54,-225.59 1014.08,-224.45 1005.13,-218.78 1003.54,-225.59"/>
</g>
<!-- Node32 -->
<g id="node32" class="node">
<title>Node32</title>
<g id="a_node32"><a xlink:href="../../d5/d0c/MAX7219SevenSegmentDisplay_8hpp.html" target="_top" xlink:title=" ">
<polygon fill="white" stroke="black" points="1095,-168.5 1095,-187.5 1288,-187.5 1288,-168.5 1095,-168.5"/>
<text text-anchor="middle" x="1191.5" y="-175.5" font-family="Helvetica,sans-Serif" font-size="10.00">MAX7219SevenSegmentDisplay.hpp</text>
</a>
</g>
</g>
<!-- Node31&#45;&gt;Node32 -->
<g id="edge41" class="edge">
<title>Node31&#45;&gt;Node32</title>
<path fill="none" stroke="midnightblue" d="M1085.52,-220.77C1111.26,-210.63 1147.19,-196.47 1169.89,-187.52"/>
<polygon fill="midnightblue" stroke="midnightblue" points="1084.23,-217.52 1076.21,-224.44 1086.79,-224.03 1084.23,-217.52"/>
</g>
<!-- Node34&#45;&gt;Node33 -->
<g id="edge52" class="edge">
<title>Node34&#45;&gt;Node33</title>
<path fill="none" stroke="midnightblue" d="M1795.88,-328.27C1814.9,-304.49 1849.07,-261.79 1863.63,-243.59"/>
<polygon fill="midnightblue" stroke="midnightblue" points="1792.92,-326.37 1789.41,-336.37 1798.39,-330.75 1792.92,-326.37"/>
</g>
</g>
</svg>
